<?xml version="1.0" encoding="UTF-8"?>
<svg xmlns="http://www.w3.org/2000/svg" xmlns:xlink="http://www.w3.org/1999/xlink" version="1.2" >
<font id="VolvoBroadWeb">
<font-face  font-family="Volvo Broad Web" units-per-em="1000" ascent="750" descent="-250" font-style="normal" font-weight="500" font-stretch="normal" cap-height="706" x-height="706" underline-position="-75" underline-thickness="50" />
<missing-glyph  horiz-adv-x="500" d="M12 950 L487 950 L487 -250 L12 -250 L12 950 Z " />
<glyph glyph-name=".null" d="" />
<glyph glyph-name="nonmarkingreturn" unicode="&#xd;" horiz-adv-x="200" d="" />
<glyph glyph-name="space" unicode="&#x20;" horiz-adv-x="200" d="" />
<glyph glyph-name="C" unicode="C" horiz-adv-x="307" d="M145 0 Q105 0 80 13.5 Q55 27 41.5 64.5 Q28 102 23 168.5 Q18 235 18 340 Q18 446 20.5 516.5 Q23 587 35 629 Q47 671 71.5 688.5 Q96 706 140 706 L271 706 Q289 706 296.5 697.5 Q304 689 304 669 L304 621 Q304 596 297 588.5 Q290 581 269 581 L188 581 Q173 581 164.5 576.5 Q156 572 151.5 549.5 Q147 527 146 481 Q145 435 145 351 Q145 268 146.5 222.5 Q148 177 152 155.5 Q156 134 164 129.5 Q172 125 186 125 L269 125 Q288 125 295.5 117 Q303 109 303 89 L303 38 Q303 17 295.5 8.5 Q288 0 271 0 L145 0 Z " />
<glyph glyph-name="D" unicode="D" horiz-adv-x="387" d="M28 658 Q28 684 35 695 Q42 706 61 706 L242 706 Q286 706 311.5 687.5 Q337 669 349.5 627 Q362 585 365.5 517.5 Q369 450 369 353 Q369 238 364 168.5 Q359 99 344.5 61.5 Q330 24 304 12 Q278 0 236 0 L65 0 Q42 0 35 8 Q28 16 28 45 L28 658 Z M148 153 Q148 143 149 137.5 Q150 132 154 129 Q158 126 165.5 125.5 Q173 125 187 125 Q206 125 217.5 129 Q229 133 234.5 154 Q240 175 241.5 219 Q243 263 243 343 Q243 431 242 479.5 Q241 528 235.5 550.5 Q230 573 218 577 Q206 581 184 581 Q161 581 154.5 576 Q148 571 148 549 L148 153 Z " />
<glyph glyph-name="E" unicode="E" horiz-adv-x="318" d="M28 659 Q28 685 35.5 695.5 Q43 706 63 706 L273 706 Q293 706 300 698 Q307 690 307 664 L307 625 Q307 599 300 590 Q293 581 273 581 L169 581 Q157 581 153.5 576.5 Q150 572 150 558 L150 459 Q150 444 152.5 440.5 Q155 437 169 437 L222 437 Q239 437 246 430 Q253 423 253 401 L253 347 Q253 327 246 319.5 Q239 312 222 312 L169 312 Q158 312 154 309 Q150 306 150 296 L150 148 Q150 135 154 130 Q158 125 172 125 L277 125 Q299 125 307 115 Q315 105 315 79 L315 45 Q315 21 307 10.5 Q299 0 279 0 L63 0 Q42 0 35 9.5 Q28 19 28 47 L28 659 Z " />
<glyph glyph-name="F" unicode="F" horiz-adv-x="304" d="M28 657 Q28 686 35 696 Q42 706 62 706 L263 706 Q284 706 292 696 Q300 686 300 660 L300 623 Q300 599 293 590 Q286 581 268 581 L170 581 Q157 581 154 576 Q151 571 151 552 L151 456 Q151 445 154 441 Q157 437 165 437 L224 437 Q244 437 250 428.5 Q256 420 256 395 L256 358 Q256 332 249.5 322 Q243 312 223 312 L170 312 Q157 312 154 307 Q151 302 151 285 L151 44 Q151 19 144.5 9.5 Q138 0 121 0 L61 0 Q41 0 34.5 9 Q28 18 28 44 L28 657 Z " />
<glyph glyph-name="G" unicode="G" horiz-adv-x="377" d="M251 285 Q251 301 248.5 306.5 Q246 312 238 312 L207 312 Q193 312 190.5 320.5 Q188 329 188 345 L188 394 Q188 417 194.5 427 Q201 437 227 437 L328 437 Q348 437 354.5 425.5 Q361 414 361 390 L361 207 Q361 157 356 118 Q351 79 334 52.5 Q317 26 284.5 12 Q252 -2 198 -2 Q130 -2 93.5 19.5 Q57 41 40 84.5 Q23 128 20.5 194 Q18 260 18 350 Q18 437 20.5 503.5 Q23 570 34 615 Q45 660 69.5 683 Q94 706 139 706 L282 706 Q302 706 310 698 Q318 690 318 661 L318 627 Q318 601 311.5 591 Q305 581 286 581 L209 581 Q185 581 172 577 Q159 573 153 551 Q147 529 145.5 481.5 Q144 434 144 347 L144 193 Q144 155 160 140 Q176 125 200 125 Q222 125 236.5 139 Q251 153 251 181 L251 285 Z " />
<glyph glyph-name="H" unicode="H" horiz-adv-x="400" d="M28 660 Q28 686 35.5 696 Q43 706 62 706 L120 706 Q137 706 144 695 Q151 684 151 661 L151 457 Q151 444 155 440.5 Q159 437 167 437 L233 437 Q241 437 245 440.5 Q249 444 249 457 L249 661 Q249 684 256 695 Q263 706 280 706 L338 706 Q357 706 364.5 696 Q372 686 372 660 L372 47 Q372 20 365 10 Q358 0 338 0 L281 0 Q261 0 255 11 Q249 22 249 45 L249 290 Q249 303 245.5 307.5 Q242 312 232 312 L168 312 Q157 312 154 307.5 Q151 303 151 290 L151 45 Q151 22 145 11 Q139 0 118 0 L62 0 Q42 0 35 10 Q28 20 28 47 L28 660 Z " />
<glyph glyph-name="I" unicode="I" horiz-adv-x="180" d="M28 658 Q28 686 35 696 Q42 706 62 706 L120 706 Q138 706 145 695.5 Q152 685 152 658 L152 44 Q152 15 144.5 7.5 Q137 0 117 0 L65 0 Q42 0 35 9 Q28 18 28 47 L28 658 Z " />
<glyph glyph-name="J" unicode="J" horiz-adv-x="245" d="M3 83 Q3 111 10.5 118 Q18 125 37 125 L65 125 Q82 125 90 133.5 Q98 142 98 171 L98 661 Q98 688 105 697 Q112 706 134 706 L187 706 Q210 706 216.5 697 Q223 688 223 662 L223 181 Q223 144 218 114 Q213 84 199 58 Q182 28 157 14 Q132 0 92 0 L40 0 Q17 0 10 8 Q3 16 3 43 L3 83 Z " />
<glyph glyph-name="K" unicode="K" horiz-adv-x="397" d="M28 658 Q28 686 35 696 Q42 706 62 706 L120 706 Q138 706 145 695.5 Q152 685 152 658 L152 500 Q152 496 153 492.5 Q154 489 158 489 Q162 489 168 500 L247 665 Q257 687 263.5 696.5 Q270 706 287 706 L381 706 Q394 706 394 693 Q394 687 390 680 L286 477 Q284 472 281.5 466.5 Q279 461 279 456 Q279 450 279.5 445.5 Q280 441 282 435 L389 32 Q395 11 390.5 5.5 Q386 0 372 0 L286 0 Q272 0 266 6 Q260 12 256 31 L206 266 Q203 280 201 289 Q199 298 194 298 Q191 298 188.5 297 Q186 296 183 292 Q180 288 175 279.5 Q170 271 162 255 Q155 243 153.5 229 Q152 215 152 196 L152 44 Q152 15 144.5 7.5 Q137 0 117 0 L65 0 Q42 0 35 9 Q28 18 28 47 L28 658 Z " />
<glyph glyph-name="L" unicode="L" horiz-adv-x="294" d="M28 660 Q28 685 35.5 695.5 Q43 706 62 706 L118 706 Q139 706 145.5 696 Q152 686 152 660 L152 147 Q152 134 156.5 129.5 Q161 125 169 125 L255 125 Q275 125 283 115.5 Q291 106 291 80 L291 45 Q291 21 281.5 10.5 Q272 0 252 0 L62 0 Q41 0 34.5 9 Q28 18 28 47 L28 660 Z " />
<glyph glyph-name="M" unicode="M" horiz-adv-x="493" d="M28 662 Q28 688 34.5 697 Q41 706 61 706 L120 706 Q145 706 153 701 Q161 696 167 673 L238 419 Q241 409 247 409 Q252 409 255 419 L326 673 Q332 696 340 701 Q348 706 373 706 L432 706 Q452 706 459 697 Q466 688 466 662 L466 45 Q466 16 459.5 8 Q453 0 431 0 L375 0 Q354 0 347.5 9.5 Q341 19 341 44 L341 331 Q341 339 341 348 Q341 357 336 357 Q333 357 331 349 Q329 341 327 333 L285 124 Q280 104 272 98 Q264 92 247 92 Q230 92 221.5 98 Q213 104 208 124 L166 333 Q164 341 162 349 Q160 357 157 357 Q152 357 152 348 Q152 339 152 331 L152 44 Q152 19 145.5 9.5 Q139 0 118 0 L62 0 Q40 0 34 8 Q28 16 28 45 L28 662 Z " />
<glyph glyph-name="N" unicode="N" horiz-adv-x="414" d="M28 659 Q28 687 35 696.5 Q42 706 65 706 L113 706 Q132 706 139 700.5 Q146 695 154 673 L243 411 Q247 401 249.5 398.5 Q252 396 255 396 Q258 396 259 400 Q260 404 260 416 L260 659 Q260 684 267 695 Q274 706 293 706 L348 706 Q365 706 375.5 697.5 Q386 689 386 658 L386 48 Q386 20 379 10 Q372 0 349 0 L300 0 Q281 0 274 5 Q267 10 259 33 L170 296 Q167 306 164.5 308.5 Q162 311 159 311 Q155 311 154 307 Q153 303 153 291 L153 47 Q153 22 146.5 11 Q140 0 121 0 L66 0 Q48 0 38 8 Q28 16 28 48 L28 659 Z " />
<glyph glyph-name="O" unicode="O" horiz-adv-x="377" d="M188 -10 Q124 -10 89.5 17.5 Q55 45 39 93.5 Q23 142 20.5 208.5 Q18 275 18 354 Q18 433 20.5 499 Q23 565 39 612.5 Q55 660 89.5 686.5 Q124 713 188 713 Q252 713 287 686.5 Q322 660 338 612.5 Q354 565 356.5 499 Q359 433 359 354 Q359 275 356.5 208.5 Q354 142 338 93.5 Q322 45 287 17.5 Q252 -10 188 -10 Z M188 125 Q205 125 214.5 134.5 Q224 144 228.5 169.5 Q233 195 234 239.5 Q235 284 235 354 Q235 424 234 468 Q233 512 228.5 537 Q224 562 214.5 571 Q205 580 188 580 Q171 580 162 571 Q153 562 148.5 537 Q144 512 143 468 Q142 424 142 354 Q142 284 143 239.5 Q144 195 148.5 169.5 Q153 144 162 134.5 Q171 125 188 125 Z " />
<glyph glyph-name="P" unicode="P" horiz-adv-x="367" d="M28 657 Q28 684 35 695 Q42 706 61 706 L224 706 Q291 706 325.5 649 Q360 592 360 480 Q360 374 329.5 318 Q299 262 241 262 L152 262 L152 45 Q152 17 145.5 8.5 Q139 0 118 0 L61 0 Q40 0 34 8 Q28 16 28 45 L28 657 Z M203 387 Q211 387 217 390 Q223 393 227 403 Q231 413 233 431.5 Q235 450 235 481 Q235 513 233 533 Q231 553 226.5 563.5 Q222 574 215.5 577.5 Q209 581 200 581 L169 581 Q161 581 156.5 578 Q152 575 152 562 L152 405 Q152 394 156 390.5 Q160 387 168 387 L203 387 Z " />
<glyph glyph-name="Q" unicode="Q" horiz-adv-x="377" d="M212 -8 Q206 -8 200 -9 Q194 -10 187 -10 Q123 -10 88.5 17.5 Q54 45 38.5 93.5 Q23 142 20.5 208.5 Q18 275 18 354 Q18 433 20.5 499 Q23 565 38.5 612.5 Q54 660 88.5 686.5 Q123 713 187 713 Q251 713 286 686.5 Q321 660 337 612.5 Q353 565 355.5 499 Q358 433 358 354 Q358 303 357.5 256.5 Q357 210 352.5 170.5 Q348 131 338.5 98.5 Q329 66 311 43 L370 -20 Q381 -31 380 -39 Q379 -47 365 -54 L295 -85 Q284 -90 276.5 -86 Q269 -82 257 -67 L212 -8 Z M187 125 Q204 125 214 134.5 Q224 144 228.5 169.5 Q233 195 234 239.5 Q235 284 235 354 Q235 424 234 468 Q233 512 228.5 537 Q224 562 214 571 Q204 580 187 580 Q170 580 161 571 Q152 562 147.5 537 Q143 512 142 468 Q141 424 141 354 Q141 284 142 239.5 Q143 195 147.5 169.5 Q152 144 161 134.5 Q170 125 187 125 Z " />
<glyph glyph-name="R" unicode="R" horiz-adv-x="371" d="M28 658 Q28 685 35.5 695.5 Q43 706 63 706 L215 706 Q360 706 360 488 Q360 428 347 391.5 Q334 355 303 329 L364 29 Q365 24 365.5 20.5 Q366 17 366 15 Q366 0 347 0 L264 0 Q250 0 244.5 5.5 Q239 11 236 31 L193 285 Q191 292 188 293 Q185 294 180 294 L165 294 Q160 294 156.5 293 Q153 292 153 284 L153 44 Q153 21 145.5 10.5 Q138 0 118 0 L61 0 Q41 0 34.5 9.5 Q28 19 28 45 L28 658 Z M199 419 Q218 419 227.5 438.5 Q237 458 237 504 Q237 549 227.5 565 Q218 581 201 581 L167 581 Q161 581 157 576.5 Q153 572 153 566 L153 438 Q153 419 164 419 L199 419 Z " />
<glyph glyph-name="S" unicode="S" horiz-adv-x="322" d="M10 80 Q10 108 17 116.5 Q24 125 44 125 L153 125 Q176 125 180.5 142.5 Q185 160 176 177 L56 402 Q38 435 28.5 461 Q19 487 14 508 Q9 529 8 546 Q7 563 7 578 Q7 650 39.5 678 Q72 706 138 706 L259 706 Q289 706 289 668 L289 621 Q289 598 281 589.5 Q273 581 256 581 L162 581 Q136 581 130.5 561 Q125 541 138 518 L252 310 Q273 271 285.5 243 Q298 215 305 192.5 Q312 170 314 151.5 Q316 133 316 113 Q316 50 285 25 Q254 0 203 0 L45 0 Q25 0 17.5 8.5 Q10 17 10 43 L10 80 Z " />
<glyph glyph-name="T" unicode="T" horiz-adv-x="333" d="M104 560 Q104 574 100 577.5 Q96 581 90 581 L35 581 Q16 581 9.5 589 Q3 597 3 623 L3 659 Q3 687 10.5 696.5 Q18 706 38 706 L296 706 Q316 706 323 696.5 Q330 687 330 663 L330 624 Q330 598 323.5 589.5 Q317 581 297 581 L242 581 Q234 581 231.5 577 Q229 573 229 560 L229 47 Q229 19 222 9.5 Q215 0 195 0 L140 0 Q118 0 111 9 Q104 18 104 43 L104 560 Z " />
<glyph glyph-name="U" unicode="U" horiz-adv-x="383" d="M21 659 Q21 686 29 696 Q37 706 58 706 L114 706 Q134 706 140 697 Q146 688 146 662 L146 180 Q146 151 156.5 138 Q167 125 193 125 Q216 125 226.5 138 Q237 151 237 181 L237 662 Q237 688 243.5 697 Q250 706 271 706 L329 706 Q350 706 356 697 Q362 688 362 662 L362 201 Q362 158 356 119.5 Q350 81 332 52.5 Q314 24 280 7 Q246 -10 189 -10 Q136 -10 103.5 4 Q71 18 52.5 44.5 Q34 71 27.5 109 Q21 147 21 196 L21 659 Z " />
<glyph glyph-name="V" unicode="V" horiz-adv-x="385" d="M3 677 Q1 693 4.5 699.5 Q8 706 22 706 L104 706 Q117 706 123 700.5 Q129 695 132 672 L183 270 Q184 254 193 254 Q201 254 202 270 L253 672 Q256 695 262 700.5 Q268 706 281 706 L363 706 Q377 706 380.5 699.5 Q384 693 382 677 L277 29 Q275 12 269 6 Q263 0 249 0 L136 0 Q122 0 116 6 Q110 12 108 29 L3 677 Z " />
<glyph glyph-name="W" unicode="W" horiz-adv-x="585" d="M4 667 Q2 681 3.5 689 Q5 697 8.5 700.5 Q12 704 18 705 Q24 706 31 706 L103 706 Q116 706 121 699.5 Q126 693 128 675 L178 331 Q181 317 187 317 Q192 317 196 331 L243 534 L229 668 Q227 682 230.5 694 Q234 706 255 706 L329 706 Q343 706 348 699 Q353 692 355 675 L397 332 Q398 317 405 317 Q412 317 414 332 L456 678 Q459 706 480 706 L558 706 Q573 706 578.5 698.5 Q584 691 580 668 L470 31 Q467 14 460.5 7 Q454 0 440 0 L358 0 Q341 0 335.5 6 Q330 12 328 32 L298 268 Q297 272 296.5 276 Q296 280 293 280 Q290 280 288.5 276.5 Q287 273 286 269 L227 21 Q225 10 219 5 Q213 0 199 0 L130 0 Q116 0 111 5 Q106 10 104 26 L4 667 Z " />
<glyph glyph-name="X" unicode="X" horiz-adv-x="362" d="M75 366 L5 668 Q-3 706 26 706 L107 706 Q128 706 134 677 L172 478 Q176 464 181 464 Q186 464 189 478 L227 677 Q233 706 255 706 L335 706 Q365 706 357 668 L286 366 L357 39 Q362 19 358.5 9.5 Q355 0 340 0 L257 0 Q233 0 229 26 L190 245 Q187 258 181 258 Q175 258 171 245 L133 26 Q129 0 105 0 L22 0 Q7 0 3.5 9.5 Q0 19 5 39 L75 366 Z " />
<glyph glyph-name="Y" unicode="Y" horiz-adv-x="364" d="M120 270 L3 669 Q-1 682 2 694 Q5 706 22 706 L93 706 Q104 706 110 701.5 Q116 697 121 680 L175 451 Q177 443 178 441 Q179 439 182 439 Q185 439 186 441 Q187 443 189 451 L243 680 Q248 697 254 701.5 Q260 706 271 706 L342 706 Q359 706 362 694 Q365 682 361 669 L244 270 L244 45 Q244 17 237.5 8.5 Q231 0 209 0 L154 0 Q133 0 126.5 8.5 Q120 17 120 45 L120 270 Z " />
<glyph glyph-name="Z" unicode="Z" horiz-adv-x="329" d="M8 122 Q8 128 8 134 Q8 140 9 148 Q10 156 13.5 167 Q17 178 25 195 L194 562 Q198 570 196 575.5 Q194 581 185 581 L53 581 Q41 581 34.5 582.5 Q28 584 24 588.5 Q20 593 19 601.5 Q18 610 18 624 L18 661 Q18 688 24 697 Q30 706 52 706 L288 706 Q320 706 320 664 L320 576 Q320 566 316.5 553.5 Q313 541 305 522 L136 150 Q131 141 133 133 Q135 125 146 125 L287 125 Q307 125 314 116 Q321 107 321 79 L321 43 Q321 18 313 9 Q305 0 282 0 L42 0 Q22 0 15 8 Q8 16 8 42 L8 122 Z " />
<glyph glyph-name="Agrave" unicode="&#xc0;" horiz-adv-x="393" d="M89 665 Q92 688 101.5 697 Q111 706 133 706 L256 706 Q275 706 284.5 696.5 Q294 687 297 664 L389 16 Q392 0 373 0 L273 0 Q265 0 261 4 Q257 8 255 19 L235 168 Q233 179 229.5 182 Q226 185 217 185 L172 185 Q164 185 160 182 Q156 179 154 168 L138 17 Q136 6 132.5 3 Q129 0 118 0 L21 0 Q2 0 3 16 L89 665 Z M207 310 Q223 310 222 322 L202 565 Q201 581 194 581 Q186 581 185 564 L167 322 Q167 310 181 310 L207 310 Z M84 804 Q73 813 73 821 Q73 835 88 835 L181 835 Q189 835 193 832 Q197 829 205 818 L252 755 Q257 749 257 742 Q257 732 246 732 L180 732 Q171 732 167 734 Q163 736 157 742 L84 804 Z " />
<glyph glyph-name="Aacute" unicode="&#xc1;" horiz-adv-x="393" d="M89 665 Q92 688 101.5 697 Q111 706 133 706 L256 706 Q275 706 284.5 696.5 Q294 687 297 664 L389 16 Q392 0 373 0 L273 0 Q265 0 261 4 Q257 8 255 19 L235 168 Q233 179 229.5 182 Q226 185 217 185 L172 185 Q164 185 160 182 Q156 179 154 168 L138 17 Q136 6 132.5 3 Q129 0 118 0 L21 0 Q2 0 3 16 L89 665 Z M207 310 Q223 310 222 322 L202 565 Q201 581 194 581 Q186 581 185 564 L167 322 Q167 310 181 310 L207 310 Z M186 818 Q194 829 197.5 832 Q201 835 209 835 L302 835 Q317 835 317 821 Q317 812 306 804 L233 742 Q227 736 223.5 734 Q220 732 210 732 L144 732 Q133 732 133 742 Q133 749 138 755 L186 818 Z " />
<glyph glyph-name="Acircumflex" unicode="&#xc2;" horiz-adv-x="393" d="M89 665 Q92 688 101.5 697 Q111 706 133 706 L256 706 Q275 706 284.5 696.5 Q294 687 297 664 L389 16 Q392 0 373 0 L273 0 Q265 0 261 4 Q257 8 255 19 L235 168 Q233 179 229.5 182 Q226 185 217 185 L172 185 Q164 185 160 182 Q156 179 154 168 L138 17 Q136 6 132.5 3 Q129 0 118 0 L21 0 Q2 0 3 16 L89 665 Z M207 310 Q223 310 222 322 L202 565 Q201 581 194 581 Q186 581 185 564 L167 322 Q167 310 181 310 L207 310 Z M114 818 Q119 828 124.5 831.5 Q130 835 143 835 L252 835 Q265 835 270 831.5 Q275 828 280 818 L316 749 Q317 747 318 744.5 Q319 742 319 740 Q319 732 309 732 L252 732 Q244 732 239 733.5 Q234 735 228 743 L197 783 L167 743 Q161 735 155.5 733.5 Q150 732 143 732 L86 732 Q76 732 76 740 Q76 743 78 749 L114 818 Z " />
<glyph glyph-name="Atilde" unicode="&#xc3;" horiz-adv-x="393" d="M89 665 Q92 688 101.5 697 Q111 706 133 706 L256 706 Q275 706 284.5 696.5 Q294 687 297 664 L389 16 Q392 0 373 0 L273 0 Q265 0 261 4 Q257 8 255 19 L235 168 Q233 179 229.5 182 Q226 185 217 185 L172 185 Q164 185 160 182 Q156 179 154 168 L138 17 Q136 6 132.5 3 Q129 0 118 0 L21 0 Q2 0 3 16 L89 665 Z M207 310 Q223 310 222 322 L202 565 Q201 581 194 581 Q186 581 185 564 L167 322 Q167 310 181 310 L207 310 Z M67 805 Q67 818 72.5 826.5 Q78 835 94 835 L136 835 Q141 835 145.5 834 Q150 833 154 832 L229 809 Q236 806 242 806 Q246 806 246 813 L246 818 Q246 826 251.5 830.5 Q257 835 263 835 L289 835 Q306 835 311 828.5 Q316 822 316 807 L316 762 Q316 749 311 740.5 Q306 732 289 732 L247 732 Q242 732 237.5 733 Q233 734 229 735 L154 758 Q146 761 141 761 Q137 761 137 754 L137 749 Q137 741 132 736.5 Q127 732 120 732 L94 732 Q78 732 72.5 738.5 Q67 745 67 760 L67 805 Z " />
<glyph glyph-name="Adieresis" unicode="&#xc4;" horiz-adv-x="393" d="M89 665 Q92 688 101.5 697 Q111 706 133 706 L256 706 Q275 706 284.5 696.5 Q294 687 297 664 L389 16 Q392 0 373 0 L273 0 Q265 0 261 4 Q257 8 255 19 L235 168 Q233 179 229.5 182 Q226 185 217 185 L172 185 Q164 185 160 182 Q156 179 154 168 L138 17 Q136 6 132.5 3 Q129 0 118 0 L21 0 Q2 0 3 16 L89 665 Z M207 310 Q223 310 222 322 L202 565 Q201 581 194 581 Q186 581 185 564 L167 322 Q167 310 181 310 L207 310 Z M213 805 Q213 823 219 830.5 Q225 838 245 838 L276 838 Q296 838 302.5 830.5 Q309 823 309 805 L309 765 Q309 747 302.5 739.5 Q296 732 276 732 L245 732 Q225 732 219 739.5 Q213 747 213 765 L213 805 Z M85 805 Q85 823 91 830.5 Q97 838 117 838 L148 838 Q168 838 174.5 830.5 Q181 823 181 805 L181 765 Q181 747 174.5 739.5 Q168 732 148 732 L117 732 Q97 732 91 739.5 Q85 747 85 765 L85 805 Z " />
<glyph glyph-name="Amacron" unicode="&#x100;" horiz-adv-x="393" d="M89 665 Q92 688 101.5 697 Q111 706 133 706 L256 706 Q275 706 284.5 696.5 Q294 687 297 664 L389 16 Q392 0 373 0 L273 0 Q265 0 261 4 Q257 8 255 19 L235 168 Q233 179 229.5 182 Q226 185 217 185 L172 185 Q164 185 160 182 Q156 179 154 168 L138 17 Q136 6 132.5 3 Q129 0 118 0 L21 0 Q2 0 3 16 L89 665 Z M207 310 Q223 310 222 322 L202 565 Q201 581 194 581 Q186 581 185 564 L167 322 Q167 310 181 310 L207 310 Z M77 791 Q77 814 88 819 Q99 824 125 824 L268 824 Q294 824 304.5 819 Q315 814 315 791 L315 765 Q315 742 304.5 737 Q294 732 268 732 L125 732 Q99 732 88 737 Q77 742 77 765 L77 791 Z " />
<glyph glyph-name="Abreve" unicode="&#x102;" horiz-adv-x="393" d="M89 665 Q92 688 101.5 697 Q111 706 133 706 L256 706 Q275 706 284.5 696.5 Q294 687 297 664 L389 16 Q392 0 373 0 L273 0 Q265 0 261 4 Q257 8 255 19 L235 168 Q233 179 229.5 182 Q226 185 217 185 L172 185 Q164 185 160 182 Q156 179 154 168 L138 17 Q136 6 132.5 3 Q129 0 118 0 L21 0 Q2 0 3 16 L89 665 Z M207 310 Q223 310 222 322 L202 565 Q201 581 194 581 Q186 581 185 564 L167 322 Q167 310 181 310 L207 310 Z M102 850 Q109 850 111.5 846 Q114 842 116 836 Q118 829 122 824 Q126 819 135 815.5 Q144 812 159 810.5 Q174 809 197 809 Q242 809 258 815.5 Q274 822 276 836 Q281 850 289 850 L318 850 Q324 850 327 845.5 Q330 841 330 836 Q330 819 323.5 800.5 Q317 782 302 767 Q287 752 261.5 742.5 Q236 733 197 733 Q158 733 132 742.5 Q106 752 90.5 767 Q75 782 68.5 800.5 Q62 819 62 836 Q62 841 65 845.5 Q68 850 74 850 L102 850 Z " />
<glyph glyph-name="Aring" unicode="&#xc5;" horiz-adv-x="393" d="M89 665 Q92 686 100.5 694 Q109 702 123 705 Q117 713 112 724 Q107 735 107 752 Q107 792 131 817.5 Q155 843 191 843 Q228 843 251.5 817.5 Q275 792 275 751 Q275 734 271.5 724.5 Q268 715 260 706 Q276 704 285 695 Q294 686 297 664 L389 16 Q392 0 373 0 L273 0 Q265 0 261 4 Q257 8 255 19 L235 168 Q233 179 229.5 182 Q226 185 217 185 L172 185 Q164 185 160 182 Q156 179 154 168 L138 17 Q136 6 132.5 3 Q129 0 118 0 L21 0 Q2 0 3 16 L89 665 Z M191 711 Q206 711 215.5 722 Q225 733 225 750 Q225 768 215.5 779.5 Q206 791 191 791 Q176 791 167 781 Q158 771 158 751 Q158 733 167 722 Q176 711 191 711 Z M207 310 Q223 310 222 322 L202 565 Q201 581 194 581 Q186 581 185 564 L167 322 Q167 310 181 310 L207 310 Z " />
<glyph glyph-name="Aogonek" unicode="&#x104;" horiz-adv-x="393" d="M390 -111 Q390 -138 383.5 -146.5 Q377 -155 353 -155 L301 -155 Q272 -155 252.5 -138 Q233 -121 233 -95 Q233 -34 299 0 L273 0 Q265 0 261 4 Q257 8 255 19 L235 168 Q233 179 229.5 182 Q226 185 217 185 L172 185 Q164 185 160 182 Q156 179 154 168 L138 17 Q136 6 132.5 3 Q129 0 118 0 L21 0 Q2 0 3 16 L89 665 Q92 688 101.5 697 Q111 706 133 706 L256 706 Q275 706 284.5 696.5 Q294 687 297 664 L389 16 Q389 -1 365 -8 Q336 -20 329 -29 Q322 -38 322 -47 Q322 -63 344 -63 L349 -63 Q374 -63 382 -70 Q390 -77 390 -96 L390 -111 Z M207 310 Q223 310 222 322 L202 565 Q201 581 194 581 Q186 581 185 564 L167 322 Q167 310 181 310 L207 310 Z " />
<glyph glyph-name="AE" unicode="&#xc6;" horiz-adv-x="541" d="M143 665 Q148 688 158.5 697 Q169 706 191 706 L493 706 Q513 706 520 698 Q527 690 527 664 L527 625 Q527 599 520 590 Q513 581 493 581 L389 581 Q377 581 373.5 576.5 Q370 572 370 558 L370 459 Q370 444 372.5 440.5 Q375 437 389 437 L442 437 Q460 437 466.5 430 Q473 423 473 401 L473 347 Q473 327 466 319.5 Q459 312 442 312 L389 312 Q378 312 374 309 Q370 306 370 296 L370 148 Q370 135 374 130 Q378 125 393 125 L497 125 Q519 125 527 115 Q535 105 535 79 L535 45 Q535 21 527 10.5 Q519 0 499 0 L263 0 Q255 0 251.5 4 Q248 8 248 19 L248 168 Q248 179 244 182 Q240 185 232 185 L186 185 Q178 185 173.5 182 Q169 179 167 168 L138 17 Q136 6 131.5 3 Q127 0 116 0 L19 0 Q0 0 3 16 L143 665 Z M232 310 Q248 310 248 322 L248 565 Q248 581 241 581 Q234 581 231 564 L193 322 Q191 310 205 310 L232 310 Z " />
<glyph glyph-name="Cacute" unicode="&#x106;" horiz-adv-x="307" d="M145 0 Q105 0 80 13.5 Q55 27 41.5 64.5 Q28 102 23 168.5 Q18 235 18 340 Q18 446 20.5 516.5 Q23 587 35 629 Q47 671 71.5 688.5 Q96 706 140 706 L271 706 Q289 706 296.5 697.5 Q304 689 304 669 L304 621 Q304 596 297 588.5 Q290 581 269 581 L188 581 Q173 581 164.5 576.5 Q156 572 151.5 549.5 Q147 527 146 481 Q145 435 145 351 Q145 268 146.5 222.5 Q148 177 152 155.5 Q156 134 164 129.5 Q172 125 186 125 L269 125 Q288 125 295.5 117 Q303 109 303 89 L303 38 Q303 17 295.5 8.5 Q288 0 271 0 L145 0 Z M166 818 Q174 829 177.5 832 Q181 835 189 835 L282 835 Q297 835 297 821 Q297 812 286 804 L213 742 Q207 736 203.5 734 Q200 732 190 732 L124 732 Q113 732 113 742 Q113 749 118 755 L166 818 Z " />
<glyph glyph-name="Ccaron" unicode="&#x10c;" horiz-adv-x="307" d="M145 0 Q105 0 80 13.5 Q55 27 41.5 64.5 Q28 102 23 168.5 Q18 235 18 340 Q18 446 20.5 516.5 Q23 587 35 629 Q47 671 71.5 688.5 Q96 706 140 706 L271 706 Q289 706 296.5 697.5 Q304 689 304 669 L304 621 Q304 596 297 588.5 Q290 581 269 581 L188 581 Q173 581 164.5 576.5 Q156 572 151.5 549.5 Q147 527 146 481 Q145 435 145 351 Q145 268 146.5 222.5 Q148 177 152 155.5 Q156 134 164 129.5 Q172 125 186 125 L269 125 Q288 125 295.5 117 Q303 109 303 89 L303 38 Q303 17 295.5 8.5 Q288 0 271 0 L145 0 Z M59 818 Q57 824 57 827 Q57 835 67 835 L124 835 Q131 835 136.5 833.5 Q142 832 148 824 L179 784 L208 824 Q215 832 220 833.5 Q225 835 233 835 L290 835 Q299 835 299 827 Q299 821 297 818 L261 748 Q256 738 251 735 Q246 732 233 732 L124 732 Q111 732 105.5 735 Q100 738 95 748 L59 818 Z " />
<glyph glyph-name="Ccedilla" unicode="&#xc7;" horiz-adv-x="307" d="M90 -79 Q90 -60 98 -53.5 Q106 -47 131 -47 L153 -47 Q167 -47 167 -31 Q167 -26 165.5 -19 Q164 -12 161 0 L145 0 Q105 0 80 13.5 Q55 27 41.5 64.5 Q28 102 23 168.5 Q18 235 18 340 Q18 446 20.5 516.5 Q23 587 35 629 Q47 671 71.5 688.5 Q96 706 140 706 L271 706 Q289 706 296.5 697.5 Q304 689 304 669 L304 621 Q304 596 297 588.5 Q290 581 269 581 L188 581 Q173 581 164.5 576.5 Q156 572 151.5 549.5 Q147 527 146 481 Q145 435 145 351 Q145 268 146.5 222.5 Q148 177 152 155.5 Q156 134 164 129.5 Q172 125 186 125 L269 125 Q288 125 295.5 117 Q303 109 303 89 L303 38 Q303 17 295.5 8.5 Q288 0 271 0 L211 0 Q216 -20 218 -32.5 Q220 -45 220 -58 Q220 -98 205.5 -121.5 Q191 -145 165 -145 L127 -145 Q103 -145 96.5 -137.5 Q90 -130 90 -103 L90 -79 Z " />
<glyph glyph-name="Dcaron" unicode="&#x10e;" horiz-adv-x="387" d="M28 658 Q28 684 35 695 Q42 706 61 706 L242 706 Q286 706 311.5 687.5 Q337 669 349.5 627 Q362 585 365.5 517.5 Q369 450 369 353 Q369 238 364 168.5 Q359 99 344.5 61.5 Q330 24 304 12 Q278 0 236 0 L65 0 Q42 0 35 8 Q28 16 28 45 L28 658 Z M148 153 Q148 143 149 137.5 Q150 132 154 129 Q158 126 165.5 125.5 Q173 125 187 125 Q206 125 217.5 129 Q229 133 234.5 154 Q240 175 241.5 219 Q243 263 243 343 Q243 431 242 479.5 Q241 528 235.5 550.5 Q230 573 218 577 Q206 581 184 581 Q161 581 154.5 576 Q148 571 148 549 L148 153 Z M75 818 Q73 824 73 827 Q73 835 83 835 L140 835 Q147 835 152.5 833.5 Q158 832 164 824 L195 784 L224 824 Q231 832 236 833.5 Q241 835 249 835 L306 835 Q315 835 315 827 Q315 821 313 818 L277 748 Q272 738 267 735 Q262 732 249 732 L140 732 Q127 732 121.5 735 Q116 738 111 748 L75 818 Z " />
<glyph glyph-name="Dcroat" unicode="&#x110;" horiz-adv-x="409" d="M50 329 L48 329 Q22 329 11 334 Q0 339 0 362 L0 388 Q0 411 11 416 Q22 421 48 421 L50 421 L50 658 Q50 684 57 695 Q64 706 83 706 L264 706 Q308 706 333.5 687.5 Q359 669 371.5 627 Q384 585 387.5 517.5 Q391 450 391 353 Q391 238 386 168.5 Q381 99 366.5 61.5 Q352 24 326 12 Q300 0 258 0 L87 0 Q64 0 57 8 Q50 16 50 45 L50 329 Z M170 153 Q170 143 171 137.5 Q172 132 176 129 Q180 126 187.5 125.5 Q195 125 209 125 Q228 125 239.5 129 Q251 133 256.5 154 Q262 175 263.5 219 Q265 263 265 343 Q265 431 264 479.5 Q263 528 257.5 550.5 Q252 573 240 577 Q228 581 206 581 Q183 581 176.5 576 Q170 571 170 549 L170 421 L182 421 Q208 421 218.5 416 Q229 411 229 388 L229 362 Q229 339 218.5 334 Q208 329 182 329 L170 329 L170 153 Z " />
<glyph glyph-name="Egrave" unicode="&#xc8;" horiz-adv-x="318" d="M28 659 Q28 685 35.5 695.5 Q43 706 63 706 L273 706 Q293 706 300 698 Q307 690 307 664 L307 625 Q307 599 300 590 Q293 581 273 581 L169 581 Q157 581 153.5 576.5 Q150 572 150 558 L150 459 Q150 444 152.5 440.5 Q155 437 169 437 L222 437 Q239 437 246 430 Q253 423 253 401 L253 347 Q253 327 246 319.5 Q239 312 222 312 L169 312 Q158 312 154 309 Q150 306 150 296 L150 148 Q150 135 154 130 Q158 125 172 125 L277 125 Q299 125 307 115 Q315 105 315 79 L315 45 Q315 21 307 10.5 Q299 0 279 0 L63 0 Q42 0 35 9.5 Q28 19 28 47 L28 659 Z M56 804 Q45 813 45 821 Q45 835 60 835 L153 835 Q161 835 165 832 Q169 829 177 818 L224 755 Q229 749 229 742 Q229 732 218 732 L152 732 Q143 732 139 734 Q135 736 129 742 L56 804 Z " />
<glyph glyph-name="Eacute" unicode="&#xc9;" horiz-adv-x="318" d="M28 659 Q28 685 35.5 695.5 Q43 706 63 706 L273 706 Q293 706 300 698 Q307 690 307 664 L307 625 Q307 599 300 590 Q293 581 273 581 L169 581 Q157 581 153.5 576.5 Q150 572 150 558 L150 459 Q150 444 152.5 440.5 Q155 437 169 437 L222 437 Q239 437 246 430 Q253 423 253 401 L253 347 Q253 327 246 319.5 Q239 312 222 312 L169 312 Q158 312 154 309 Q150 306 150 296 L150 148 Q150 135 154 130 Q158 125 172 125 L277 125 Q299 125 307 115 Q315 105 315 79 L315 45 Q315 21 307 10.5 Q299 0 279 0 L63 0 Q42 0 35 9.5 Q28 19 28 47 L28 659 Z M153 818 Q161 829 164.5 832 Q168 835 176 835 L269 835 Q284 835 284 821 Q284 812 273 804 L200 742 Q194 736 190.5 734 Q187 732 177 732 L111 732 Q100 732 100 742 Q100 749 105 755 L153 818 Z " />
<glyph glyph-name="Ecircumflex" unicode="&#xca;" horiz-adv-x="318" d="M28 659 Q28 685 35.5 695.5 Q43 706 63 706 L273 706 Q293 706 300 698 Q307 690 307 664 L307 625 Q307 599 300 590 Q293 581 273 581 L169 581 Q157 581 153.5 576.5 Q150 572 150 558 L150 459 Q150 444 152.5 440.5 Q155 437 169 437 L222 437 Q239 437 246 430 Q253 423 253 401 L253 347 Q253 327 246 319.5 Q239 312 222 312 L169 312 Q158 312 154 309 Q150 306 150 296 L150 148 Q150 135 154 130 Q158 125 172 125 L277 125 Q299 125 307 115 Q315 105 315 79 L315 45 Q315 21 307 10.5 Q299 0 279 0 L63 0 Q42 0 35 9.5 Q28 19 28 47 L28 659 Z M80 818 Q85 828 90.5 831.5 Q96 835 109 835 L218 835 Q231 835 236 831.5 Q241 828 246 818 L282 749 Q283 747 284 744.5 Q285 742 285 740 Q285 732 275 732 L218 732 Q210 732 205 733.5 Q200 735 194 743 L163 783 L133 743 Q127 735 121.5 733.5 Q116 732 109 732 L52 732 Q42 732 42 740 Q42 743 44 749 L80 818 Z " />
<glyph glyph-name="Ecaron" unicode="&#x11a;" horiz-adv-x="318" d="M28 659 Q28 685 35.5 695.5 Q43 706 63 706 L273 706 Q293 706 300 698 Q307 690 307 664 L307 625 Q307 599 300 590 Q293 581 273 581 L169 581 Q157 581 153.5 576.5 Q150 572 150 558 L150 459 Q150 444 152.5 440.5 Q155 437 169 437 L222 437 Q239 437 246 430 Q253 423 253 401 L253 347 Q253 327 246 319.5 Q239 312 222 312 L169 312 Q158 312 154 309 Q150 306 150 296 L150 148 Q150 135 154 130 Q158 125 172 125 L277 125 Q299 125 307 115 Q315 105 315 79 L315 45 Q315 21 307 10.5 Q299 0 279 0 L63 0 Q42 0 35 9.5 Q28 19 28 47 L28 659 Z M46 818 Q44 824 44 827 Q44 835 54 835 L111 835 Q118 835 123.5 833.5 Q129 832 135 824 L166 784 L195 824 Q202 832 207 833.5 Q212 835 220 835 L277 835 Q286 835 286 827 Q286 821 284 818 L248 748 Q243 738 238 735 Q233 732 220 732 L111 732 Q98 732 92.5 735 Q87 738 82 748 L46 818 Z " />
<glyph glyph-name="Edieresis" unicode="&#xcb;" horiz-adv-x="318" d="M28 659 Q28 685 35.5 695.5 Q43 706 63 706 L273 706 Q293 706 300 698 Q307 690 307 664 L307 625 Q307 599 300 590 Q293 581 273 581 L169 581 Q157 581 153.5 576.5 Q150 572 150 558 L150 459 Q150 444 152.5 440.5 Q155 437 169 437 L222 437 Q239 437 246 430 Q253 423 253 401 L253 347 Q253 327 246 319.5 Q239 312 222 312 L169 312 Q158 312 154 309 Q150 306 150 296 L150 148 Q150 135 154 130 Q158 125 172 125 L277 125 Q299 125 307 115 Q315 105 315 79 L315 45 Q315 21 307 10.5 Q299 0 279 0 L63 0 Q42 0 35 9.5 Q28 19 28 47 L28 659 Z M181 805 Q181 823 187 830.5 Q193 838 213 838 L244 838 Q264 838 270.5 830.5 Q277 823 277 805 L277 765 Q277 747 270.5 739.5 Q264 732 244 732 L213 732 Q193 732 187 739.5 Q181 747 181 765 L181 805 Z M53 805 Q53 823 59 830.5 Q65 838 85 838 L116 838 Q136 838 142.5 830.5 Q149 823 149 805 L149 765 Q149 747 142.5 739.5 Q136 732 116 732 L85 732 Q65 732 59 739.5 Q53 747 53 765 L53 805 Z " />
<glyph glyph-name="Emacron" unicode="&#x112;" horiz-adv-x="318" d="M28 659 Q28 685 35.5 695.5 Q43 706 63 706 L273 706 Q293 706 300 698 Q307 690 307 664 L307 625 Q307 599 300 590 Q293 581 273 581 L169 581 Q157 581 153.5 576.5 Q150 572 150 558 L150 459 Q150 444 152.5 440.5 Q155 437 169 437 L222 437 Q239 437 246 430 Q253 423 253 401 L253 347 Q253 327 246 319.5 Q239 312 222 312 L169 312 Q158 312 154 309 Q150 306 150 296 L150 148 Q150 135 154 130 Q158 125 172 125 L277 125 Q299 125 307 115 Q315 105 315 79 L315 45 Q315 21 307 10.5 Q299 0 279 0 L63 0 Q42 0 35 9.5 Q28 19 28 47 L28 659 Z M46 791 Q46 814 57 819 Q68 824 94 824 L237 824 Q263 824 273.5 819 Q284 814 284 791 L284 765 Q284 742 273.5 737 Q263 732 237 732 L94 732 Q68 732 57 737 Q46 742 46 765 L46 791 Z " />
<glyph glyph-name="Edotaccent" unicode="&#x116;" horiz-adv-x="318" d="M28 659 Q28 685 35.5 695.5 Q43 706 63 706 L273 706 Q293 706 300 698 Q307 690 307 664 L307 625 Q307 599 300 590 Q293 581 273 581 L169 581 Q157 581 153.5 576.5 Q150 572 150 558 L150 459 Q150 444 152.5 440.5 Q155 437 169 437 L222 437 Q239 437 246 430 Q253 423 253 401 L253 347 Q253 327 246 319.5 Q239 312 222 312 L169 312 Q158 312 154 309 Q150 306 150 296 L150 148 Q150 135 154 130 Q158 125 172 125 L277 125 Q299 125 307 115 Q315 105 315 79 L315 45 Q315 21 307 10.5 Q299 0 279 0 L63 0 Q42 0 35 9.5 Q28 19 28 47 L28 659 Z M119 805 Q119 823 125 830.5 Q131 838 151 838 L182 838 Q202 838 208.5 830.5 Q215 823 215 805 L215 765 Q215 747 208.5 739.5 Q202 732 182 732 L151 732 Q131 732 125 739.5 Q119 747 119 765 L119 805 Z " />
<glyph glyph-name="Eogonek" unicode="&#x118;" horiz-adv-x="318" d="M315 -111 Q315 -138 308.5 -146.5 Q302 -155 278 -155 L226 -155 Q197 -155 177.5 -138 Q158 -121 158 -95 Q158 -34 224 0 L63 0 Q42 0 35 9.5 Q28 19 28 47 L28 659 Q28 685 35.5 695.5 Q43 706 63 706 L273 706 Q293 706 300 698 Q307 690 307 664 L307 625 Q307 599 300 590 Q293 581 273 581 L169 581 Q157 581 153.5 576.5 Q150 572 150 558 L150 459 Q150 444 152.5 440.5 Q155 437 169 437 L222 437 Q239 437 246 430 Q253 423 253 401 L253 347 Q253 327 246 319.5 Q239 312 222 312 L169 312 Q158 312 154 309 Q150 306 150 296 L150 148 Q150 135 154 130 Q158 125 172 125 L277 125 Q299 125 307 115 Q315 105 315 79 L315 45 Q315 20 308.5 13 Q302 6 285 -4 Q261 -19 254 -28.5 Q247 -38 247 -47 Q247 -63 269 -63 L274 -63 Q299 -63 307 -70 Q315 -77 315 -96 L315 -111 Z " />
<glyph glyph-name="Gbreve" unicode="&#x11e;" horiz-adv-x="377" d="M251 285 Q251 301 248.5 306.5 Q246 312 238 312 L207 312 Q193 312 190.5 320.5 Q188 329 188 345 L188 394 Q188 417 194.5 427 Q201 437 227 437 L328 437 Q348 437 354.5 425.5 Q361 414 361 390 L361 207 Q361 157 356 118 Q351 79 334 52.5 Q317 26 284.5 12 Q252 -2 198 -2 Q130 -2 93.5 19.5 Q57 41 40 84.5 Q23 128 20.5 194 Q18 260 18 350 Q18 437 20.5 503.5 Q23 570 34 615 Q45 660 69.5 683 Q94 706 139 706 L282 706 Q302 706 310 698 Q318 690 318 661 L318 627 Q318 601 311.5 591 Q305 581 286 581 L209 581 Q185 581 172 577 Q159 573 153 551 Q147 529 145.5 481.5 Q144 434 144 347 L144 193 Q144 155 160 140 Q176 125 200 125 Q222 125 236.5 139 Q251 153 251 181 L251 285 Z M95 850 Q102 850 104.5 846 Q107 842 109 836 Q111 829 115 824 Q119 819 128 815.5 Q137 812 152 810.5 Q167 809 190 809 Q235 809 251 815.5 Q267 822 269 836 Q274 850 282 850 L311 850 Q317 850 320 845.5 Q323 841 323 836 Q323 819 316.5 800.5 Q310 782 295 767 Q280 752 254.5 742.5 Q229 733 190 733 Q151 733 125 742.5 Q99 752 83.5 767 Q68 782 61.5 800.5 Q55 819 55 836 Q55 841 58 845.5 Q61 850 67 850 L95 850 Z " />
<glyph glyph-name="Gcommaaccent" unicode="&#x122;" horiz-adv-x="377" d="M251 285 Q251 301 248.5 306.5 Q246 312 238 312 L207 312 Q193 312 190.5 320.5 Q188 329 188 345 L188 394 Q188 417 194.5 427 Q201 437 227 437 L328 437 Q348 437 354.5 425.5 Q361 414 361 390 L361 207 Q361 157 356 118 Q351 79 334 52.5 Q317 26 284.5 12 Q252 -2 198 -2 Q130 -2 93.5 19.5 Q57 41 40 84.5 Q23 128 20.5 194 Q18 260 18 350 Q18 437 20.5 503.5 Q23 570 34 615 Q45 660 69.5 683 Q94 706 139 706 L282 706 Q302 706 310 698 Q318 690 318 661 L318 627 Q318 601 311.5 591 Q305 581 286 581 L209 581 Q185 581 172 577 Q159 573 153 551 Q147 529 145.5 481.5 Q144 434 144 347 L144 193 Q144 155 160 140 Q176 125 200 125 Q222 125 236.5 139 Q251 153 251 181 L251 285 Z M163 -148 Q165 -142 165.5 -135.5 Q166 -129 159 -129 L152 -129 Q141 -129 137 -121.5 Q133 -114 133 -90 L133 -72 Q133 -46 140.5 -35.5 Q148 -25 168 -25 L211 -25 Q229 -25 236.5 -35 Q244 -45 244 -69 L244 -91 Q244 -105 243.5 -112.5 Q243 -120 241 -128 L215 -208 Q208 -229 192 -229 L153 -229 Q143 -229 140 -225 Q137 -221 141 -208 L163 -148 Z " />
<glyph glyph-name="Igrave" unicode="&#xcc;" horiz-adv-x="180" d="M29 658 Q29 686 36 696 Q43 706 63 706 L121 706 Q139 706 146 695.5 Q153 685 153 658 L153 44 Q153 15 145.5 7.5 Q138 0 118 0 L66 0 Q43 0 36 9 Q29 18 29 47 L29 658 Z M-8 804 Q-19 813 -19 821 Q-19 835 -4 835 L89 835 Q97 835 101 832 Q105 829 113 818 L160 755 Q165 749 165 742 Q165 732 154 732 L88 732 Q79 732 75 734 Q71 736 65 742 L-8 804 Z " />
<glyph glyph-name="Iacute" unicode="&#xcd;" horiz-adv-x="180" d="M28 658 Q28 686 35 696 Q42 706 62 706 L120 706 Q138 706 145 695.5 Q152 685 152 658 L152 44 Q152 15 144.5 7.5 Q137 0 117 0 L65 0 Q42 0 35 9 Q28 18 28 47 L28 658 Z M58 818 Q66 829 69.5 832 Q73 835 81 835 L174 835 Q189 835 189 821 Q189 812 178 804 L105 742 Q99 736 95.5 734 Q92 732 82 732 L16 732 Q5 732 5 742 Q5 749 10 755 L58 818 Z " />
<glyph glyph-name="Icircumflex" unicode="&#xce;" horiz-adv-x="180" d="M28 658 Q28 686 35 696 Q42 706 62 706 L120 706 Q138 706 145 695.5 Q152 685 152 658 L152 44 Q152 15 144.5 7.5 Q137 0 117 0 L65 0 Q42 0 35 9 Q28 18 28 47 L28 658 Z M7 818 Q12 828 17.5 831.5 Q23 835 36 835 L145 835 Q158 835 163 831.5 Q168 828 173 818 L209 749 Q210 747 211 744.5 Q212 742 212 740 Q212 732 202 732 L145 732 Q137 732 132 733.5 Q127 735 121 743 L90 783 L60 743 Q54 735 48.5 733.5 Q43 732 36 732 L-21 732 Q-31 732 -31 740 Q-31 743 -29 749 L7 818 Z " />
<glyph glyph-name="Idieresis" unicode="&#xcf;" horiz-adv-x="180" d="M28 658 Q28 686 35 696 Q42 706 62 706 L120 706 Q138 706 145 695.5 Q152 685 152 658 L152 44 Q152 15 144.5 7.5 Q137 0 117 0 L65 0 Q42 0 35 9 Q28 18 28 47 L28 658 Z M108 805 Q108 823 114 830.5 Q120 838 140 838 L171 838 Q191 838 197.5 830.5 Q204 823 204 805 L204 765 Q204 747 197.5 739.5 Q191 732 171 732 L140 732 Q120 732 114 739.5 Q108 747 108 765 L108 805 Z M-20 805 Q-20 823 -14 830.5 Q-8 838 12 838 L43 838 Q63 838 69.5 830.5 Q76 823 76 805 L76 765 Q76 747 69.5 739.5 Q63 732 43 732 L12 732 Q-8 732 -14 739.5 Q-20 747 -20 765 L-20 805 Z " />
<glyph glyph-name="Imacron" unicode="&#x12a;" horiz-adv-x="180" d="M28 658 Q28 686 35 696 Q42 706 62 706 L120 706 Q138 706 145 695.5 Q152 685 152 658 L152 44 Q152 15 144.5 7.5 Q137 0 117 0 L65 0 Q42 0 35 9 Q28 18 28 47 L28 658 Z M-29 791 Q-29 814 -18 819 Q-7 824 19 824 L162 824 Q188 824 198.5 819 Q209 814 209 791 L209 765 Q209 742 198.5 737 Q188 732 162 732 L19 732 Q-7 732 -18 737 Q-29 742 -29 765 L-29 791 Z " />
<glyph glyph-name="Idotaccent" unicode="&#x130;" horiz-adv-x="180" d="M28 658 Q28 686 35 696 Q42 706 62 706 L120 706 Q138 706 145 695.5 Q152 685 152 658 L152 44 Q152 15 144.5 7.5 Q137 0 117 0 L65 0 Q42 0 35 9 Q28 18 28 47 L28 658 Z M43 805 Q43 823 49 830.5 Q55 838 75 838 L106 838 Q126 838 132.5 830.5 Q139 823 139 805 L139 765 Q139 747 132.5 739.5 Q126 732 106 732 L75 732 Q55 732 49 739.5 Q43 747 43 765 L43 805 Z " />
<glyph glyph-name="Iogonek" unicode="&#x12e;" horiz-adv-x="180" d="M152 -111 Q152 -138 145.5 -146.5 Q139 -155 115 -155 L63 -155 Q34 -155 14.5 -138 Q-5 -121 -5 -95 Q-5 -34 61 0 Q41 1 34.5 10 Q28 19 28 47 L28 658 Q28 686 35 696 Q42 706 62 706 L120 706 Q138 706 145 695.5 Q152 685 152 658 L152 44 Q152 18 146 9.5 Q140 1 124 0 Q101 -15 92.5 -26.5 Q84 -38 84 -47 Q84 -63 106 -63 L111 -63 Q136 -63 144 -70 Q152 -77 152 -96 L152 -111 Z " />
<glyph glyph-name="Kcommaaccent" unicode="&#x136;" horiz-adv-x="397" d="M28 658 Q28 686 35 696 Q42 706 62 706 L120 706 Q138 706 145 695.5 Q152 685 152 658 L152 500 Q152 496 153 492.5 Q154 489 158 489 Q162 489 168 500 L247 665 Q257 687 263.5 696.5 Q270 706 287 706 L381 706 Q394 706 394 693 Q394 687 390 680 L286 477 Q284 472 281.5 466.5 Q279 461 279 456 Q279 450 279.5 445.5 Q280 441 282 435 L389 32 Q395 11 390.5 5.5 Q386 0 372 0 L286 0 Q272 0 266 6 Q260 12 256 31 L206 266 Q203 280 201 289 Q199 298 194 298 Q191 298 188.5 297 Q186 296 183 292 Q180 288 175 279.5 Q170 271 162 255 Q155 243 153.5 229 Q152 215 152 196 L152 44 Q152 15 144.5 7.5 Q137 0 117 0 L65 0 Q42 0 35 9 Q28 18 28 47 L28 658 Z M174 -148 Q176 -142 176.5 -135.5 Q177 -129 170 -129 L163 -129 Q152 -129 148 -121.5 Q144 -114 144 -90 L144 -72 Q144 -46 151.5 -35.5 Q159 -25 179 -25 L222 -25 Q240 -25 247.5 -35 Q255 -45 255 -69 L255 -91 Q255 -105 254.5 -112.5 Q254 -120 252 -128 L226 -208 Q219 -229 203 -229 L164 -229 Q154 -229 151 -225 Q148 -221 152 -208 L174 -148 Z " />
<glyph glyph-name="Lacute" unicode="&#x139;" horiz-adv-x="294" d="M28 660 Q28 685 35.5 695.5 Q43 706 62 706 L118 706 Q139 706 145.5 696 Q152 686 152 660 L152 147 Q152 134 156.5 129.5 Q161 125 169 125 L255 125 Q275 125 283 115.5 Q291 106 291 80 L291 45 Q291 21 281.5 10.5 Q272 0 252 0 L62 0 Q41 0 34.5 9 Q28 18 28 47 L28 660 Z M100 818 Q108 829 111.5 832 Q115 835 123 835 L216 835 Q231 835 231 821 Q231 812 220 804 L147 742 Q141 736 137.5 734 Q134 732 124 732 L58 732 Q47 732 47 742 Q47 749 52 755 L100 818 Z " />
<glyph glyph-name="Lcaron" unicode="&#x13d;" horiz-adv-x="294" d="M209 562 Q212 568 212 572 Q212 581 204 581 L197 581 Q186 581 183 588.5 Q180 596 180 620 L180 659 Q180 685 187.5 695.5 Q195 706 215 706 L258 706 Q276 706 283.5 696 Q291 686 291 662 L291 619 Q291 605 290 597.5 Q289 590 287 582 L260 501 Q254 481 237 481 L199 481 Q185 481 185 489 Q185 493 188 501 L209 562 Z M28 660 Q28 685 35.5 695.5 Q43 706 62 706 L118 706 Q139 706 145.5 696 Q152 686 152 660 L152 147 Q152 134 156.5 129.5 Q161 125 169 125 L255 125 Q275 125 283 115.5 Q291 106 291 80 L291 45 Q291 21 281.5 10.5 Q272 0 252 0 L62 0 Q41 0 34.5 9 Q28 18 28 47 L28 660 Z " />
<glyph glyph-name="Lcommaaccent" unicode="&#x13b;" horiz-adv-x="294" d="M28 660 Q28 685 35.5 695.5 Q43 706 62 706 L118 706 Q139 706 145.5 696 Q152 686 152 660 L152 147 Q152 134 156.5 129.5 Q161 125 169 125 L255 125 Q275 125 283 115.5 Q291 106 291 80 L291 45 Q291 21 281.5 10.5 Q272 0 252 0 L62 0 Q41 0 34.5 9 Q28 18 28 47 L28 660 Z M121 -148 Q123 -142 123.5 -135.5 Q124 -129 117 -129 L110 -129 Q99 -129 95 -121.5 Q91 -114 91 -90 L91 -72 Q91 -46 98.5 -35.5 Q106 -25 126 -25 L169 -25 Q187 -25 194.5 -35 Q202 -45 202 -69 L202 -91 Q202 -105 201.5 -112.5 Q201 -120 199 -128 L173 -208 Q166 -229 150 -229 L111 -229 Q101 -229 98 -225 Q95 -221 99 -208 L121 -148 Z " />
<glyph glyph-name="Lslash" unicode="&#x141;" horiz-adv-x="311" d="M44 231 L18 196 Q10 185 3.5 187 Q-3 189 -3 201 L-3 266 Q-3 278 1.5 287 Q6 296 17 310 L44 345 L44 660 Q44 685 52 695.5 Q60 706 79 706 L135 706 Q156 706 162.5 696 Q169 686 169 660 L169 508 L217 570 Q225 581 231.5 579 Q238 577 238 565 L238 499 Q238 486 233.5 477.5 Q229 469 218 455 L169 394 L169 147 Q169 134 173.5 129.5 Q178 125 186 125 L272 125 Q292 125 300 115.5 Q308 106 308 80 L308 45 Q308 21 298.5 10.5 Q289 0 269 0 L79 0 Q58 0 51 9 Q44 18 44 47 L44 231 Z " />
<glyph glyph-name="Nacute" unicode="&#x143;" horiz-adv-x="414" d="M28 659 Q28 687 35 696.5 Q42 706 65 706 L113 706 Q132 706 139 700.5 Q146 695 154 673 L243 411 Q247 401 249.5 398.5 Q252 396 255 396 Q258 396 259 400 Q260 404 260 416 L260 659 Q260 684 267 695 Q274 706 293 706 L348 706 Q365 706 375.5 697.5 Q386 689 386 658 L386 48 Q386 20 379 10 Q372 0 349 0 L300 0 Q281 0 274 5 Q267 10 259 33 L170 296 Q167 306 164.5 308.5 Q162 311 159 311 Q155 311 154 307 Q153 303 153 291 L153 47 Q153 22 146.5 11 Q140 0 121 0 L66 0 Q48 0 38 8 Q28 16 28 48 L28 659 Z M185 818 Q193 829 196.5 832 Q200 835 208 835 L301 835 Q316 835 316 821 Q316 812 305 804 L232 742 Q226 736 222.5 734 Q219 732 209 732 L143 732 Q132 732 132 742 Q132 749 137 755 L185 818 Z " />
<glyph glyph-name="Ncaron" unicode="&#x147;" horiz-adv-x="414" d="M28 659 Q28 687 35 696.5 Q42 706 65 706 L113 706 Q132 706 139 700.5 Q146 695 154 673 L243 411 Q247 401 249.5 398.5 Q252 396 255 396 Q258 396 259 400 Q260 404 260 416 L260 659 Q260 684 267 695 Q274 706 293 706 L348 706 Q365 706 375.5 697.5 Q386 689 386 658 L386 48 Q386 20 379 10 Q372 0 349 0 L300 0 Q281 0 274 5 Q267 10 259 33 L170 296 Q167 306 164.5 308.5 Q162 311 159 311 Q155 311 154 307 Q153 303 153 291 L153 47 Q153 22 146.5 11 Q140 0 121 0 L66 0 Q48 0 38 8 Q28 16 28 48 L28 659 Z M87 818 Q85 824 85 827 Q85 835 95 835 L152 835 Q159 835 164.5 833.5 Q170 832 176 824 L207 784 L236 824 Q243 832 248 833.5 Q253 835 261 835 L318 835 Q327 835 327 827 Q327 821 325 818 L289 748 Q284 738 279 735 Q274 732 261 732 L152 732 Q139 732 133.5 735 Q128 738 123 748 L87 818 Z " />
<glyph glyph-name="Ntilde" unicode="&#xd1;" horiz-adv-x="414" d="M28 659 Q28 687 35 696.5 Q42 706 65 706 L113 706 Q132 706 139 700.5 Q146 695 154 673 L243 411 Q247 401 249.5 398.5 Q252 396 255 396 Q258 396 259 400 Q260 404 260 416 L260 659 Q260 684 267 695 Q274 706 293 706 L348 706 Q365 706 375.5 697.5 Q386 689 386 658 L386 48 Q386 20 379 10 Q372 0 349 0 L300 0 Q281 0 274 5 Q267 10 259 33 L170 296 Q167 306 164.5 308.5 Q162 311 159 311 Q155 311 154 307 Q153 303 153 291 L153 47 Q153 22 146.5 11 Q140 0 121 0 L66 0 Q48 0 38 8 Q28 16 28 48 L28 659 Z M82 805 Q82 818 87.5 826.5 Q93 835 109 835 L151 835 Q156 835 160.5 834 Q165 833 169 832 L244 809 Q251 806 257 806 Q261 806 261 813 L261 818 Q261 826 266.5 830.5 Q272 835 278 835 L304 835 Q321 835 326 828.5 Q331 822 331 807 L331 762 Q331 749 326 740.5 Q321 732 304 732 L262 732 Q257 732 252.5 733 Q248 734 244 735 L169 758 Q161 761 156 761 Q152 761 152 754 L152 749 Q152 741 147 736.5 Q142 732 135 732 L109 732 Q93 732 87.5 738.5 Q82 745 82 760 L82 805 Z " />
<glyph glyph-name="Ncommaaccent" unicode="&#x145;" horiz-adv-x="414" d="M28 659 Q28 687 35 696.5 Q42 706 65 706 L113 706 Q132 706 139 700.5 Q146 695 154 673 L243 411 Q247 401 249.5 398.5 Q252 396 255 396 Q258 396 259 400 Q260 404 260 416 L260 659 Q260 684 267 695 Q274 706 293 706 L348 706 Q365 706 375.5 697.5 Q386 689 386 658 L386 48 Q386 20 379 10 Q372 0 349 0 L300 0 Q281 0 274 5 Q267 10 259 33 L170 296 Q167 306 164.5 308.5 Q162 311 159 311 Q155 311 154 307 Q153 303 153 291 L153 47 Q153 22 146.5 11 Q140 0 121 0 L66 0 Q48 0 38 8 Q28 16 28 48 L28 659 Z M184 -148 Q186 -142 186.5 -135.5 Q187 -129 180 -129 L173 -129 Q162 -129 158 -121.5 Q154 -114 154 -90 L154 -72 Q154 -46 161.5 -35.5 Q169 -25 189 -25 L232 -25 Q250 -25 257.5 -35 Q265 -45 265 -69 L265 -91 Q265 -105 264.5 -112.5 Q264 -120 262 -128 L236 -208 Q229 -229 213 -229 L174 -229 Q164 -229 161 -225 Q158 -221 162 -208 L184 -148 Z " />
<glyph glyph-name="Ograve" unicode="&#xd2;" horiz-adv-x="377" d="M188 -10 Q124 -10 89.5 17.5 Q55 45 39 93.5 Q23 142 20.5 208.5 Q18 275 18 354 Q18 433 20.5 499 Q23 565 39 612.5 Q55 660 89.5 686.5 Q124 713 188 713 Q252 713 287 686.5 Q322 660 338 612.5 Q354 565 356.5 499 Q359 433 359 354 Q359 275 356.5 208.5 Q354 142 338 93.5 Q322 45 287 17.5 Q252 -10 188 -10 Z M188 125 Q205 125 214.5 134.5 Q224 144 228.5 169.5 Q233 195 234 239.5 Q235 284 235 354 Q235 424 234 468 Q233 512 228.5 537 Q224 562 214.5 571 Q205 580 188 580 Q171 580 162 571 Q153 562 148.5 537 Q144 512 143 468 Q142 424 142 354 Q142 284 143 239.5 Q144 195 148.5 169.5 Q153 144 162 134.5 Q171 125 188 125 Z M75 804 Q64 813 64 821 Q64 835 79 835 L172 835 Q180 835 184 832 Q188 829 196 818 L243 755 Q248 749 248 742 Q248 732 237 732 L171 732 Q162 732 158 734 Q154 736 148 742 L75 804 Z " />
<glyph glyph-name="Oacute" unicode="&#xd3;" horiz-adv-x="377" d="M188 -10 Q124 -10 89.5 17.5 Q55 45 39 93.5 Q23 142 20.5 208.5 Q18 275 18 354 Q18 433 20.5 499 Q23 565 39 612.5 Q55 660 89.5 686.5 Q124 713 188 713 Q252 713 287 686.5 Q322 660 338 612.5 Q354 565 356.5 499 Q359 433 359 354 Q359 275 356.5 208.5 Q354 142 338 93.5 Q322 45 287 17.5 Q252 -10 188 -10 Z M188 125 Q205 125 214.5 134.5 Q224 144 228.5 169.5 Q233 195 234 239.5 Q235 284 235 354 Q235 424 234 468 Q233 512 228.5 537 Q224 562 214.5 571 Q205 580 188 580 Q171 580 162 571 Q153 562 148.5 537 Q144 512 143 468 Q142 424 142 354 Q142 284 143 239.5 Q144 195 148.5 169.5 Q153 144 162 134.5 Q171 125 188 125 Z M181 818 Q189 829 192.5 832 Q196 835 204 835 L297 835 Q312 835 312 821 Q312 812 301 804 L228 742 Q222 736 218.5 734 Q215 732 205 732 L139 732 Q128 732 128 742 Q128 749 133 755 L181 818 Z " />
<glyph glyph-name="Ocircumflex" unicode="&#xd4;" horiz-adv-x="377" d="M188 -10 Q124 -10 89.5 17.5 Q55 45 39 93.5 Q23 142 20.5 208.5 Q18 275 18 354 Q18 433 20.5 499 Q23 565 39 612.5 Q55 660 89.5 686.5 Q124 713 188 713 Q252 713 287 686.5 Q322 660 338 612.5 Q354 565 356.5 499 Q359 433 359 354 Q359 275 356.5 208.5 Q354 142 338 93.5 Q322 45 287 17.5 Q252 -10 188 -10 Z M188 125 Q205 125 214.5 134.5 Q224 144 228.5 169.5 Q233 195 234 239.5 Q235 284 235 354 Q235 424 234 468 Q233 512 228.5 537 Q224 562 214.5 571 Q205 580 188 580 Q171 580 162 571 Q153 562 148.5 537 Q144 512 143 468 Q142 424 142 354 Q142 284 143 239.5 Q144 195 148.5 169.5 Q153 144 162 134.5 Q171 125 188 125 Z M105 818 Q110 828 115.5 831.5 Q121 835 134 835 L243 835 Q256 835 261 831.5 Q266 828 271 818 L307 749 Q308 747 309 744.5 Q310 742 310 740 Q310 732 300 732 L243 732 Q235 732 230 733.5 Q225 735 219 743 L188 783 L158 743 Q152 735 146.5 733.5 Q141 732 134 732 L77 732 Q67 732 67 740 Q67 743 69 749 L105 818 Z " />
<glyph glyph-name="Otilde" unicode="&#xd5;" horiz-adv-x="377" d="M188 -10 Q124 -10 89.5 17.5 Q55 45 39 93.5 Q23 142 20.5 208.5 Q18 275 18 354 Q18 433 20.5 499 Q23 565 39 612.5 Q55 660 89.5 686.5 Q124 713 188 713 Q252 713 287 686.5 Q322 660 338 612.5 Q354 565 356.5 499 Q359 433 359 354 Q359 275 356.5 208.5 Q354 142 338 93.5 Q322 45 287 17.5 Q252 -10 188 -10 Z M188 125 Q205 125 214.5 134.5 Q224 144 228.5 169.5 Q233 195 234 239.5 Q235 284 235 354 Q235 424 234 468 Q233 512 228.5 537 Q224 562 214.5 571 Q205 580 188 580 Q171 580 162 571 Q153 562 148.5 537 Q144 512 143 468 Q142 424 142 354 Q142 284 143 239.5 Q144 195 148.5 169.5 Q153 144 162 134.5 Q171 125 188 125 Z M64 805 Q64 818 69.5 826.5 Q75 835 91 835 L133 835 Q138 835 142.5 834 Q147 833 151 832 L226 809 Q233 806 239 806 Q243 806 243 813 L243 818 Q243 826 248.5 830.5 Q254 835 260 835 L286 835 Q303 835 308 828.5 Q313 822 313 807 L313 762 Q313 749 308 740.5 Q303 732 286 732 L244 732 Q239 732 234.5 733 Q230 734 226 735 L151 758 Q143 761 138 761 Q134 761 134 754 L134 749 Q134 741 129 736.5 Q124 732 117 732 L91 732 Q75 732 69.5 738.5 Q64 745 64 760 L64 805 Z " />
<glyph glyph-name="Odieresis" unicode="&#xd6;" horiz-adv-x="377" d="M188 -10 Q124 -10 89.5 17.5 Q55 45 39 93.5 Q23 142 20.5 208.5 Q18 275 18 354 Q18 433 20.5 499 Q23 565 39 612.5 Q55 660 89.5 686.5 Q124 713 188 713 Q252 713 287 686.5 Q322 660 338 612.5 Q354 565 356.5 499 Q359 433 359 354 Q359 275 356.5 208.5 Q354 142 338 93.5 Q322 45 287 17.5 Q252 -10 188 -10 Z M188 125 Q205 125 214.5 134.5 Q224 144 228.5 169.5 Q233 195 234 239.5 Q235 284 235 354 Q235 424 234 468 Q233 512 228.5 537 Q224 562 214.5 571 Q205 580 188 580 Q171 580 162 571 Q153 562 148.5 537 Q144 512 143 468 Q142 424 142 354 Q142 284 143 239.5 Q144 195 148.5 169.5 Q153 144 162 134.5 Q171 125 188 125 Z M205 805 Q205 823 211 830.5 Q217 838 237 838 L268 838 Q288 838 294.5 830.5 Q301 823 301 805 L301 765 Q301 747 294.5 739.5 Q288 732 268 732 L237 732 Q217 732 211 739.5 Q205 747 205 765 L205 805 Z M77 805 Q77 823 83 830.5 Q89 838 109 838 L140 838 Q160 838 166.5 830.5 Q173 823 173 805 L173 765 Q173 747 166.5 739.5 Q160 732 140 732 L109 732 Q89 732 83 739.5 Q77 747 77 765 L77 805 Z " />
<glyph glyph-name="Omacron" unicode="&#x14c;" horiz-adv-x="377" d="M188 -10 Q124 -10 89.5 17.5 Q55 45 39 93.5 Q23 142 20.5 208.5 Q18 275 18 354 Q18 433 20.5 499 Q23 565 39 612.5 Q55 660 89.5 686.5 Q124 713 188 713 Q252 713 287 686.5 Q322 660 338 612.5 Q354 565 356.5 499 Q359 433 359 354 Q359 275 356.5 208.5 Q354 142 338 93.5 Q322 45 287 17.5 Q252 -10 188 -10 Z M188 125 Q205 125 214.5 134.5 Q224 144 228.5 169.5 Q233 195 234 239.5 Q235 284 235 354 Q235 424 234 468 Q233 512 228.5 537 Q224 562 214.5 571 Q205 580 188 580 Q171 580 162 571 Q153 562 148.5 537 Q144 512 143 468 Q142 424 142 354 Q142 284 143 239.5 Q144 195 148.5 169.5 Q153 144 162 134.5 Q171 125 188 125 Z M70 791 Q70 814 81 819 Q92 824 118 824 L261 824 Q287 824 297.5 819 Q308 814 308 791 L308 765 Q308 742 297.5 737 Q287 732 261 732 L118 732 Q92 732 81 737 Q70 742 70 765 L70 791 Z " />
<glyph glyph-name="Ohungarumlaut" unicode="&#x150;" horiz-adv-x="377" d="M188 -10 Q124 -10 89.5 17.5 Q55 45 39 93.5 Q23 142 20.5 208.5 Q18 275 18 354 Q18 433 20.5 499 Q23 565 39 612.5 Q55 660 89.5 686.5 Q124 713 188 713 Q252 713 287 686.5 Q322 660 338 612.5 Q354 565 356.5 499 Q359 433 359 354 Q359 275 356.5 208.5 Q354 142 338 93.5 Q322 45 287 17.5 Q252 -10 188 -10 Z M188 125 Q205 125 214.5 134.5 Q224 144 228.5 169.5 Q233 195 234 239.5 Q235 284 235 354 Q235 424 234 468 Q233 512 228.5 537 Q224 562 214.5 571 Q205 580 188 580 Q171 580 162 571 Q153 562 148.5 537 Q144 512 143 468 Q142 424 142 354 Q142 284 143 239.5 Q144 195 148.5 169.5 Q153 144 162 134.5 Q171 125 188 125 Z M242 813 Q250 827 252.5 831 Q255 835 263 835 L323 835 Q331 835 334.5 828.5 Q338 822 331 814 L274 748 Q266 738 262.5 735 Q259 732 251 732 L212 732 Q207 732 204 738.5 Q201 745 207 755 L242 813 Z M133 813 Q141 825 144.5 830 Q148 835 156 835 L214 835 Q222 835 225.5 828 Q229 821 223 814 L165 748 Q157 738 153.5 735 Q150 732 142 732 L104 732 Q98 732 94.5 738.5 Q91 745 97 755 L133 813 Z " />
<glyph glyph-name="Oslash" unicode="&#xd8;" horiz-adv-x="377" d="M37 99 Q23 148 20.5 213 Q18 278 18 354 Q18 433 20.5 499 Q23 565 39 612.5 Q55 660 89.5 686.5 Q124 713 188 713 Q230 713 258 701.5 Q286 690 306 670 L315 689 Q321 700 325 703 Q329 706 341 706 L362 706 Q373 706 379 702.5 Q385 699 378 685 L340 604 Q354 557 356.5 493.5 Q359 430 359 354 Q359 275 356.5 208.5 Q354 142 338 93.5 Q322 45 287 17.5 Q252 -10 188 -10 Q146 -10 117 2 Q88 14 69 37 L59 16 Q54 6 50 3 Q46 0 38 0 L15 0 Q0 0 -2 5 Q-4 10 2 24 L37 99 Z M232 512 Q227 552 218 566 Q209 580 188 580 Q171 580 161 571 Q151 562 145.5 537 Q140 512 139.5 468 Q139 424 141 354 L142 321 L232 512 Z M235 385 L145 196 Q148 155 158 140 Q168 125 188 125 Q205 125 214.5 134.5 Q224 144 228.5 169.5 Q233 195 234 239.5 Q235 284 235 354 L235 385 Z " />
<glyph glyph-name="OE" unicode="&#x152;" horiz-adv-x="532" d="M285 0 Q270 0 260 5 Q244 -2 225 -6 Q206 -10 183 -10 Q119 -10 84.5 17.5 Q50 45 34 93.5 Q18 142 15.5 208.5 Q13 275 13 354 Q13 433 15.5 499 Q18 565 34 612.5 Q50 660 84.5 686.5 Q119 713 183 713 Q228 713 260 698 Q268 706 285 706 L485 706 Q505 706 511.5 698 Q518 690 518 664 L518 625 Q518 599 511.5 590 Q505 581 485 581 L381 581 Q369 581 365.5 576.5 Q362 572 362 558 L362 459 Q362 444 364.5 440.5 Q367 437 381 437 L434 437 Q451 437 457.5 430 Q464 423 464 401 L464 347 Q464 327 457.5 319.5 Q451 312 434 312 L381 312 Q370 312 366 309 Q362 306 362 296 L362 148 Q362 135 366 130 Q370 125 384 125 L489 125 Q510 125 518.5 115 Q527 105 527 79 L527 45 Q527 21 518.5 10.5 Q510 0 491 0 L285 0 Z M183 125 Q200 125 209.5 134.5 Q219 144 223.5 169.5 Q228 195 229 239.5 Q230 284 230 354 Q230 424 229 468 Q228 512 223.5 537 Q219 562 209.5 571 Q200 580 183 580 Q166 580 156.5 571 Q147 562 142 537 Q137 512 136 468 Q135 424 135 354 Q135 284 136 239.5 Q137 195 142 169.5 Q147 144 156.5 134.5 Q166 125 183 125 Z " />
<glyph glyph-name="Racute" unicode="&#x154;" horiz-adv-x="371" d="M28 658 Q28 685 35.5 695.5 Q43 706 63 706 L215 706 Q360 706 360 488 Q360 428 347 391.5 Q334 355 303 329 L364 29 Q365 24 365.5 20.5 Q366 17 366 15 Q366 0 347 0 L264 0 Q250 0 244.5 5.5 Q239 11 236 31 L193 285 Q191 292 188 293 Q185 294 180 294 L165 294 Q160 294 156.5 293 Q153 292 153 284 L153 44 Q153 21 145.5 10.5 Q138 0 118 0 L61 0 Q41 0 34.5 9.5 Q28 19 28 45 L28 658 Z M199 419 Q218 419 227.5 438.5 Q237 458 237 504 Q237 549 227.5 565 Q218 581 201 581 L167 581 Q161 581 157 576.5 Q153 572 153 566 L153 438 Q153 419 164 419 L199 419 Z M162 818 Q170 829 173.5 832 Q177 835 185 835 L278 835 Q293 835 293 821 Q293 812 282 804 L209 742 Q203 736 199.5 734 Q196 732 186 732 L120 732 Q109 732 109 742 Q109 749 114 755 L162 818 Z " />
<glyph glyph-name="Rcaron" unicode="&#x158;" horiz-adv-x="371" d="M28 658 Q28 685 35.5 695.5 Q43 706 63 706 L215 706 Q360 706 360 488 Q360 428 347 391.5 Q334 355 303 329 L364 29 Q365 24 365.5 20.5 Q366 17 366 15 Q366 0 347 0 L264 0 Q250 0 244.5 5.5 Q239 11 236 31 L193 285 Q191 292 188 293 Q185 294 180 294 L165 294 Q160 294 156.5 293 Q153 292 153 284 L153 44 Q153 21 145.5 10.5 Q138 0 118 0 L61 0 Q41 0 34.5 9.5 Q28 19 28 45 L28 658 Z M199 419 Q218 419 227.5 438.5 Q237 458 237 504 Q237 549 227.5 565 Q218 581 201 581 L167 581 Q161 581 157 576.5 Q153 572 153 566 L153 438 Q153 419 164 419 L199 419 Z M67 818 Q65 824 65 827 Q65 835 75 835 L132 835 Q139 835 144.5 833.5 Q150 832 156 824 L187 784 L216 824 Q223 832 228 833.5 Q233 835 241 835 L298 835 Q307 835 307 827 Q307 821 305 818 L269 748 Q264 738 259 735 Q254 732 241 732 L132 732 Q119 732 113.5 735 Q108 738 103 748 L67 818 Z " />
<glyph glyph-name="Rcommaaccent" unicode="&#x156;" horiz-adv-x="371" d="M28 658 Q28 685 35.5 695.5 Q43 706 63 706 L215 706 Q360 706 360 488 Q360 428 347 391.5 Q334 355 303 329 L364 29 Q365 24 365.5 20.5 Q366 17 366 15 Q366 0 347 0 L264 0 Q250 0 244.5 5.5 Q239 11 236 31 L193 285 Q191 292 188 293 Q185 294 180 294 L165 294 Q160 294 156.5 293 Q153 292 153 284 L153 44 Q153 21 145.5 10.5 Q138 0 118 0 L61 0 Q41 0 34.5 9.5 Q28 19 28 45 L28 658 Z M199 419 Q218 419 227.5 438.5 Q237 458 237 504 Q237 549 227.5 565 Q218 581 201 581 L167 581 Q161 581 157 576.5 Q153 572 153 566 L153 438 Q153 419 164 419 L199 419 Z M166 -148 Q168 -142 168.5 -135.5 Q169 -129 162 -129 L155 -129 Q144 -129 140 -121.5 Q136 -114 136 -90 L136 -72 Q136 -46 143.5 -35.5 Q151 -25 171 -25 L214 -25 Q232 -25 239.5 -35 Q247 -45 247 -69 L247 -91 Q247 -105 246.5 -112.5 Q246 -120 244 -128 L218 -208 Q211 -229 195 -229 L156 -229 Q146 -229 143 -225 Q140 -221 144 -208 L166 -148 Z " />
<glyph glyph-name="Sacute" unicode="&#x15a;" horiz-adv-x="322" d="M10 80 Q10 108 17 116.5 Q24 125 44 125 L153 125 Q176 125 180.5 142.5 Q185 160 176 177 L56 402 Q38 435 28.5 461 Q19 487 14 508 Q9 529 8 546 Q7 563 7 578 Q7 650 39.5 678 Q72 706 138 706 L259 706 Q289 706 289 668 L289 621 Q289 598 281 589.5 Q273 581 256 581 L162 581 Q136 581 130.5 561 Q125 541 138 518 L252 310 Q273 271 285.5 243 Q298 215 305 192.5 Q312 170 314 151.5 Q316 133 316 113 Q316 50 285 25 Q254 0 203 0 L45 0 Q25 0 17.5 8.5 Q10 17 10 43 L10 80 Z M143 818 Q151 829 154.5 832 Q158 835 166 835 L259 835 Q274 835 274 821 Q274 812 263 804 L190 742 Q184 736 180.5 734 Q177 732 167 732 L101 732 Q90 732 90 742 Q90 749 95 755 L143 818 Z " />
<glyph glyph-name="Scaron" unicode="&#x160;" horiz-adv-x="322" d="M10 80 Q10 108 17 116.5 Q24 125 44 125 L153 125 Q176 125 180.5 142.5 Q185 160 176 177 L56 402 Q38 435 28.5 461 Q19 487 14 508 Q9 529 8 546 Q7 563 7 578 Q7 650 39.5 678 Q72 706 138 706 L259 706 Q289 706 289 668 L289 621 Q289 598 281 589.5 Q273 581 256 581 L162 581 Q136 581 130.5 561 Q125 541 138 518 L252 310 Q273 271 285.5 243 Q298 215 305 192.5 Q312 170 314 151.5 Q316 133 316 113 Q316 50 285 25 Q254 0 203 0 L45 0 Q25 0 17.5 8.5 Q10 17 10 43 L10 80 Z M39 818 Q37 824 37 827 Q37 835 47 835 L104 835 Q111 835 116.5 833.5 Q122 832 128 824 L159 784 L188 824 Q195 832 200 833.5 Q205 835 213 835 L270 835 Q279 835 279 827 Q279 821 277 818 L241 748 Q236 738 231 735 Q226 732 213 732 L104 732 Q91 732 85.5 735 Q80 738 75 748 L39 818 Z " />
<glyph glyph-name="Scedilla" unicode="&#x15e;" horiz-adv-x="320" d="M78 -79 Q78 -60 86.5 -53.5 Q95 -47 120 -47 L142 -47 Q156 -47 156 -31 Q156 -26 154 -19 Q152 -12 149 0 L43 0 Q23 0 15.5 8.5 Q8 17 8 43 L8 80 Q8 108 15 116.5 Q22 125 42 125 L151 125 Q166 125 173 133 Q180 141 180 152 Q180 165 174 177 L54 402 Q36 435 26.5 461 Q17 487 12 508 Q7 529 6 546 Q5 563 5 578 Q5 650 37.5 678 Q70 706 136 706 L257 706 Q287 706 287 668 L287 621 Q287 598 279 589.5 Q271 581 254 581 L160 581 Q143 581 135 572.5 Q127 564 127 550 Q127 536 136 518 L250 310 Q271 271 283.5 243 Q296 215 303 192.5 Q310 170 312 151.5 Q314 133 314 113 Q314 50 283 25 Q252 0 201 0 Q206 -20 207 -32.5 Q208 -45 208 -58 Q208 -98 193.5 -121.5 Q179 -145 153 -145 L115 -145 Q92 -145 85 -137.5 Q78 -130 78 -103 L78 -79 Z " />
<glyph glyph-name="Scommaaccent" unicode="&#x218;" horiz-adv-x="322" d="M10 80 Q10 108 17 116.5 Q24 125 44 125 L153 125 Q176 125 180.5 142.5 Q185 160 176 177 L56 402 Q38 435 28.5 461 Q19 487 14 508 Q9 529 8 546 Q7 563 7 578 Q7 650 39.5 678 Q72 706 138 706 L259 706 Q289 706 289 668 L289 621 Q289 598 281 589.5 Q273 581 256 581 L162 581 Q136 581 130.5 561 Q125 541 138 518 L252 310 Q273 271 285.5 243 Q298 215 305 192.5 Q312 170 314 151.5 Q316 133 316 113 Q316 50 285 25 Q254 0 203 0 L45 0 Q25 0 17.5 8.5 Q10 17 10 43 L10 80 Z M138 -148 Q140 -142 140.5 -135.5 Q141 -129 134 -129 L127 -129 Q116 -129 112 -121.5 Q108 -114 108 -90 L108 -72 Q108 -46 115.5 -35.5 Q123 -25 143 -25 L186 -25 Q204 -25 211.5 -35 Q219 -45 219 -69 L219 -91 Q219 -105 218.5 -112.5 Q218 -120 216 -128 L190 -208 Q183 -229 167 -229 L128 -229 Q118 -229 115 -225 Q112 -221 116 -208 L138 -148 Z " />
<glyph glyph-name="Tcaron" unicode="&#x164;" horiz-adv-x="333" d="M104 560 Q104 574 100 577.5 Q96 581 90 581 L35 581 Q16 581 9.5 589 Q3 597 3 623 L3 659 Q3 687 10.5 696.5 Q18 706 38 706 L296 706 Q316 706 323 696.5 Q330 687 330 663 L330 624 Q330 598 323.5 589.5 Q317 581 297 581 L242 581 Q234 581 231.5 577 Q229 573 229 560 L229 47 Q229 19 222 9.5 Q215 0 195 0 L140 0 Q118 0 111 9 Q104 18 104 43 L104 560 Z M47 818 Q45 824 45 827 Q45 835 55 835 L112 835 Q119 835 124.5 833.5 Q130 832 136 824 L167 784 L196 824 Q203 832 208 833.5 Q213 835 221 835 L278 835 Q287 835 287 827 Q287 821 285 818 L249 748 Q244 738 239 735 Q234 732 221 732 L112 732 Q99 732 93.5 735 Q88 738 83 748 L47 818 Z " />
<glyph glyph-name="Tcommaaccent" unicode="&#x162;" horiz-adv-x="333" d="M104 560 Q104 574 100 577.5 Q96 581 90 581 L35 581 Q16 581 9.5 589 Q3 597 3 623 L3 659 Q3 687 10.5 696.5 Q18 706 38 706 L296 706 Q316 706 323 696.5 Q330 687 330 663 L330 624 Q330 598 323.5 589.5 Q317 581 297 581 L242 581 Q234 581 231.5 577 Q229 573 229 560 L229 47 Q229 19 222 9.5 Q215 0 195 0 L140 0 Q118 0 111 9 Q104 18 104 43 L104 560 Z M73 -79 Q73 -60 81 -53.5 Q89 -47 114 -47 L136 -47 Q150 -47 150 -31 Q150 -24 146.5 -11 Q143 2 135 28 L186 28 Q197 -7 200 -24 Q203 -41 203 -58 Q203 -98 188.5 -121.5 Q174 -145 148 -145 L110 -145 Q86 -145 79.5 -137.5 Q73 -130 73 -103 L73 -79 Z " />
<glyph glyph-name="uni021A" unicode="&#x21a;" horiz-adv-x="333" d="M104 560 Q104 574 100 577.5 Q96 581 90 581 L35 581 Q16 581 9.5 589 Q3 597 3 623 L3 659 Q3 687 10.5 696.5 Q18 706 38 706 L296 706 Q316 706 323 696.5 Q330 687 330 663 L330 624 Q330 598 323.5 589.5 Q317 581 297 581 L242 581 Q234 581 231.5 577 Q229 573 229 560 L229 47 Q229 19 222 9.5 Q215 0 195 0 L140 0 Q118 0 111 9 Q104 18 104 43 L104 560 Z M141 -148 Q143 -142 143.5 -135.5 Q144 -129 137 -129 L130 -129 Q119 -129 115 -121.5 Q111 -114 111 -90 L111 -72 Q111 -46 118.5 -35.5 Q126 -25 146 -25 L189 -25 Q207 -25 214.5 -35 Q222 -45 222 -69 L222 -91 Q222 -105 221.5 -112.5 Q221 -120 219 -128 L193 -208 Q186 -229 170 -229 L131 -229 Q121 -229 118 -225 Q115 -221 119 -208 L141 -148 Z " />
<glyph glyph-name="Ugrave" unicode="&#xd9;" horiz-adv-x="383" d="M21 659 Q21 686 29 696 Q37 706 58 706 L114 706 Q134 706 140 697 Q146 688 146 662 L146 180 Q146 151 156.5 138 Q167 125 193 125 Q216 125 226.5 138 Q237 151 237 181 L237 662 Q237 688 243.5 697 Q250 706 271 706 L329 706 Q350 706 356 697 Q362 688 362 662 L362 201 Q362 158 356 119.5 Q350 81 332 52.5 Q314 24 280 7 Q246 -10 189 -10 Q136 -10 103.5 4 Q71 18 52.5 44.5 Q34 71 27.5 109 Q21 147 21 196 L21 659 Z M75 804 Q64 813 64 821 Q64 835 79 835 L172 835 Q180 835 184 832 Q188 829 196 818 L243 755 Q248 749 248 742 Q248 732 237 732 L171 732 Q162 732 158 734 Q154 736 148 742 L75 804 Z " />
<glyph glyph-name="Uacute" unicode="&#xda;" horiz-adv-x="383" d="M21 659 Q21 686 29 696 Q37 706 58 706 L114 706 Q134 706 140 697 Q146 688 146 662 L146 180 Q146 151 156.5 138 Q167 125 193 125 Q216 125 226.5 138 Q237 151 237 181 L237 662 Q237 688 243.5 697 Q250 706 271 706 L329 706 Q350 706 356 697 Q362 688 362 662 L362 201 Q362 158 356 119.5 Q350 81 332 52.5 Q314 24 280 7 Q246 -10 189 -10 Q136 -10 103.5 4 Q71 18 52.5 44.5 Q34 71 27.5 109 Q21 147 21 196 L21 659 Z M189 818 Q197 829 200.5 832 Q204 835 212 835 L305 835 Q320 835 320 821 Q320 812 309 804 L236 742 Q230 736 226.5 734 Q223 732 213 732 L147 732 Q136 732 136 742 Q136 749 141 755 L189 818 Z " />
<glyph glyph-name="Ucircumflex" unicode="&#xdb;" horiz-adv-x="383" d="M21 659 Q21 686 29 696 Q37 706 58 706 L114 706 Q134 706 140 697 Q146 688 146 662 L146 180 Q146 151 156.5 138 Q167 125 193 125 Q216 125 226.5 138 Q237 151 237 181 L237 662 Q237 688 243.5 697 Q250 706 271 706 L329 706 Q350 706 356 697 Q362 688 362 662 L362 201 Q362 158 356 119.5 Q350 81 332 52.5 Q314 24 280 7 Q246 -10 189 -10 Q136 -10 103.5 4 Q71 18 52.5 44.5 Q34 71 27.5 109 Q21 147 21 196 L21 659 Z M109 818 Q114 828 119.5 831.5 Q125 835 138 835 L247 835 Q260 835 265 831.5 Q270 828 275 818 L311 749 Q312 747 313 744.5 Q314 742 314 740 Q314 732 304 732 L247 732 Q239 732 234 733.5 Q229 735 223 743 L192 783 L162 743 Q156 735 150.5 733.5 Q145 732 138 732 L81 732 Q71 732 71 740 Q71 743 73 749 L109 818 Z " />
<glyph glyph-name="Udieresis" unicode="&#xdc;" horiz-adv-x="383" d="M21 659 Q21 686 29 696 Q37 706 58 706 L114 706 Q134 706 140 697 Q146 688 146 662 L146 180 Q146 151 156.5 138 Q167 125 193 125 Q216 125 226.5 138 Q237 151 237 181 L237 662 Q237 688 243.5 697 Q250 706 271 706 L329 706 Q350 706 356 697 Q362 688 362 662 L362 201 Q362 158 356 119.5 Q350 81 332 52.5 Q314 24 280 7 Q246 -10 189 -10 Q136 -10 103.5 4 Q71 18 52.5 44.5 Q34 71 27.5 109 Q21 147 21 196 L21 659 Z M208 805 Q208 823 214 830.5 Q220 838 240 838 L271 838 Q291 838 297.5 830.5 Q304 823 304 805 L304 765 Q304 747 297.5 739.5 Q291 732 271 732 L240 732 Q220 732 214 739.5 Q208 747 208 765 L208 805 Z M80 805 Q80 823 86 830.5 Q92 838 112 838 L143 838 Q163 838 169.5 830.5 Q176 823 176 805 L176 765 Q176 747 169.5 739.5 Q163 732 143 732 L112 732 Q92 732 86 739.5 Q80 747 80 765 L80 805 Z " />
<glyph glyph-name="Umacron" unicode="&#x16a;" horiz-adv-x="383" d="M21 659 Q21 686 29 696 Q37 706 58 706 L114 706 Q134 706 140 697 Q146 688 146 662 L146 180 Q146 151 156.5 138 Q167 125 193 125 Q216 125 226.5 138 Q237 151 237 181 L237 662 Q237 688 243.5 697 Q250 706 271 706 L329 706 Q350 706 356 697 Q362 688 362 662 L362 201 Q362 158 356 119.5 Q350 81 332 52.5 Q314 24 280 7 Q246 -10 189 -10 Q136 -10 103.5 4 Q71 18 52.5 44.5 Q34 71 27.5 109 Q21 147 21 196 L21 659 Z M73 791 Q73 814 84 819 Q95 824 121 824 L264 824 Q290 824 300.5 819 Q311 814 311 791 L311 765 Q311 742 300.5 737 Q290 732 264 732 L121 732 Q95 732 84 737 Q73 742 73 765 L73 791 Z " />
<glyph glyph-name="Uring" unicode="&#x16e;" horiz-adv-x="383" d="M21 659 Q21 686 29 696 Q37 706 58 706 L114 706 Q134 706 140 697 Q146 688 146 662 L146 180 Q146 151 156.5 138 Q167 125 193 125 Q216 125 226.5 138 Q237 151 237 181 L237 662 Q237 688 243.5 697 Q250 706 271 706 L329 706 Q350 706 356 697 Q362 688 362 662 L362 201 Q362 158 356 119.5 Q350 81 332 52.5 Q314 24 280 7 Q246 -10 189 -10 Q136 -10 103.5 4 Q71 18 52.5 44.5 Q34 71 27.5 109 Q21 147 21 196 L21 659 Z M193 715 Q157 715 132.5 740.5 Q108 766 108 803 Q108 843 132 868.5 Q156 894 193 894 Q229 894 252.5 868.5 Q276 843 276 802 Q276 764 252 739.5 Q228 715 193 715 Z M193 764 Q207 764 216.5 774.5 Q226 785 226 801 Q226 818 216.5 829 Q207 840 193 840 Q178 840 168.5 829.5 Q159 819 159 802 Q159 785 168.5 774.5 Q178 764 193 764 Z " />
<glyph glyph-name="Uhungarumlaut" unicode="&#x170;" horiz-adv-x="383" d="M21 659 Q21 686 29 696 Q37 706 58 706 L114 706 Q134 706 140 697 Q146 688 146 662 L146 180 Q146 151 156.5 138 Q167 125 193 125 Q216 125 226.5 138 Q237 151 237 181 L237 662 Q237 688 243.5 697 Q250 706 271 706 L329 706 Q350 706 356 697 Q362 688 362 662 L362 201 Q362 158 356 119.5 Q350 81 332 52.5 Q314 24 280 7 Q246 -10 189 -10 Q136 -10 103.5 4 Q71 18 52.5 44.5 Q34 71 27.5 109 Q21 147 21 196 L21 659 Z M237 813 Q245 827 247.5 831 Q250 835 258 835 L318 835 Q326 835 329.5 828.5 Q333 822 326 814 L269 748 Q261 738 257.5 735 Q254 732 246 732 L207 732 Q202 732 199 738.5 Q196 745 202 755 L237 813 Z M128 813 Q136 825 139.5 830 Q143 835 151 835 L209 835 Q217 835 220.5 828 Q224 821 218 814 L160 748 Q152 738 148.5 735 Q145 732 137 732 L99 732 Q93 732 89.5 738.5 Q86 745 92 755 L128 813 Z " />
<glyph glyph-name="Uogonek" unicode="&#x172;" horiz-adv-x="383" d="M320 -111 Q320 -138 313.5 -146.5 Q307 -155 283 -155 L231 -155 Q202 -155 182.5 -138 Q163 -121 163 -95 Q163 -68 175 -48.5 Q187 -29 213 -9 Q207 -10 201 -10 Q195 -10 189 -10 Q136 -10 103.5 4 Q71 18 52.5 44.5 Q34 71 27.5 109 Q21 147 21 196 L21 659 Q21 686 29 696 Q37 706 58 706 L114 706 Q134 706 140 697 Q146 688 146 662 L146 180 Q146 151 156.5 138 Q167 125 193 125 Q216 125 226.5 138 Q237 151 237 181 L237 662 Q237 688 243.5 697 Q250 706 271 706 L329 706 Q350 706 356 697 Q362 688 362 662 L362 201 Q362 142 350.5 95.5 Q339 49 301 18 Q272 -5 262 -20.5 Q252 -36 252 -47 Q252 -63 274 -63 L279 -63 Q304 -63 312 -70 Q320 -77 320 -96 L320 -111 Z " />
<glyph glyph-name="Yacute" unicode="&#xdd;" horiz-adv-x="364" d="M120 270 L3 669 Q-1 682 2 694 Q5 706 22 706 L93 706 Q104 706 110 701.5 Q116 697 121 680 L175 451 Q177 443 178 441 Q179 439 182 439 Q185 439 186 441 Q187 443 189 451 L243 680 Q248 697 254 701.5 Q260 706 271 706 L342 706 Q359 706 362 694 Q365 682 361 669 L244 270 L244 45 Q244 17 237.5 8.5 Q231 0 209 0 L154 0 Q133 0 126.5 8.5 Q120 17 120 45 L120 270 Z M159 818 Q167 829 170.5 832 Q174 835 182 835 L275 835 Q290 835 290 821 Q290 812 279 804 L206 742 Q200 736 196.5 734 Q193 732 183 732 L117 732 Q106 732 106 742 Q106 749 111 755 L159 818 Z " />
<glyph glyph-name="Ydieresis" unicode="&#x178;" horiz-adv-x="364" d="M120 270 L3 669 Q-1 682 2 694 Q5 706 22 706 L93 706 Q104 706 110 701.5 Q116 697 121 680 L175 451 Q177 443 178 441 Q179 439 182 439 Q185 439 186 441 Q187 443 189 451 L243 680 Q248 697 254 701.5 Q260 706 271 706 L342 706 Q359 706 362 694 Q365 682 361 669 L244 270 L244 45 Q244 17 237.5 8.5 Q231 0 209 0 L154 0 Q133 0 126.5 8.5 Q120 17 120 45 L120 270 Z M201 805 Q201 823 207 830.5 Q213 838 233 838 L264 838 Q284 838 290.5 830.5 Q297 823 297 805 L297 765 Q297 747 290.5 739.5 Q284 732 264 732 L233 732 Q213 732 207 739.5 Q201 747 201 765 L201 805 Z M73 805 Q73 823 79 830.5 Q85 838 105 838 L136 838 Q156 838 162.5 830.5 Q169 823 169 805 L169 765 Q169 747 162.5 739.5 Q156 732 136 732 L105 732 Q85 732 79 739.5 Q73 747 73 765 L73 805 Z " />
<glyph glyph-name="Zacute" unicode="&#x179;" horiz-adv-x="329" d="M8 122 Q8 128 8 134 Q8 140 9 148 Q10 156 13.5 167 Q17 178 25 195 L194 562 Q198 570 196 575.5 Q194 581 185 581 L53 581 Q41 581 34.5 582.5 Q28 584 24 588.5 Q20 593 19 601.5 Q18 610 18 624 L18 661 Q18 688 24 697 Q30 706 52 706 L288 706 Q320 706 320 664 L320 576 Q320 566 316.5 553.5 Q313 541 305 522 L136 150 Q131 141 133 133 Q135 125 146 125 L287 125 Q307 125 314 116 Q321 107 321 79 L321 43 Q321 18 313 9 Q305 0 282 0 L42 0 Q22 0 15 8 Q8 16 8 42 L8 122 Z M145 818 Q153 829 156.5 832 Q160 835 168 835 L261 835 Q276 835 276 821 Q276 812 265 804 L192 742 Q186 736 182.5 734 Q179 732 169 732 L103 732 Q92 732 92 742 Q92 749 97 755 L145 818 Z " />
<glyph glyph-name="Zcaron" unicode="&#x17d;" horiz-adv-x="329" d="M8 122 Q8 128 8 134 Q8 140 9 148 Q10 156 13.5 167 Q17 178 25 195 L194 562 Q198 570 196 575.5 Q194 581 185 581 L53 581 Q41 581 34.5 582.5 Q28 584 24 588.5 Q20 593 19 601.5 Q18 610 18 624 L18 661 Q18 688 24 697 Q30 706 52 706 L288 706 Q320 706 320 664 L320 576 Q320 566 316.5 553.5 Q313 541 305 522 L136 150 Q131 141 133 133 Q135 125 146 125 L287 125 Q307 125 314 116 Q321 107 321 79 L321 43 Q321 18 313 9 Q305 0 282 0 L42 0 Q22 0 15 8 Q8 16 8 42 L8 122 Z M49 818 Q47 824 47 827 Q47 835 57 835 L114 835 Q121 835 126.5 833.5 Q132 832 138 824 L169 784 L198 824 Q205 832 210 833.5 Q215 835 223 835 L280 835 Q289 835 289 827 Q289 821 287 818 L251 748 Q246 738 241 735 Q236 732 223 732 L114 732 Q101 732 95.5 735 Q90 738 85 748 L49 818 Z " />
<glyph glyph-name="Zdotaccent" unicode="&#x17b;" horiz-adv-x="329" d="M8 122 Q8 128 8 134 Q8 140 9 148 Q10 156 13.5 167 Q17 178 25 195 L194 562 Q198 570 196 575.5 Q194 581 185 581 L53 581 Q41 581 34.5 582.5 Q28 584 24 588.5 Q20 593 19 601.5 Q18 610 18 624 L18 661 Q18 688 24 697 Q30 706 52 706 L288 706 Q320 706 320 664 L320 576 Q320 566 316.5 553.5 Q313 541 305 522 L136 150 Q131 141 133 133 Q135 125 146 125 L287 125 Q307 125 314 116 Q321 107 321 79 L321 43 Q321 18 313 9 Q305 0 282 0 L42 0 Q22 0 15 8 Q8 16 8 42 L8 122 Z M117 805 Q117 823 123 830.5 Q129 838 149 838 L180 838 Q200 838 206.5 830.5 Q213 823 213 805 L213 765 Q213 747 206.5 739.5 Q200 732 180 732 L149 732 Q129 732 123 739.5 Q117 747 117 765 L117 805 Z " />
<glyph glyph-name="Eth" unicode="&#xd0;" horiz-adv-x="409" d="M50 329 L48 329 Q22 329 11 334 Q0 339 0 362 L0 388 Q0 411 11 416 Q22 421 48 421 L50 421 L50 658 Q50 684 57 695 Q64 706 83 706 L264 706 Q308 706 333.5 687.5 Q359 669 371.5 627 Q384 585 387.5 517.5 Q391 450 391 353 Q391 238 386 168.5 Q381 99 366.5 61.5 Q352 24 326 12 Q300 0 258 0 L87 0 Q64 0 57 8 Q50 16 50 45 L50 329 Z M170 153 Q170 143 171 137.5 Q172 132 176 129 Q180 126 187.5 125.5 Q195 125 209 125 Q228 125 239.5 129 Q251 133 256.5 154 Q262 175 263.5 219 Q265 263 265 343 Q265 431 264 479.5 Q263 528 257.5 550.5 Q252 573 240 577 Q228 581 206 581 Q183 581 176.5 576 Q170 571 170 549 L170 421 L182 421 Q208 421 218.5 416 Q229 411 229 388 L229 362 Q229 339 218.5 334 Q208 329 182 329 L170 329 L170 153 Z " />
<glyph glyph-name="Thorn" unicode="&#xde;" horiz-adv-x="363" d="M29 660 Q29 688 35.5 697 Q42 706 62 706 L120 706 Q141 706 147 697.5 Q153 689 153 660 L153 594 L224 594 Q291 594 325.5 537 Q360 480 360 368 Q360 261 329.5 205.5 Q299 150 241 150 L152 150 L152 45 Q152 17 145.5 8.5 Q139 0 118 0 L61 0 Q40 0 34 8 Q28 16 28 45 L29 660 Z M203 275 Q211 275 217 278 Q223 281 227 291 Q231 301 233 319.5 Q235 338 235 369 Q235 401 233 421 Q231 441 226.5 451.5 Q222 462 215.5 465.5 Q209 469 200 469 L169 469 Q161 469 156.5 466 Q152 463 152 450 L152 293 Q152 282 156 278.5 Q160 275 168 275 L203 275 Z " />
<glyph glyph-name="a" unicode="a" horiz-adv-x="393" d="M89 665 Q92 688 101.5 697 Q111 706 133 706 L256 706 Q275 706 284.5 696.5 Q294 687 297 664 L389 16 Q392 0 373 0 L273 0 Q265 0 261 4 Q257 8 255 19 L235 168 Q233 179 229.5 182 Q226 185 217 185 L172 185 Q164 185 160 182 Q156 179 154 168 L138 17 Q136 6 132.5 3 Q129 0 118 0 L21 0 Q2 0 3 16 L89 665 Z M207 310 Q223 310 222 322 L202 565 Q201 581 194 581 Q186 581 185 564 L167 322 Q167 310 181 310 L207 310 Z " />
<glyph glyph-name="b" unicode="b" horiz-adv-x="382" d="M28 660 Q28 686 35 696 Q42 706 61 706 L253 706 Q287 706 307.5 692 Q328 678 339 654 Q350 630 354 597.5 Q358 565 358 528 Q358 461 344.5 424 Q331 387 300 368 Q333 355 350 310 Q367 265 367 190 Q367 149 362 114.5 Q357 80 344 54.5 Q331 29 309 14.5 Q287 0 253 0 L61 0 Q41 0 34.5 9.5 Q28 19 28 47 L28 660 Z M189 427 Q218 427 226 443.5 Q234 460 234 504 Q234 529 231 544 Q228 559 222 567 Q216 575 207.5 578 Q199 581 189 581 L169 581 Q158 581 154.5 577 Q151 573 151 560 L151 449 Q151 437 154.5 432 Q158 427 169 427 L189 427 Z M189 125 Q205 125 215 129 Q225 133 231 143 Q237 153 239 170 Q241 187 241 213 Q241 241 238 259 Q235 277 228.5 286.5 Q222 296 212 299.5 Q202 303 189 303 L169 303 Q158 303 154.5 298.5 Q151 294 151 281 L151 146 Q151 135 154.5 130 Q158 125 169 125 L189 125 Z " />
<glyph glyph-name="c" unicode="c" horiz-adv-x="307" d="M145 0 Q105 0 80 13.5 Q55 27 41.5 64.5 Q28 102 23 168.5 Q18 235 18 340 Q18 446 20.5 516.5 Q23 587 35 629 Q47 671 71.5 688.5 Q96 706 140 706 L271 706 Q289 706 296.5 697.5 Q304 689 304 669 L304 621 Q304 596 297 588.5 Q290 581 269 581 L188 581 Q173 581 164.5 576.5 Q156 572 151.5 549.5 Q147 527 146 481 Q145 435 145 351 Q145 268 146.5 222.5 Q148 177 152 155.5 Q156 134 164 129.5 Q172 125 186 125 L269 125 Q288 125 295.5 117 Q303 109 303 89 L303 38 Q303 17 295.5 8.5 Q288 0 271 0 L145 0 Z " />
<glyph glyph-name="d" unicode="d" horiz-adv-x="387" d="M28 658 Q28 684 35 695 Q42 706 61 706 L242 706 Q286 706 311.5 687.5 Q337 669 349.5 627 Q362 585 365.5 517.5 Q369 450 369 353 Q369 238 364 168.5 Q359 99 344.5 61.5 Q330 24 304 12 Q278 0 236 0 L65 0 Q42 0 35 8 Q28 16 28 45 L28 658 Z M148 153 Q148 143 149 137.5 Q150 132 154 129 Q158 126 165.5 125.5 Q173 125 187 125 Q206 125 217.5 129 Q229 133 234.5 154 Q240 175 241.5 219 Q243 263 243 343 Q243 431 242 479.5 Q241 528 235.5 550.5 Q230 573 218 577 Q206 581 184 581 Q161 581 154.5 576 Q148 571 148 549 L148 153 Z " />
<glyph glyph-name="e" unicode="e" horiz-adv-x="318" d="M28 659 Q28 685 35.5 695.5 Q43 706 63 706 L273 706 Q293 706 300 698 Q307 690 307 664 L307 625 Q307 599 300 590 Q293 581 273 581 L169 581 Q157 581 153.5 576.5 Q150 572 150 558 L150 459 Q150 444 152.5 440.5 Q155 437 169 437 L222 437 Q239 437 246 430 Q253 423 253 401 L253 347 Q253 327 246 319.5 Q239 312 222 312 L169 312 Q158 312 154 309 Q150 306 150 296 L150 148 Q150 135 154 130 Q158 125 172 125 L277 125 Q299 125 307 115 Q315 105 315 79 L315 45 Q315 21 307 10.5 Q299 0 279 0 L63 0 Q42 0 35 9.5 Q28 19 28 47 L28 659 Z " />
<glyph glyph-name="f" unicode="f" horiz-adv-x="304" d="M28 657 Q28 686 35 696 Q42 706 62 706 L263 706 Q284 706 292 696 Q300 686 300 660 L300 623 Q300 599 293 590 Q286 581 268 581 L170 581 Q157 581 154 576 Q151 571 151 552 L151 456 Q151 445 154 441 Q157 437 165 437 L224 437 Q244 437 250 428.5 Q256 420 256 395 L256 358 Q256 332 249.5 322 Q243 312 223 312 L170 312 Q157 312 154 307 Q151 302 151 285 L151 44 Q151 19 144.5 9.5 Q138 0 121 0 L61 0 Q41 0 34.5 9 Q28 18 28 44 L28 657 Z " />
<glyph glyph-name="g" unicode="g" horiz-adv-x="377" d="M251 285 Q251 301 248.5 306.5 Q246 312 238 312 L207 312 Q193 312 190.5 320.5 Q188 329 188 345 L188 394 Q188 417 194.5 427 Q201 437 227 437 L328 437 Q348 437 354.5 425.5 Q361 414 361 390 L361 207 Q361 157 356 118 Q351 79 334 52.5 Q317 26 284.5 12 Q252 -2 198 -2 Q130 -2 93.5 19.5 Q57 41 40 84.5 Q23 128 20.5 194 Q18 260 18 350 Q18 437 20.5 503.5 Q23 570 34 615 Q45 660 69.5 683 Q94 706 139 706 L282 706 Q302 706 310 698 Q318 690 318 661 L318 627 Q318 601 311.5 591 Q305 581 286 581 L209 581 Q185 581 172 577 Q159 573 153 551 Q147 529 145.5 481.5 Q144 434 144 347 L144 193 Q144 155 160 140 Q176 125 200 125 Q222 125 236.5 139 Q251 153 251 181 L251 285 Z " />
<glyph glyph-name="h" unicode="h" horiz-adv-x="400" d="M28 660 Q28 686 35.5 696 Q43 706 62 706 L120 706 Q137 706 144 695 Q151 684 151 661 L151 457 Q151 444 155 440.5 Q159 437 167 437 L233 437 Q241 437 245 440.5 Q249 444 249 457 L249 661 Q249 684 256 695 Q263 706 280 706 L338 706 Q357 706 364.5 696 Q372 686 372 660 L372 47 Q372 20 365 10 Q358 0 338 0 L281 0 Q261 0 255 11 Q249 22 249 45 L249 290 Q249 303 245.5 307.5 Q242 312 232 312 L168 312 Q157 312 154 307.5 Q151 303 151 290 L151 45 Q151 22 145 11 Q139 0 118 0 L62 0 Q42 0 35 10 Q28 20 28 47 L28 660 Z " />
<glyph glyph-name="i" unicode="i" horiz-adv-x="180" d="M28 658 Q28 686 35 696 Q42 706 62 706 L120 706 Q138 706 145 695.5 Q152 685 152 658 L152 44 Q152 15 144.5 7.5 Q137 0 117 0 L65 0 Q42 0 35 9 Q28 18 28 47 L28 658 Z " />
<glyph glyph-name="j" unicode="j" horiz-adv-x="245" d="M3 83 Q3 111 10.5 118 Q18 125 37 125 L65 125 Q82 125 90 133.5 Q98 142 98 171 L98 661 Q98 688 105 697 Q112 706 134 706 L187 706 Q210 706 216.5 697 Q223 688 223 662 L223 181 Q223 144 218 114 Q213 84 199 58 Q182 28 157 14 Q132 0 92 0 L40 0 Q17 0 10 8 Q3 16 3 43 L3 83 Z " />
<glyph glyph-name="k" unicode="k" horiz-adv-x="397" d="M28 658 Q28 686 35 696 Q42 706 62 706 L120 706 Q138 706 145 695.5 Q152 685 152 658 L152 500 Q152 496 153 492.5 Q154 489 158 489 Q162 489 168 500 L247 665 Q257 687 263.5 696.5 Q270 706 287 706 L381 706 Q394 706 394 693 Q394 687 390 680 L286 477 Q284 472 281.5 466.5 Q279 461 279 456 Q279 450 279.5 445.5 Q280 441 282 435 L389 32 Q395 11 390.5 5.5 Q386 0 372 0 L286 0 Q272 0 266 6 Q260 12 256 31 L206 266 Q203 280 201 289 Q199 298 194 298 Q191 298 188.5 297 Q186 296 183 292 Q180 288 175 279.5 Q170 271 162 255 Q155 243 153.5 229 Q152 215 152 196 L152 44 Q152 15 144.5 7.5 Q137 0 117 0 L65 0 Q42 0 35 9 Q28 18 28 47 L28 658 Z " />
<glyph glyph-name="l" unicode="l" horiz-adv-x="294" d="M28 660 Q28 685 35.5 695.5 Q43 706 62 706 L118 706 Q139 706 145.5 696 Q152 686 152 660 L152 147 Q152 134 156.5 129.5 Q161 125 169 125 L255 125 Q275 125 283 115.5 Q291 106 291 80 L291 45 Q291 21 281.5 10.5 Q272 0 252 0 L62 0 Q41 0 34.5 9 Q28 18 28 47 L28 660 Z " />
<glyph glyph-name="m" unicode="m" horiz-adv-x="493" d="M28 662 Q28 688 34.5 697 Q41 706 61 706 L120 706 Q145 706 153 701 Q161 696 167 673 L238 419 Q241 409 247 409 Q252 409 255 419 L326 673 Q332 696 340 701 Q348 706 373 706 L432 706 Q452 706 459 697 Q466 688 466 662 L466 45 Q466 16 459.5 8 Q453 0 431 0 L375 0 Q354 0 347.5 9.5 Q341 19 341 44 L341 331 Q341 339 341 348 Q341 357 336 357 Q333 357 331 349 Q329 341 327 333 L285 124 Q280 104 272 98 Q264 92 247 92 Q230 92 221.5 98 Q213 104 208 124 L166 333 Q164 341 162 349 Q160 357 157 357 Q152 357 152 348 Q152 339 152 331 L152 44 Q152 19 145.5 9.5 Q139 0 118 0 L62 0 Q40 0 34 8 Q28 16 28 45 L28 662 Z " />
<glyph glyph-name="n" unicode="n" horiz-adv-x="414" d="M28 659 Q28 687 35 696.5 Q42 706 65 706 L113 706 Q132 706 139 700.5 Q146 695 154 673 L243 411 Q247 401 249.5 398.5 Q252 396 255 396 Q258 396 259 400 Q260 404 260 416 L260 659 Q260 684 267 695 Q274 706 293 706 L348 706 Q365 706 375.5 697.5 Q386 689 386 658 L386 48 Q386 20 379 10 Q372 0 349 0 L300 0 Q281 0 274 5 Q267 10 259 33 L170 296 Q167 306 164.5 308.5 Q162 311 159 311 Q155 311 154 307 Q153 303 153 291 L153 47 Q153 22 146.5 11 Q140 0 121 0 L66 0 Q48 0 38 8 Q28 16 28 48 L28 659 Z " />
<glyph glyph-name="o" unicode="o" horiz-adv-x="377" d="M188 -10 Q124 -10 89.5 17.5 Q55 45 39 93.5 Q23 142 20.5 208.5 Q18 275 18 354 Q18 433 20.5 499 Q23 565 39 612.5 Q55 660 89.5 686.5 Q124 713 188 713 Q252 713 287 686.5 Q322 660 338 612.5 Q354 565 356.5 499 Q359 433 359 354 Q359 275 356.5 208.5 Q354 142 338 93.5 Q322 45 287 17.5 Q252 -10 188 -10 Z M188 125 Q205 125 214.5 134.5 Q224 144 228.5 169.5 Q233 195 234 239.5 Q235 284 235 354 Q235 424 234 468 Q233 512 228.5 537 Q224 562 214.5 571 Q205 580 188 580 Q171 580 162 571 Q153 562 148.5 537 Q144 512 143 468 Q142 424 142 354 Q142 284 143 239.5 Q144 195 148.5 169.5 Q153 144 162 134.5 Q171 125 188 125 Z " />
<glyph glyph-name="p" unicode="p" horiz-adv-x="367" d="M28 657 Q28 684 35 695 Q42 706 61 706 L224 706 Q291 706 325.5 649 Q360 592 360 480 Q360 374 329.5 318 Q299 262 241 262 L152 262 L152 45 Q152 17 145.5 8.5 Q139 0 118 0 L61 0 Q40 0 34 8 Q28 16 28 45 L28 657 Z M203 387 Q211 387 217 390 Q223 393 227 403 Q231 413 233 431.5 Q235 450 235 481 Q235 513 233 533 Q231 553 226.5 563.5 Q222 574 215.5 577.5 Q209 581 200 581 L169 581 Q161 581 156.5 578 Q152 575 152 562 L152 405 Q152 394 156 390.5 Q160 387 168 387 L203 387 Z " />
<glyph glyph-name="q" unicode="q" horiz-adv-x="377" d="M212 -8 Q206 -8 200 -9 Q194 -10 187 -10 Q123 -10 88.5 17.5 Q54 45 38.5 93.5 Q23 142 20.5 208.5 Q18 275 18 354 Q18 433 20.5 499 Q23 565 38.5 612.5 Q54 660 88.5 686.5 Q123 713 187 713 Q251 713 286 686.5 Q321 660 337 612.5 Q353 565 355.5 499 Q358 433 358 354 Q358 303 357.5 256.5 Q357 210 352.5 170.5 Q348 131 338.5 98.5 Q329 66 311 43 L370 -20 Q381 -31 380 -39 Q379 -47 365 -54 L295 -85 Q284 -90 276.5 -86 Q269 -82 257 -67 L212 -8 Z M187 125 Q204 125 214 134.5 Q224 144 228.5 169.5 Q233 195 234 239.5 Q235 284 235 354 Q235 424 234 468 Q233 512 228.5 537 Q224 562 214 571 Q204 580 187 580 Q170 580 161 571 Q152 562 147.5 537 Q143 512 142 468 Q141 424 141 354 Q141 284 142 239.5 Q143 195 147.5 169.5 Q152 144 161 134.5 Q170 125 187 125 Z " />
<glyph glyph-name="r" unicode="r" horiz-adv-x="371" d="M28 658 Q28 685 35.5 695.5 Q43 706 63 706 L215 706 Q360 706 360 488 Q360 428 347 391.5 Q334 355 303 329 L364 29 Q365 24 365.5 20.5 Q366 17 366 15 Q366 0 347 0 L264 0 Q250 0 244.5 5.5 Q239 11 236 31 L193 285 Q191 292 188 293 Q185 294 180 294 L165 294 Q160 294 156.5 293 Q153 292 153 284 L153 44 Q153 21 145.5 10.5 Q138 0 118 0 L61 0 Q41 0 34.5 9.5 Q28 19 28 45 L28 658 Z M199 419 Q218 419 227.5 438.5 Q237 458 237 504 Q237 549 227.5 565 Q218 581 201 581 L167 581 Q161 581 157 576.5 Q153 572 153 566 L153 438 Q153 419 164 419 L199 419 Z " />
<glyph glyph-name="s" unicode="s" horiz-adv-x="322" d="M10 80 Q10 108 17 116.5 Q24 125 44 125 L153 125 Q176 125 180.5 142.5 Q185 160 176 177 L56 402 Q38 435 28.5 461 Q19 487 14 508 Q9 529 8 546 Q7 563 7 578 Q7 650 39.5 678 Q72 706 138 706 L259 706 Q289 706 289 668 L289 621 Q289 598 281 589.5 Q273 581 256 581 L162 581 Q136 581 130.5 561 Q125 541 138 518 L252 310 Q273 271 285.5 243 Q298 215 305 192.5 Q312 170 314 151.5 Q316 133 316 113 Q316 50 285 25 Q254 0 203 0 L45 0 Q25 0 17.5 8.5 Q10 17 10 43 L10 80 Z " />
<glyph glyph-name="t" unicode="t" horiz-adv-x="333" d="M104 560 Q104 574 100 577.5 Q96 581 90 581 L35 581 Q16 581 9.5 589 Q3 597 3 623 L3 659 Q3 687 10.5 696.5 Q18 706 38 706 L296 706 Q316 706 323 696.5 Q330 687 330 663 L330 624 Q330 598 323.5 589.5 Q317 581 297 581 L242 581 Q234 581 231.5 577 Q229 573 229 560 L229 47 Q229 19 222 9.5 Q215 0 195 0 L140 0 Q118 0 111 9 Q104 18 104 43 L104 560 Z " />
<glyph glyph-name="u" unicode="u" horiz-adv-x="383" d="M21 659 Q21 686 29 696 Q37 706 58 706 L114 706 Q134 706 140 697 Q146 688 146 662 L146 180 Q146 151 156.5 138 Q167 125 193 125 Q216 125 226.5 138 Q237 151 237 181 L237 662 Q237 688 243.5 697 Q250 706 271 706 L329 706 Q350 706 356 697 Q362 688 362 662 L362 201 Q362 158 356 119.5 Q350 81 332 52.5 Q314 24 280 7 Q246 -10 189 -10 Q136 -10 103.5 4 Q71 18 52.5 44.5 Q34 71 27.5 109 Q21 147 21 196 L21 659 Z " />
<glyph glyph-name="v" unicode="v" horiz-adv-x="385" d="M3 677 Q1 693 4.5 699.5 Q8 706 22 706 L104 706 Q117 706 123 700.5 Q129 695 132 672 L183 270 Q184 254 193 254 Q201 254 202 270 L253 672 Q256 695 262 700.5 Q268 706 281 706 L363 706 Q377 706 380.5 699.5 Q384 693 382 677 L277 29 Q275 12 269 6 Q263 0 249 0 L136 0 Q122 0 116 6 Q110 12 108 29 L3 677 Z " />
<glyph glyph-name="w" unicode="w" horiz-adv-x="585" d="M4 667 Q2 681 3.5 689 Q5 697 8.5 700.5 Q12 704 18 705 Q24 706 31 706 L103 706 Q116 706 121 699.5 Q126 693 128 675 L178 331 Q181 317 187 317 Q192 317 196 331 L243 534 L229 668 Q227 682 230.5 694 Q234 706 255 706 L329 706 Q343 706 348 699 Q353 692 355 675 L397 332 Q398 317 405 317 Q412 317 414 332 L456 678 Q459 706 480 706 L558 706 Q573 706 578.5 698.5 Q584 691 580 668 L470 31 Q467 14 460.5 7 Q454 0 440 0 L358 0 Q341 0 335.5 6 Q330 12 328 32 L298 268 Q297 272 296.5 276 Q296 280 293 280 Q290 280 288.5 276.5 Q287 273 286 269 L227 21 Q225 10 219 5 Q213 0 199 0 L130 0 Q116 0 111 5 Q106 10 104 26 L4 667 Z " />
<glyph glyph-name="x" unicode="x" horiz-adv-x="362" d="M75 366 L5 668 Q-3 706 26 706 L107 706 Q128 706 134 677 L172 478 Q176 464 181 464 Q186 464 189 478 L227 677 Q233 706 255 706 L335 706 Q365 706 357 668 L286 366 L357 39 Q362 19 358.5 9.5 Q355 0 340 0 L257 0 Q233 0 229 26 L190 245 Q187 258 181 258 Q175 258 171 245 L133 26 Q129 0 105 0 L22 0 Q7 0 3.5 9.5 Q0 19 5 39 L75 366 Z " />
<glyph glyph-name="y" unicode="y" horiz-adv-x="364" d="M120 270 L3 669 Q-1 682 2 694 Q5 706 22 706 L93 706 Q104 706 110 701.5 Q116 697 121 680 L175 451 Q177 443 178 441 Q179 439 182 439 Q185 439 186 441 Q187 443 189 451 L243 680 Q248 697 254 701.5 Q260 706 271 706 L342 706 Q359 706 362 694 Q365 682 361 669 L244 270 L244 45 Q244 17 237.5 8.5 Q231 0 209 0 L154 0 Q133 0 126.5 8.5 Q120 17 120 45 L120 270 Z " />
<glyph glyph-name="z" unicode="z" horiz-adv-x="329" d="M8 122 Q8 128 8 134 Q8 140 9 148 Q10 156 13.5 167 Q17 178 25 195 L194 562 Q198 570 196 575.5 Q194 581 185 581 L53 581 Q41 581 34.5 582.5 Q28 584 24 588.5 Q20 593 19 601.5 Q18 610 18 624 L18 661 Q18 688 24 697 Q30 706 52 706 L288 706 Q320 706 320 664 L320 576 Q320 566 316.5 553.5 Q313 541 305 522 L136 150 Q131 141 133 133 Q135 125 146 125 L287 125 Q307 125 314 116 Q321 107 321 79 L321 43 Q321 18 313 9 Q305 0 282 0 L42 0 Q22 0 15 8 Q8 16 8 42 L8 122 Z " />
<glyph glyph-name="agrave" unicode="&#xe0;" horiz-adv-x="393" d="M89 665 Q92 688 101.5 697 Q111 706 133 706 L256 706 Q275 706 284.5 696.5 Q294 687 297 664 L389 16 Q392 0 373 0 L273 0 Q265 0 261 4 Q257 8 255 19 L235 168 Q233 179 229.5 182 Q226 185 217 185 L172 185 Q164 185 160 182 Q156 179 154 168 L138 17 Q136 6 132.5 3 Q129 0 118 0 L21 0 Q2 0 3 16 L89 665 Z M207 310 Q223 310 222 322 L202 565 Q201 581 194 581 Q186 581 185 564 L167 322 Q167 310 181 310 L207 310 Z M84 804 Q73 813 73 821 Q73 835 88 835 L181 835 Q189 835 193 832 Q197 829 205 818 L252 755 Q257 749 257 742 Q257 732 246 732 L180 732 Q171 732 167 734 Q163 736 157 742 L84 804 Z " />
<glyph glyph-name="aacute" unicode="&#xe1;" horiz-adv-x="393" d="M89 665 Q92 688 101.5 697 Q111 706 133 706 L256 706 Q275 706 284.5 696.5 Q294 687 297 664 L389 16 Q392 0 373 0 L273 0 Q265 0 261 4 Q257 8 255 19 L235 168 Q233 179 229.5 182 Q226 185 217 185 L172 185 Q164 185 160 182 Q156 179 154 168 L138 17 Q136 6 132.5 3 Q129 0 118 0 L21 0 Q2 0 3 16 L89 665 Z M207 310 Q223 310 222 322 L202 565 Q201 581 194 581 Q186 581 185 564 L167 322 Q167 310 181 310 L207 310 Z M186 818 Q194 829 197.5 832 Q201 835 209 835 L302 835 Q317 835 317 821 Q317 812 306 804 L233 742 Q227 736 223.5 734 Q220 732 210 732 L144 732 Q133 732 133 742 Q133 749 138 755 L186 818 Z " />
<glyph glyph-name="acircumflex" unicode="&#xe2;" horiz-adv-x="393" d="M89 665 Q92 688 101.5 697 Q111 706 133 706 L256 706 Q275 706 284.5 696.5 Q294 687 297 664 L389 16 Q392 0 373 0 L273 0 Q265 0 261 4 Q257 8 255 19 L235 168 Q233 179 229.5 182 Q226 185 217 185 L172 185 Q164 185 160 182 Q156 179 154 168 L138 17 Q136 6 132.5 3 Q129 0 118 0 L21 0 Q2 0 3 16 L89 665 Z M207 310 Q223 310 222 322 L202 565 Q201 581 194 581 Q186 581 185 564 L167 322 Q167 310 181 310 L207 310 Z M114 818 Q119 828 124.5 831.5 Q130 835 143 835 L252 835 Q265 835 270 831.5 Q275 828 280 818 L316 749 Q317 747 318 744.5 Q319 742 319 740 Q319 732 309 732 L252 732 Q244 732 239 733.5 Q234 735 228 743 L197 783 L167 743 Q161 735 155.5 733.5 Q150 732 143 732 L86 732 Q76 732 76 740 Q76 743 78 749 L114 818 Z " />
<glyph glyph-name="atilde" unicode="&#xe3;" horiz-adv-x="393" d="M89 665 Q92 688 101.5 697 Q111 706 133 706 L256 706 Q275 706 284.5 696.5 Q294 687 297 664 L389 16 Q392 0 373 0 L273 0 Q265 0 261 4 Q257 8 255 19 L235 168 Q233 179 229.5 182 Q226 185 217 185 L172 185 Q164 185 160 182 Q156 179 154 168 L138 17 Q136 6 132.5 3 Q129 0 118 0 L21 0 Q2 0 3 16 L89 665 Z M207 310 Q223 310 222 322 L202 565 Q201 581 194 581 Q186 581 185 564 L167 322 Q167 310 181 310 L207 310 Z M67 805 Q67 818 72.5 826.5 Q78 835 94 835 L136 835 Q141 835 145.5 834 Q150 833 154 832 L229 809 Q236 806 242 806 Q246 806 246 813 L246 818 Q246 826 251.5 830.5 Q257 835 263 835 L289 835 Q306 835 311 828.5 Q316 822 316 807 L316 762 Q316 749 311 740.5 Q306 732 289 732 L247 732 Q242 732 237.5 733 Q233 734 229 735 L154 758 Q146 761 141 761 Q137 761 137 754 L137 749 Q137 741 132 736.5 Q127 732 120 732 L94 732 Q78 732 72.5 738.5 Q67 745 67 760 L67 805 Z " />
<glyph glyph-name="adieresis" unicode="&#xe4;" horiz-adv-x="393" d="M89 665 Q92 688 101.5 697 Q111 706 133 706 L256 706 Q275 706 284.5 696.5 Q294 687 297 664 L389 16 Q392 0 373 0 L273 0 Q265 0 261 4 Q257 8 255 19 L235 168 Q233 179 229.5 182 Q226 185 217 185 L172 185 Q164 185 160 182 Q156 179 154 168 L138 17 Q136 6 132.5 3 Q129 0 118 0 L21 0 Q2 0 3 16 L89 665 Z M207 310 Q223 310 222 322 L202 565 Q201 581 194 581 Q186 581 185 564 L167 322 Q167 310 181 310 L207 310 Z M213 805 Q213 823 219 830.5 Q225 838 245 838 L276 838 Q296 838 302.5 830.5 Q309 823 309 805 L309 765 Q309 747 302.5 739.5 Q296 732 276 732 L245 732 Q225 732 219 739.5 Q213 747 213 765 L213 805 Z M85 805 Q85 823 91 830.5 Q97 838 117 838 L148 838 Q168 838 174.5 830.5 Q181 823 181 805 L181 765 Q181 747 174.5 739.5 Q168 732 148 732 L117 732 Q97 732 91 739.5 Q85 747 85 765 L85 805 Z " />
<glyph glyph-name="amacron" unicode="&#x101;" horiz-adv-x="393" d="M89 665 Q92 688 101.5 697 Q111 706 133 706 L256 706 Q275 706 284.5 696.5 Q294 687 297 664 L389 16 Q392 0 373 0 L273 0 Q265 0 261 4 Q257 8 255 19 L235 168 Q233 179 229.5 182 Q226 185 217 185 L172 185 Q164 185 160 182 Q156 179 154 168 L138 17 Q136 6 132.5 3 Q129 0 118 0 L21 0 Q2 0 3 16 L89 665 Z M207 310 Q223 310 222 322 L202 565 Q201 581 194 581 Q186 581 185 564 L167 322 Q167 310 181 310 L207 310 Z M77 791 Q77 814 88 819 Q99 824 125 824 L268 824 Q294 824 304.5 819 Q315 814 315 791 L315 765 Q315 742 304.5 737 Q294 732 268 732 L125 732 Q99 732 88 737 Q77 742 77 765 L77 791 Z " />
<glyph glyph-name="abreve" unicode="&#x103;" horiz-adv-x="393" d="M89 665 Q92 688 101.5 697 Q111 706 133 706 L256 706 Q275 706 284.5 696.5 Q294 687 297 664 L389 16 Q392 0 373 0 L273 0 Q265 0 261 4 Q257 8 255 19 L235 168 Q233 179 229.5 182 Q226 185 217 185 L172 185 Q164 185 160 182 Q156 179 154 168 L138 17 Q136 6 132.5 3 Q129 0 118 0 L21 0 Q2 0 3 16 L89 665 Z M207 310 Q223 310 222 322 L202 565 Q201 581 194 581 Q186 581 185 564 L167 322 Q167 310 181 310 L207 310 Z M102 850 Q109 850 111.5 846 Q114 842 116 836 Q118 829 122 824 Q126 819 135 815.5 Q144 812 159 810.5 Q174 809 197 809 Q242 809 258 815.5 Q274 822 276 836 Q281 850 289 850 L318 850 Q324 850 327 845.5 Q330 841 330 836 Q330 819 323.5 800.5 Q317 782 302 767 Q287 752 261.5 742.5 Q236 733 197 733 Q158 733 132 742.5 Q106 752 90.5 767 Q75 782 68.5 800.5 Q62 819 62 836 Q62 841 65 845.5 Q68 850 74 850 L102 850 Z " />
<glyph glyph-name="aring" unicode="&#xe5;" horiz-adv-x="393" d="M89 665 Q92 686 100.5 694 Q109 702 123 705 Q117 713 112 724 Q107 735 107 752 Q107 792 131 817.5 Q155 843 191 843 Q228 843 251.5 817.5 Q275 792 275 751 Q275 734 271.5 724.5 Q268 715 260 706 Q276 704 285 695 Q294 686 297 664 L389 16 Q392 0 373 0 L273 0 Q265 0 261 4 Q257 8 255 19 L235 168 Q233 179 229.5 182 Q226 185 217 185 L172 185 Q164 185 160 182 Q156 179 154 168 L138 17 Q136 6 132.5 3 Q129 0 118 0 L21 0 Q2 0 3 16 L89 665 Z M191 711 Q206 711 215.5 722 Q225 733 225 750 Q225 768 215.5 779.5 Q206 791 191 791 Q176 791 167 781 Q158 771 158 751 Q158 733 167 722 Q176 711 191 711 Z M207 310 Q223 310 222 322 L202 565 Q201 581 194 581 Q186 581 185 564 L167 322 Q167 310 181 310 L207 310 Z " />
<glyph glyph-name="aogonek" unicode="&#x105;" horiz-adv-x="393" d="M390 -111 Q390 -138 383.5 -146.5 Q377 -155 353 -155 L301 -155 Q272 -155 252.5 -138 Q233 -121 233 -95 Q233 -34 299 0 L273 0 Q265 0 261 4 Q257 8 255 19 L235 168 Q233 179 229.5 182 Q226 185 217 185 L172 185 Q164 185 160 182 Q156 179 154 168 L138 17 Q136 6 132.5 3 Q129 0 118 0 L21 0 Q2 0 3 16 L89 665 Q92 688 101.5 697 Q111 706 133 706 L256 706 Q275 706 284.5 696.5 Q294 687 297 664 L389 16 Q389 -1 365 -8 Q336 -20 329 -29 Q322 -38 322 -47 Q322 -63 344 -63 L349 -63 Q374 -63 382 -70 Q390 -77 390 -96 L390 -111 Z M207 310 Q223 310 222 322 L202 565 Q201 581 194 581 Q186 581 185 564 L167 322 Q167 310 181 310 L207 310 Z " />
<glyph glyph-name="ae" unicode="&#xe6;" horiz-adv-x="541" d="M143 665 Q148 688 158.5 697 Q169 706 191 706 L493 706 Q513 706 520 698 Q527 690 527 664 L527 625 Q527 599 520 590 Q513 581 493 581 L389 581 Q377 581 373.5 576.5 Q370 572 370 558 L370 459 Q370 444 372.5 440.5 Q375 437 389 437 L442 437 Q460 437 466.5 430 Q473 423 473 401 L473 347 Q473 327 466 319.5 Q459 312 442 312 L389 312 Q378 312 374 309 Q370 306 370 296 L370 148 Q370 135 374 130 Q378 125 393 125 L497 125 Q519 125 527 115 Q535 105 535 79 L535 45 Q535 21 527 10.5 Q519 0 499 0 L263 0 Q255 0 251.5 4 Q248 8 248 19 L248 168 Q248 179 244 182 Q240 185 232 185 L186 185 Q178 185 173.5 182 Q169 179 167 168 L138 17 Q136 6 131.5 3 Q127 0 116 0 L19 0 Q0 0 3 16 L143 665 Z M232 310 Q248 310 248 322 L248 565 Q248 581 241 581 Q234 581 231 564 L193 322 Q191 310 205 310 L232 310 Z " />
<glyph glyph-name="cacute" unicode="&#x107;" horiz-adv-x="307" d="M145 0 Q105 0 80 13.5 Q55 27 41.5 64.5 Q28 102 23 168.5 Q18 235 18 340 Q18 446 20.5 516.5 Q23 587 35 629 Q47 671 71.5 688.5 Q96 706 140 706 L271 706 Q289 706 296.5 697.5 Q304 689 304 669 L304 621 Q304 596 297 588.5 Q290 581 269 581 L188 581 Q173 581 164.5 576.5 Q156 572 151.5 549.5 Q147 527 146 481 Q145 435 145 351 Q145 268 146.5 222.5 Q148 177 152 155.5 Q156 134 164 129.5 Q172 125 186 125 L269 125 Q288 125 295.5 117 Q303 109 303 89 L303 38 Q303 17 295.5 8.5 Q288 0 271 0 L145 0 Z M166 818 Q174 829 177.5 832 Q181 835 189 835 L282 835 Q297 835 297 821 Q297 812 286 804 L213 742 Q207 736 203.5 734 Q200 732 190 732 L124 732 Q113 732 113 742 Q113 749 118 755 L166 818 Z " />
<glyph glyph-name="ccaron" unicode="&#x10d;" horiz-adv-x="307" d="M145 0 Q105 0 80 13.5 Q55 27 41.5 64.5 Q28 102 23 168.5 Q18 235 18 340 Q18 446 20.5 516.5 Q23 587 35 629 Q47 671 71.5 688.5 Q96 706 140 706 L271 706 Q289 706 296.5 697.5 Q304 689 304 669 L304 621 Q304 596 297 588.5 Q290 581 269 581 L188 581 Q173 581 164.5 576.5 Q156 572 151.5 549.5 Q147 527 146 481 Q145 435 145 351 Q145 268 146.5 222.5 Q148 177 152 155.5 Q156 134 164 129.5 Q172 125 186 125 L269 125 Q288 125 295.5 117 Q303 109 303 89 L303 38 Q303 17 295.5 8.5 Q288 0 271 0 L145 0 Z M59 818 Q57 824 57 827 Q57 835 67 835 L124 835 Q131 835 136.5 833.5 Q142 832 148 824 L179 784 L208 824 Q215 832 220 833.5 Q225 835 233 835 L290 835 Q299 835 299 827 Q299 821 297 818 L261 748 Q256 738 251 735 Q246 732 233 732 L124 732 Q111 732 105.5 735 Q100 738 95 748 L59 818 Z " />
<glyph glyph-name="ccedilla" unicode="&#xe7;" horiz-adv-x="307" d="M90 -79 Q90 -60 98 -53.5 Q106 -47 131 -47 L153 -47 Q167 -47 167 -31 Q167 -26 165.5 -19 Q164 -12 161 0 L145 0 Q105 0 80 13.5 Q55 27 41.5 64.5 Q28 102 23 168.5 Q18 235 18 340 Q18 446 20.5 516.5 Q23 587 35 629 Q47 671 71.5 688.5 Q96 706 140 706 L271 706 Q289 706 296.5 697.5 Q304 689 304 669 L304 621 Q304 596 297 588.5 Q290 581 269 581 L188 581 Q173 581 164.5 576.5 Q156 572 151.5 549.5 Q147 527 146 481 Q145 435 145 351 Q145 268 146.5 222.5 Q148 177 152 155.5 Q156 134 164 129.5 Q172 125 186 125 L269 125 Q288 125 295.5 117 Q303 109 303 89 L303 38 Q303 17 295.5 8.5 Q288 0 271 0 L211 0 Q216 -20 218 -32.5 Q220 -45 220 -58 Q220 -98 205.5 -121.5 Q191 -145 165 -145 L127 -145 Q103 -145 96.5 -137.5 Q90 -130 90 -103 L90 -79 Z " />
<glyph glyph-name="dcaron" unicode="&#x10f;" horiz-adv-x="387" d="M28 658 Q28 684 35 695 Q42 706 61 706 L242 706 Q286 706 311.5 687.5 Q337 669 349.5 627 Q362 585 365.5 517.5 Q369 450 369 353 Q369 238 364 168.5 Q359 99 344.5 61.5 Q330 24 304 12 Q278 0 236 0 L65 0 Q42 0 35 8 Q28 16 28 45 L28 658 Z M148 153 Q148 143 149 137.5 Q150 132 154 129 Q158 126 165.5 125.5 Q173 125 187 125 Q206 125 217.5 129 Q229 133 234.5 154 Q240 175 241.5 219 Q243 263 243 343 Q243 431 242 479.5 Q241 528 235.5 550.5 Q230 573 218 577 Q206 581 184 581 Q161 581 154.5 576 Q148 571 148 549 L148 153 Z M75 818 Q73 824 73 827 Q73 835 83 835 L140 835 Q147 835 152.5 833.5 Q158 832 164 824 L195 784 L224 824 Q231 832 236 833.5 Q241 835 249 835 L306 835 Q315 835 315 827 Q315 821 313 818 L277 748 Q272 738 267 735 Q262 732 249 732 L140 732 Q127 732 121.5 735 Q116 738 111 748 L75 818 Z " />
<glyph glyph-name="dcroat" unicode="&#x111;" horiz-adv-x="409" d="M50 329 L48 329 Q22 329 11 334 Q0 339 0 362 L0 388 Q0 411 11 416 Q22 421 48 421 L50 421 L50 658 Q50 684 57 695 Q64 706 83 706 L264 706 Q308 706 333.5 687.5 Q359 669 371.5 627 Q384 585 387.5 517.5 Q391 450 391 353 Q391 238 386 168.5 Q381 99 366.5 61.5 Q352 24 326 12 Q300 0 258 0 L87 0 Q64 0 57 8 Q50 16 50 45 L50 329 Z M170 153 Q170 143 171 137.5 Q172 132 176 129 Q180 126 187.5 125.5 Q195 125 209 125 Q228 125 239.5 129 Q251 133 256.5 154 Q262 175 263.5 219 Q265 263 265 343 Q265 431 264 479.5 Q263 528 257.5 550.5 Q252 573 240 577 Q228 581 206 581 Q183 581 176.5 576 Q170 571 170 549 L170 421 L182 421 Q208 421 218.5 416 Q229 411 229 388 L229 362 Q229 339 218.5 334 Q208 329 182 329 L170 329 L170 153 Z " />
<glyph glyph-name="egrave" unicode="&#xe8;" horiz-adv-x="318" d="M28 659 Q28 685 35.5 695.5 Q43 706 63 706 L273 706 Q293 706 300 698 Q307 690 307 664 L307 625 Q307 599 300 590 Q293 581 273 581 L169 581 Q157 581 153.5 576.5 Q150 572 150 558 L150 459 Q150 444 152.5 440.5 Q155 437 169 437 L222 437 Q239 437 246 430 Q253 423 253 401 L253 347 Q253 327 246 319.5 Q239 312 222 312 L169 312 Q158 312 154 309 Q150 306 150 296 L150 148 Q150 135 154 130 Q158 125 172 125 L277 125 Q299 125 307 115 Q315 105 315 79 L315 45 Q315 21 307 10.5 Q299 0 279 0 L63 0 Q42 0 35 9.5 Q28 19 28 47 L28 659 Z M56 804 Q45 813 45 821 Q45 835 60 835 L153 835 Q161 835 165 832 Q169 829 177 818 L224 755 Q229 749 229 742 Q229 732 218 732 L152 732 Q143 732 139 734 Q135 736 129 742 L56 804 Z " />
<glyph glyph-name="eacute" unicode="&#xe9;" horiz-adv-x="318" d="M28 659 Q28 685 35.5 695.5 Q43 706 63 706 L273 706 Q293 706 300 698 Q307 690 307 664 L307 625 Q307 599 300 590 Q293 581 273 581 L169 581 Q157 581 153.5 576.5 Q150 572 150 558 L150 459 Q150 444 152.5 440.5 Q155 437 169 437 L222 437 Q239 437 246 430 Q253 423 253 401 L253 347 Q253 327 246 319.5 Q239 312 222 312 L169 312 Q158 312 154 309 Q150 306 150 296 L150 148 Q150 135 154 130 Q158 125 172 125 L277 125 Q299 125 307 115 Q315 105 315 79 L315 45 Q315 21 307 10.5 Q299 0 279 0 L63 0 Q42 0 35 9.5 Q28 19 28 47 L28 659 Z M153 818 Q161 829 164.5 832 Q168 835 176 835 L269 835 Q284 835 284 821 Q284 812 273 804 L200 742 Q194 736 190.5 734 Q187 732 177 732 L111 732 Q100 732 100 742 Q100 749 105 755 L153 818 Z " />
<glyph glyph-name="ecircumflex" unicode="&#xea;" horiz-adv-x="318" d="M28 659 Q28 685 35.5 695.5 Q43 706 63 706 L273 706 Q293 706 300 698 Q307 690 307 664 L307 625 Q307 599 300 590 Q293 581 273 581 L169 581 Q157 581 153.5 576.5 Q150 572 150 558 L150 459 Q150 444 152.5 440.5 Q155 437 169 437 L222 437 Q239 437 246 430 Q253 423 253 401 L253 347 Q253 327 246 319.5 Q239 312 222 312 L169 312 Q158 312 154 309 Q150 306 150 296 L150 148 Q150 135 154 130 Q158 125 172 125 L277 125 Q299 125 307 115 Q315 105 315 79 L315 45 Q315 21 307 10.5 Q299 0 279 0 L63 0 Q42 0 35 9.5 Q28 19 28 47 L28 659 Z M73 818 Q78 828 83.5 831.5 Q89 835 102 835 L211 835 Q224 835 229 831.5 Q234 828 239 818 L275 749 Q276 747 277 744.5 Q278 742 278 740 Q278 732 268 732 L211 732 Q203 732 198 733.5 Q193 735 187 743 L156 783 L126 743 Q120 735 114.5 733.5 Q109 732 102 732 L45 732 Q35 732 35 740 Q35 743 37 749 L73 818 Z " />
<glyph glyph-name="ecaron" unicode="&#x11b;" horiz-adv-x="318" d="M28 659 Q28 685 35.5 695.5 Q43 706 63 706 L273 706 Q293 706 300 698 Q307 690 307 664 L307 625 Q307 599 300 590 Q293 581 273 581 L169 581 Q157 581 153.5 576.5 Q150 572 150 558 L150 459 Q150 444 152.5 440.5 Q155 437 169 437 L222 437 Q239 437 246 430 Q253 423 253 401 L253 347 Q253 327 246 319.5 Q239 312 222 312 L169 312 Q158 312 154 309 Q150 306 150 296 L150 148 Q150 135 154 130 Q158 125 172 125 L277 125 Q299 125 307 115 Q315 105 315 79 L315 45 Q315 21 307 10.5 Q299 0 279 0 L63 0 Q42 0 35 9.5 Q28 19 28 47 L28 659 Z M40 818 Q38 824 38 827 Q38 835 48 835 L105 835 Q112 835 117.5 833.5 Q123 832 129 824 L160 784 L189 824 Q196 832 201 833.5 Q206 835 214 835 L271 835 Q280 835 280 827 Q280 821 278 818 L242 748 Q237 738 232 735 Q227 732 214 732 L105 732 Q92 732 86.5 735 Q81 738 76 748 L40 818 Z " />
<glyph glyph-name="edieresis" unicode="&#xeb;" horiz-adv-x="318" d="M28 659 Q28 685 35.5 695.5 Q43 706 63 706 L273 706 Q293 706 300 698 Q307 690 307 664 L307 625 Q307 599 300 590 Q293 581 273 581 L169 581 Q157 581 153.5 576.5 Q150 572 150 558 L150 459 Q150 444 152.5 440.5 Q155 437 169 437 L222 437 Q239 437 246 430 Q253 423 253 401 L253 347 Q253 327 246 319.5 Q239 312 222 312 L169 312 Q158 312 154 309 Q150 306 150 296 L150 148 Q150 135 154 130 Q158 125 172 125 L277 125 Q299 125 307 115 Q315 105 315 79 L315 45 Q315 21 307 10.5 Q299 0 279 0 L63 0 Q42 0 35 9.5 Q28 19 28 47 L28 659 Z M181 805 Q181 823 187 830.5 Q193 838 213 838 L244 838 Q264 838 270.5 830.5 Q277 823 277 805 L277 765 Q277 747 270.5 739.5 Q264 732 244 732 L213 732 Q193 732 187 739.5 Q181 747 181 765 L181 805 Z M53 805 Q53 823 59 830.5 Q65 838 85 838 L116 838 Q136 838 142.5 830.5 Q149 823 149 805 L149 765 Q149 747 142.5 739.5 Q136 732 116 732 L85 732 Q65 732 59 739.5 Q53 747 53 765 L53 805 Z " />
<glyph glyph-name="emacron" unicode="&#x113;" horiz-adv-x="318" d="M28 659 Q28 685 35.5 695.5 Q43 706 63 706 L273 706 Q293 706 300 698 Q307 690 307 664 L307 625 Q307 599 300 590 Q293 581 273 581 L169 581 Q157 581 153.5 576.5 Q150 572 150 558 L150 459 Q150 444 152.5 440.5 Q155 437 169 437 L222 437 Q239 437 246 430 Q253 423 253 401 L253 347 Q253 327 246 319.5 Q239 312 222 312 L169 312 Q158 312 154 309 Q150 306 150 296 L150 148 Q150 135 154 130 Q158 125 172 125 L277 125 Q299 125 307 115 Q315 105 315 79 L315 45 Q315 21 307 10.5 Q299 0 279 0 L63 0 Q42 0 35 9.5 Q28 19 28 47 L28 659 Z M45 791 Q45 814 56 819 Q67 824 93 824 L236 824 Q262 824 272.5 819 Q283 814 283 791 L283 765 Q283 742 272.5 737 Q262 732 236 732 L93 732 Q67 732 56 737 Q45 742 45 765 L45 791 Z " />
<glyph glyph-name="edotaccent" unicode="&#x117;" horiz-adv-x="318" d="M28 659 Q28 685 35.5 695.5 Q43 706 63 706 L273 706 Q293 706 300 698 Q307 690 307 664 L307 625 Q307 599 300 590 Q293 581 273 581 L169 581 Q157 581 153.5 576.5 Q150 572 150 558 L150 459 Q150 444 152.5 440.5 Q155 437 169 437 L222 437 Q239 437 246 430 Q253 423 253 401 L253 347 Q253 327 246 319.5 Q239 312 222 312 L169 312 Q158 312 154 309 Q150 306 150 296 L150 148 Q150 135 154 130 Q158 125 172 125 L277 125 Q299 125 307 115 Q315 105 315 79 L315 45 Q315 21 307 10.5 Q299 0 279 0 L63 0 Q42 0 35 9.5 Q28 19 28 47 L28 659 Z M112 805 Q112 823 118 830.5 Q124 838 144 838 L175 838 Q195 838 201.5 830.5 Q208 823 208 805 L208 765 Q208 747 201.5 739.5 Q195 732 175 732 L144 732 Q124 732 118 739.5 Q112 747 112 765 L112 805 Z " />
<glyph glyph-name="eogonek" unicode="&#x119;" horiz-adv-x="318" d="M315 -111 Q315 -138 308.5 -146.5 Q302 -155 278 -155 L226 -155 Q197 -155 177.5 -138 Q158 -121 158 -95 Q158 -34 224 0 L63 0 Q42 0 35 9.5 Q28 19 28 47 L28 659 Q28 685 35.5 695.5 Q43 706 63 706 L273 706 Q293 706 300 698 Q307 690 307 664 L307 625 Q307 599 300 590 Q293 581 273 581 L169 581 Q157 581 153.5 576.5 Q150 572 150 558 L150 459 Q150 444 152.5 440.5 Q155 437 169 437 L222 437 Q239 437 246 430 Q253 423 253 401 L253 347 Q253 327 246 319.5 Q239 312 222 312 L169 312 Q158 312 154 309 Q150 306 150 296 L150 148 Q150 135 154 130 Q158 125 172 125 L277 125 Q299 125 307 115 Q315 105 315 79 L315 45 Q315 20 308.5 13 Q302 6 285 -4 Q261 -19 254 -28.5 Q247 -38 247 -47 Q247 -63 269 -63 L274 -63 Q299 -63 307 -70 Q315 -77 315 -96 L315 -111 Z " />
<glyph glyph-name="gbreve" unicode="&#x11f;" horiz-adv-x="377" d="M251 285 Q251 301 248.5 306.5 Q246 312 238 312 L207 312 Q193 312 190.5 320.5 Q188 329 188 345 L188 394 Q188 417 194.5 427 Q201 437 227 437 L328 437 Q348 437 354.5 425.5 Q361 414 361 390 L361 207 Q361 157 356 118 Q351 79 334 52.5 Q317 26 284.5 12 Q252 -2 198 -2 Q130 -2 93.5 19.5 Q57 41 40 84.5 Q23 128 20.5 194 Q18 260 18 350 Q18 437 20.5 503.5 Q23 570 34 615 Q45 660 69.5 683 Q94 706 139 706 L282 706 Q302 706 310 698 Q318 690 318 661 L318 627 Q318 601 311.5 591 Q305 581 286 581 L209 581 Q185 581 172 577 Q159 573 153 551 Q147 529 145.5 481.5 Q144 434 144 347 L144 193 Q144 155 160 140 Q176 125 200 125 Q222 125 236.5 139 Q251 153 251 181 L251 285 Z M95 850 Q102 850 104.5 846 Q107 842 109 836 Q111 829 115 824 Q119 819 128 815.5 Q137 812 152 810.5 Q167 809 190 809 Q235 809 251 815.5 Q267 822 269 836 Q274 850 282 850 L311 850 Q317 850 320 845.5 Q323 841 323 836 Q323 819 316.5 800.5 Q310 782 295 767 Q280 752 254.5 742.5 Q229 733 190 733 Q151 733 125 742.5 Q99 752 83.5 767 Q68 782 61.5 800.5 Q55 819 55 836 Q55 841 58 845.5 Q61 850 67 850 L95 850 Z " />
<glyph glyph-name="gcommaaccent" unicode="&#x123;" horiz-adv-x="377" d="M251 285 Q251 301 248.5 306.5 Q246 312 238 312 L207 312 Q193 312 190.5 320.5 Q188 329 188 345 L188 394 Q188 417 194.5 427 Q201 437 227 437 L328 437 Q348 437 354.5 425.5 Q361 414 361 390 L361 207 Q361 157 356 118 Q351 79 334 52.5 Q317 26 284.5 12 Q252 -2 198 -2 Q130 -2 93.5 19.5 Q57 41 40 84.5 Q23 128 20.5 194 Q18 260 18 350 Q18 437 20.5 503.5 Q23 570 34 615 Q45 660 69.5 683 Q94 706 139 706 L282 706 Q302 706 310 698 Q318 690 318 661 L318 627 Q318 601 311.5 591 Q305 581 286 581 L209 581 Q185 581 172 577 Q159 573 153 551 Q147 529 145.5 481.5 Q144 434 144 347 L144 193 Q144 155 160 140 Q176 125 200 125 Q222 125 236.5 139 Q251 153 251 181 L251 285 Z M163 -148 Q165 -142 165.5 -135.5 Q166 -129 159 -129 L152 -129 Q141 -129 137 -121.5 Q133 -114 133 -90 L133 -72 Q133 -46 140.5 -35.5 Q148 -25 168 -25 L211 -25 Q229 -25 236.5 -35 Q244 -45 244 -69 L244 -91 Q244 -105 243.5 -112.5 Q243 -120 241 -128 L215 -208 Q208 -229 192 -229 L153 -229 Q143 -229 140 -225 Q137 -221 141 -208 L163 -148 Z " />
<glyph glyph-name="igrave" unicode="&#xec;" horiz-adv-x="180" d="M29 658 Q29 686 36 696 Q43 706 63 706 L121 706 Q139 706 146 695.5 Q153 685 153 658 L153 44 Q153 15 145.5 7.5 Q138 0 118 0 L66 0 Q43 0 36 9 Q29 18 29 47 L29 658 Z M-8 804 Q-19 813 -19 821 Q-19 835 -4 835 L89 835 Q97 835 101 832 Q105 829 113 818 L160 755 Q165 749 165 742 Q165 732 154 732 L88 732 Q79 732 75 734 Q71 736 65 742 L-8 804 Z " />
<glyph glyph-name="iacute" unicode="&#xed;" horiz-adv-x="180" d="M28 658 Q28 686 35 696 Q42 706 62 706 L120 706 Q138 706 145 695.5 Q152 685 152 658 L152 44 Q152 15 144.5 7.5 Q137 0 117 0 L65 0 Q42 0 35 9 Q28 18 28 47 L28 658 Z M58 818 Q66 829 69.5 832 Q73 835 81 835 L174 835 Q189 835 189 821 Q189 812 178 804 L105 742 Q99 736 95.5 734 Q92 732 82 732 L16 732 Q5 732 5 742 Q5 749 10 755 L58 818 Z " />
<glyph glyph-name="icircumflex" unicode="&#xee;" horiz-adv-x="180" d="M28 658 Q28 686 35 696 Q42 706 62 706 L120 706 Q138 706 145 695.5 Q152 685 152 658 L152 44 Q152 15 144.5 7.5 Q137 0 117 0 L65 0 Q42 0 35 9 Q28 18 28 47 L28 658 Z M7 818 Q12 828 17.5 831.5 Q23 835 36 835 L145 835 Q158 835 163 831.5 Q168 828 173 818 L209 749 Q210 747 211 744.5 Q212 742 212 740 Q212 732 202 732 L145 732 Q137 732 132 733.5 Q127 735 121 743 L90 783 L60 743 Q54 735 48.5 733.5 Q43 732 36 732 L-21 732 Q-31 732 -31 740 Q-31 743 -29 749 L7 818 Z " />
<glyph glyph-name="idieresis" unicode="&#xef;" horiz-adv-x="180" d="M28 658 Q28 686 35 696 Q42 706 62 706 L120 706 Q138 706 145 695.5 Q152 685 152 658 L152 44 Q152 15 144.5 7.5 Q137 0 117 0 L65 0 Q42 0 35 9 Q28 18 28 47 L28 658 Z M108 805 Q108 823 114 830.5 Q120 838 140 838 L171 838 Q191 838 197.5 830.5 Q204 823 204 805 L204 765 Q204 747 197.5 739.5 Q191 732 171 732 L140 732 Q120 732 114 739.5 Q108 747 108 765 L108 805 Z M-20 805 Q-20 823 -14 830.5 Q-8 838 12 838 L43 838 Q63 838 69.5 830.5 Q76 823 76 805 L76 765 Q76 747 69.5 739.5 Q63 732 43 732 L12 732 Q-8 732 -14 739.5 Q-20 747 -20 765 L-20 805 Z " />
<glyph glyph-name="imacron" unicode="&#x12b;" horiz-adv-x="180" d="M28 658 Q28 686 35 696 Q42 706 62 706 L120 706 Q138 706 145 695.5 Q152 685 152 658 L152 44 Q152 15 144.5 7.5 Q137 0 117 0 L65 0 Q42 0 35 9 Q28 18 28 47 L28 658 Z M-29 791 Q-29 814 -18 819 Q-7 824 19 824 L162 824 Q188 824 198.5 819 Q209 814 209 791 L209 765 Q209 742 198.5 737 Q188 732 162 732 L19 732 Q-7 732 -18 737 Q-29 742 -29 765 L-29 791 Z " />
<glyph glyph-name="iogonek" unicode="&#x12f;" horiz-adv-x="180" d="M152 -111 Q152 -138 145.5 -146.5 Q139 -155 115 -155 L63 -155 Q34 -155 14.5 -138 Q-5 -121 -5 -95 Q-5 -34 61 0 Q41 1 34.5 10 Q28 19 28 47 L28 658 Q28 686 35 696 Q42 706 62 706 L120 706 Q138 706 145 695.5 Q152 685 152 658 L152 44 Q152 18 146 9.5 Q140 1 124 0 Q101 -15 92.5 -26.5 Q84 -38 84 -47 Q84 -63 106 -63 L111 -63 Q136 -63 144 -70 Q152 -77 152 -96 L152 -111 Z " />
<glyph glyph-name="dotlessi" unicode="&#x131;" horiz-adv-x="180" d="M28 658 Q28 686 35 696 Q42 706 62 706 L120 706 Q138 706 145 695.5 Q152 685 152 658 L152 44 Q152 15 144.5 7.5 Q137 0 117 0 L65 0 Q42 0 35 9 Q28 18 28 47 L28 658 Z M43 805 Q43 823 49 830.5 Q55 838 75 838 L106 838 Q126 838 132.5 830.5 Q139 823 139 805 L139 765 Q139 747 132.5 739.5 Q126 732 106 732 L75 732 Q55 732 49 739.5 Q43 747 43 765 L43 805 Z " />
<glyph glyph-name="kcommaaccent" unicode="&#x137;" horiz-adv-x="397" d="M28 658 Q28 686 35 696 Q42 706 62 706 L120 706 Q138 706 145 695.5 Q152 685 152 658 L152 500 Q152 496 153 492.5 Q154 489 158 489 Q162 489 168 500 L247 665 Q257 687 263.5 696.5 Q270 706 287 706 L381 706 Q394 706 394 693 Q394 687 390 680 L286 477 Q284 472 281.5 466.5 Q279 461 279 456 Q279 450 279.5 445.5 Q280 441 282 435 L389 32 Q395 11 390.5 5.5 Q386 0 372 0 L286 0 Q272 0 266 6 Q260 12 256 31 L206 266 Q203 280 201 289 Q199 298 194 298 Q191 298 188.5 297 Q186 296 183 292 Q180 288 175 279.5 Q170 271 162 255 Q155 243 153.5 229 Q152 215 152 196 L152 44 Q152 15 144.5 7.5 Q137 0 117 0 L65 0 Q42 0 35 9 Q28 18 28 47 L28 658 Z M174 -148 Q176 -142 176.5 -135.5 Q177 -129 170 -129 L163 -129 Q152 -129 148 -121.5 Q144 -114 144 -90 L144 -72 Q144 -46 151.5 -35.5 Q159 -25 179 -25 L222 -25 Q240 -25 247.5 -35 Q255 -45 255 -69 L255 -91 Q255 -105 254.5 -112.5 Q254 -120 252 -128 L226 -208 Q219 -229 203 -229 L164 -229 Q154 -229 151 -225 Q148 -221 152 -208 L174 -148 Z " />
<glyph glyph-name="lacute" unicode="&#x13a;" horiz-adv-x="294" d="M28 660 Q28 685 35.5 695.5 Q43 706 62 706 L118 706 Q139 706 145.5 696 Q152 686 152 660 L152 147 Q152 134 156.5 129.5 Q161 125 169 125 L255 125 Q275 125 283 115.5 Q291 106 291 80 L291 45 Q291 21 281.5 10.5 Q272 0 252 0 L62 0 Q41 0 34.5 9 Q28 18 28 47 L28 660 Z M100 818 Q108 829 111.5 832 Q115 835 123 835 L216 835 Q231 835 231 821 Q231 812 220 804 L147 742 Q141 736 137.5 734 Q134 732 124 732 L58 732 Q47 732 47 742 Q47 749 52 755 L100 818 Z " />
<glyph glyph-name="lcaron" unicode="&#x13e;" horiz-adv-x="294" d="M209 562 Q212 568 212 572 Q212 581 204 581 L197 581 Q186 581 183 588.5 Q180 596 180 620 L180 659 Q180 685 187.5 695.5 Q195 706 215 706 L258 706 Q276 706 283.5 696 Q291 686 291 662 L291 619 Q291 605 290 597.5 Q289 590 287 582 L260 501 Q254 481 237 481 L199 481 Q185 481 185 489 Q185 493 188 501 L209 562 Z M28 660 Q28 685 35.5 695.5 Q43 706 62 706 L118 706 Q139 706 145.5 696 Q152 686 152 660 L152 147 Q152 134 156.5 129.5 Q161 125 169 125 L255 125 Q275 125 283 115.5 Q291 106 291 80 L291 45 Q291 21 281.5 10.5 Q272 0 252 0 L62 0 Q41 0 34.5 9 Q28 18 28 47 L28 660 Z " />
<glyph glyph-name="lcommaaccent" unicode="&#x13c;" horiz-adv-x="294" d="M28 660 Q28 685 35.5 695.5 Q43 706 62 706 L118 706 Q139 706 145.5 696 Q152 686 152 660 L152 147 Q152 134 156.5 129.5 Q161 125 169 125 L255 125 Q275 125 283 115.5 Q291 106 291 80 L291 45 Q291 21 281.5 10.5 Q272 0 252 0 L62 0 Q41 0 34.5 9 Q28 18 28 47 L28 660 Z M121 -148 Q123 -142 123.5 -135.5 Q124 -129 117 -129 L110 -129 Q99 -129 95 -121.5 Q91 -114 91 -90 L91 -72 Q91 -46 98.5 -35.5 Q106 -25 126 -25 L169 -25 Q187 -25 194.5 -35 Q202 -45 202 -69 L202 -91 Q202 -105 201.5 -112.5 Q201 -120 199 -128 L173 -208 Q166 -229 150 -229 L111 -229 Q101 -229 98 -225 Q95 -221 99 -208 L121 -148 Z " />
<glyph glyph-name="lslash" unicode="&#x142;" horiz-adv-x="311" d="M44 231 L18 196 Q10 185 3.5 187 Q-3 189 -3 201 L-3 266 Q-3 278 1.5 287 Q6 296 17 310 L44 345 L44 660 Q44 685 52 695.5 Q60 706 79 706 L135 706 Q156 706 162.5 696 Q169 686 169 660 L169 508 L217 570 Q225 581 231.5 579 Q238 577 238 565 L238 499 Q238 486 233.5 477.5 Q229 469 218 455 L169 394 L169 147 Q169 134 173.5 129.5 Q178 125 186 125 L272 125 Q292 125 300 115.5 Q308 106 308 80 L308 45 Q308 21 298.5 10.5 Q289 0 269 0 L79 0 Q58 0 51 9 Q44 18 44 47 L44 231 Z " />
<glyph glyph-name="nacute" unicode="&#x144;" horiz-adv-x="414" d="M28 659 Q28 687 35 696.5 Q42 706 65 706 L113 706 Q132 706 139 700.5 Q146 695 154 673 L243 411 Q247 401 249.5 398.5 Q252 396 255 396 Q258 396 259 400 Q260 404 260 416 L260 659 Q260 684 267 695 Q274 706 293 706 L348 706 Q365 706 375.5 697.5 Q386 689 386 658 L386 48 Q386 20 379 10 Q372 0 349 0 L300 0 Q281 0 274 5 Q267 10 259 33 L170 296 Q167 306 164.5 308.5 Q162 311 159 311 Q155 311 154 307 Q153 303 153 291 L153 47 Q153 22 146.5 11 Q140 0 121 0 L66 0 Q48 0 38 8 Q28 16 28 48 L28 659 Z M185 818 Q193 829 196.5 832 Q200 835 208 835 L301 835 Q316 835 316 821 Q316 812 305 804 L232 742 Q226 736 222.5 734 Q219 732 209 732 L143 732 Q132 732 132 742 Q132 749 137 755 L185 818 Z " />
<glyph glyph-name="ncaron" unicode="&#x148;" horiz-adv-x="414" d="M28 659 Q28 687 35 696.5 Q42 706 65 706 L113 706 Q132 706 139 700.5 Q146 695 154 673 L243 411 Q247 401 249.5 398.5 Q252 396 255 396 Q258 396 259 400 Q260 404 260 416 L260 659 Q260 684 267 695 Q274 706 293 706 L348 706 Q365 706 375.5 697.5 Q386 689 386 658 L386 48 Q386 20 379 10 Q372 0 349 0 L300 0 Q281 0 274 5 Q267 10 259 33 L170 296 Q167 306 164.5 308.5 Q162 311 159 311 Q155 311 154 307 Q153 303 153 291 L153 47 Q153 22 146.5 11 Q140 0 121 0 L66 0 Q48 0 38 8 Q28 16 28 48 L28 659 Z M87 818 Q85 824 85 827 Q85 835 95 835 L152 835 Q159 835 164.5 833.5 Q170 832 176 824 L207 784 L236 824 Q243 832 248 833.5 Q253 835 261 835 L318 835 Q327 835 327 827 Q327 821 325 818 L289 748 Q284 738 279 735 Q274 732 261 732 L152 732 Q139 732 133.5 735 Q128 738 123 748 L87 818 Z " />
<glyph glyph-name="ntilde" unicode="&#xf1;" horiz-adv-x="414" d="M28 659 Q28 687 35 696.5 Q42 706 65 706 L113 706 Q132 706 139 700.5 Q146 695 154 673 L243 411 Q247 401 249.5 398.5 Q252 396 255 396 Q258 396 259 400 Q260 404 260 416 L260 659 Q260 684 267 695 Q274 706 293 706 L348 706 Q365 706 375.5 697.5 Q386 689 386 658 L386 48 Q386 20 379 10 Q372 0 349 0 L300 0 Q281 0 274 5 Q267 10 259 33 L170 296 Q167 306 164.5 308.5 Q162 311 159 311 Q155 311 154 307 Q153 303 153 291 L153 47 Q153 22 146.5 11 Q140 0 121 0 L66 0 Q48 0 38 8 Q28 16 28 48 L28 659 Z M82 805 Q82 818 87.5 826.5 Q93 835 109 835 L151 835 Q156 835 160.5 834 Q165 833 169 832 L244 809 Q251 806 257 806 Q261 806 261 813 L261 818 Q261 826 266.5 830.5 Q272 835 278 835 L304 835 Q321 835 326 828.5 Q331 822 331 807 L331 762 Q331 749 326 740.5 Q321 732 304 732 L262 732 Q257 732 252.5 733 Q248 734 244 735 L169 758 Q161 761 156 761 Q152 761 152 754 L152 749 Q152 741 147 736.5 Q142 732 135 732 L109 732 Q93 732 87.5 738.5 Q82 745 82 760 L82 805 Z " />
<glyph glyph-name="ncommaaccent" unicode="&#x146;" horiz-adv-x="414" d="M28 659 Q28 687 35 696.5 Q42 706 65 706 L113 706 Q132 706 139 700.5 Q146 695 154 673 L243 411 Q247 401 249.5 398.5 Q252 396 255 396 Q258 396 259 400 Q260 404 260 416 L260 659 Q260 684 267 695 Q274 706 293 706 L348 706 Q365 706 375.5 697.5 Q386 689 386 658 L386 48 Q386 20 379 10 Q372 0 349 0 L300 0 Q281 0 274 5 Q267 10 259 33 L170 296 Q167 306 164.5 308.5 Q162 311 159 311 Q155 311 154 307 Q153 303 153 291 L153 47 Q153 22 146.5 11 Q140 0 121 0 L66 0 Q48 0 38 8 Q28 16 28 48 L28 659 Z M184 -148 Q186 -142 186.5 -135.5 Q187 -129 180 -129 L173 -129 Q162 -129 158 -121.5 Q154 -114 154 -90 L154 -72 Q154 -46 161.5 -35.5 Q169 -25 189 -25 L232 -25 Q250 -25 257.5 -35 Q265 -45 265 -69 L265 -91 Q265 -105 264.5 -112.5 Q264 -120 262 -128 L236 -208 Q229 -229 213 -229 L174 -229 Q164 -229 161 -225 Q158 -221 162 -208 L184 -148 Z " />
<glyph glyph-name="ograve" unicode="&#xf2;" horiz-adv-x="377" d="M188 -10 Q124 -10 89.5 17.5 Q55 45 39 93.5 Q23 142 20.5 208.5 Q18 275 18 354 Q18 433 20.5 499 Q23 565 39 612.5 Q55 660 89.5 686.5 Q124 713 188 713 Q252 713 287 686.5 Q322 660 338 612.5 Q354 565 356.5 499 Q359 433 359 354 Q359 275 356.5 208.5 Q354 142 338 93.5 Q322 45 287 17.5 Q252 -10 188 -10 Z M188 125 Q205 125 214.5 134.5 Q224 144 228.5 169.5 Q233 195 234 239.5 Q235 284 235 354 Q235 424 234 468 Q233 512 228.5 537 Q224 562 214.5 571 Q205 580 188 580 Q171 580 162 571 Q153 562 148.5 537 Q144 512 143 468 Q142 424 142 354 Q142 284 143 239.5 Q144 195 148.5 169.5 Q153 144 162 134.5 Q171 125 188 125 Z M75 804 Q64 813 64 821 Q64 835 79 835 L172 835 Q180 835 184 832 Q188 829 196 818 L243 755 Q248 749 248 742 Q248 732 237 732 L171 732 Q162 732 158 734 Q154 736 148 742 L75 804 Z " />
<glyph glyph-name="oacute" unicode="&#xf3;" horiz-adv-x="377" d="M188 -10 Q124 -10 89.5 17.5 Q55 45 39 93.5 Q23 142 20.5 208.5 Q18 275 18 354 Q18 433 20.5 499 Q23 565 39 612.5 Q55 660 89.5 686.5 Q124 713 188 713 Q252 713 287 686.5 Q322 660 338 612.5 Q354 565 356.5 499 Q359 433 359 354 Q359 275 356.5 208.5 Q354 142 338 93.5 Q322 45 287 17.5 Q252 -10 188 -10 Z M188 125 Q205 125 214.5 134.5 Q224 144 228.5 169.5 Q233 195 234 239.5 Q235 284 235 354 Q235 424 234 468 Q233 512 228.5 537 Q224 562 214.5 571 Q205 580 188 580 Q171 580 162 571 Q153 562 148.5 537 Q144 512 143 468 Q142 424 142 354 Q142 284 143 239.5 Q144 195 148.5 169.5 Q153 144 162 134.5 Q171 125 188 125 Z M181 818 Q189 829 192.5 832 Q196 835 204 835 L297 835 Q312 835 312 821 Q312 812 301 804 L228 742 Q222 736 218.5 734 Q215 732 205 732 L139 732 Q128 732 128 742 Q128 749 133 755 L181 818 Z " />
<glyph glyph-name="ocircumflex" unicode="&#xf4;" horiz-adv-x="377" d="M188 -10 Q124 -10 89.5 17.5 Q55 45 39 93.5 Q23 142 20.5 208.5 Q18 275 18 354 Q18 433 20.5 499 Q23 565 39 612.5 Q55 660 89.5 686.5 Q124 713 188 713 Q252 713 287 686.5 Q322 660 338 612.5 Q354 565 356.5 499 Q359 433 359 354 Q359 275 356.5 208.5 Q354 142 338 93.5 Q322 45 287 17.5 Q252 -10 188 -10 Z M188 125 Q205 125 214.5 134.5 Q224 144 228.5 169.5 Q233 195 234 239.5 Q235 284 235 354 Q235 424 234 468 Q233 512 228.5 537 Q224 562 214.5 571 Q205 580 188 580 Q171 580 162 571 Q153 562 148.5 537 Q144 512 143 468 Q142 424 142 354 Q142 284 143 239.5 Q144 195 148.5 169.5 Q153 144 162 134.5 Q171 125 188 125 Z M105 818 Q110 828 115.5 831.5 Q121 835 134 835 L243 835 Q256 835 261 831.5 Q266 828 271 818 L307 749 Q308 747 309 744.5 Q310 742 310 740 Q310 732 300 732 L243 732 Q235 732 230 733.5 Q225 735 219 743 L188 783 L158 743 Q152 735 146.5 733.5 Q141 732 134 732 L77 732 Q67 732 67 740 Q67 743 69 749 L105 818 Z " />
<glyph glyph-name="otilde" unicode="&#xf5;" horiz-adv-x="377" d="M188 -10 Q124 -10 89.5 17.5 Q55 45 39 93.5 Q23 142 20.5 208.5 Q18 275 18 354 Q18 433 20.5 499 Q23 565 39 612.5 Q55 660 89.5 686.5 Q124 713 188 713 Q252 713 287 686.5 Q322 660 338 612.5 Q354 565 356.5 499 Q359 433 359 354 Q359 275 356.5 208.5 Q354 142 338 93.5 Q322 45 287 17.5 Q252 -10 188 -10 Z M188 125 Q205 125 214.5 134.5 Q224 144 228.5 169.5 Q233 195 234 239.5 Q235 284 235 354 Q235 424 234 468 Q233 512 228.5 537 Q224 562 214.5 571 Q205 580 188 580 Q171 580 162 571 Q153 562 148.5 537 Q144 512 143 468 Q142 424 142 354 Q142 284 143 239.5 Q144 195 148.5 169.5 Q153 144 162 134.5 Q171 125 188 125 Z M64 805 Q64 818 69.5 826.5 Q75 835 91 835 L133 835 Q138 835 142.5 834 Q147 833 151 832 L226 809 Q233 806 239 806 Q243 806 243 813 L243 818 Q243 826 248.5 830.5 Q254 835 260 835 L286 835 Q303 835 308 828.5 Q313 822 313 807 L313 762 Q313 749 308 740.5 Q303 732 286 732 L244 732 Q239 732 234.5 733 Q230 734 226 735 L151 758 Q143 761 138 761 Q134 761 134 754 L134 749 Q134 741 129 736.5 Q124 732 117 732 L91 732 Q75 732 69.5 738.5 Q64 745 64 760 L64 805 Z " />
<glyph glyph-name="odieresis" unicode="&#xf6;" horiz-adv-x="377" d="M188 -10 Q124 -10 89.5 17.5 Q55 45 39 93.5 Q23 142 20.5 208.5 Q18 275 18 354 Q18 433 20.5 499 Q23 565 39 612.5 Q55 660 89.5 686.5 Q124 713 188 713 Q252 713 287 686.5 Q322 660 338 612.5 Q354 565 356.5 499 Q359 433 359 354 Q359 275 356.5 208.5 Q354 142 338 93.5 Q322 45 287 17.5 Q252 -10 188 -10 Z M188 125 Q205 125 214.5 134.5 Q224 144 228.5 169.5 Q233 195 234 239.5 Q235 284 235 354 Q235 424 234 468 Q233 512 228.5 537 Q224 562 214.5 571 Q205 580 188 580 Q171 580 162 571 Q153 562 148.5 537 Q144 512 143 468 Q142 424 142 354 Q142 284 143 239.5 Q144 195 148.5 169.5 Q153 144 162 134.5 Q171 125 188 125 Z M205 805 Q205 823 211 830.5 Q217 838 237 838 L268 838 Q288 838 294.5 830.5 Q301 823 301 805 L301 765 Q301 747 294.5 739.5 Q288 732 268 732 L237 732 Q217 732 211 739.5 Q205 747 205 765 L205 805 Z M77 805 Q77 823 83 830.5 Q89 838 109 838 L140 838 Q160 838 166.5 830.5 Q173 823 173 805 L173 765 Q173 747 166.5 739.5 Q160 732 140 732 L109 732 Q89 732 83 739.5 Q77 747 77 765 L77 805 Z " />
<glyph glyph-name="omacron" unicode="&#x14d;" horiz-adv-x="377" d="M188 -10 Q124 -10 89.5 17.5 Q55 45 39 93.5 Q23 142 20.5 208.5 Q18 275 18 354 Q18 433 20.5 499 Q23 565 39 612.5 Q55 660 89.5 686.5 Q124 713 188 713 Q252 713 287 686.5 Q322 660 338 612.5 Q354 565 356.5 499 Q359 433 359 354 Q359 275 356.5 208.5 Q354 142 338 93.5 Q322 45 287 17.5 Q252 -10 188 -10 Z M188 125 Q205 125 214.5 134.5 Q224 144 228.5 169.5 Q233 195 234 239.5 Q235 284 235 354 Q235 424 234 468 Q233 512 228.5 537 Q224 562 214.5 571 Q205 580 188 580 Q171 580 162 571 Q153 562 148.5 537 Q144 512 143 468 Q142 424 142 354 Q142 284 143 239.5 Q144 195 148.5 169.5 Q153 144 162 134.5 Q171 125 188 125 Z M70 791 Q70 814 81 819 Q92 824 118 824 L261 824 Q287 824 297.5 819 Q308 814 308 791 L308 765 Q308 742 297.5 737 Q287 732 261 732 L118 732 Q92 732 81 737 Q70 742 70 765 L70 791 Z " />
<glyph glyph-name="ohungarumlaut" unicode="&#x151;" horiz-adv-x="377" d="M188 -10 Q124 -10 89.5 17.5 Q55 45 39 93.5 Q23 142 20.5 208.5 Q18 275 18 354 Q18 433 20.5 499 Q23 565 39 612.5 Q55 660 89.5 686.5 Q124 713 188 713 Q252 713 287 686.5 Q322 660 338 612.5 Q354 565 356.5 499 Q359 433 359 354 Q359 275 356.5 208.5 Q354 142 338 93.5 Q322 45 287 17.5 Q252 -10 188 -10 Z M188 125 Q205 125 214.5 134.5 Q224 144 228.5 169.5 Q233 195 234 239.5 Q235 284 235 354 Q235 424 234 468 Q233 512 228.5 537 Q224 562 214.5 571 Q205 580 188 580 Q171 580 162 571 Q153 562 148.5 537 Q144 512 143 468 Q142 424 142 354 Q142 284 143 239.5 Q144 195 148.5 169.5 Q153 144 162 134.5 Q171 125 188 125 Z M242 813 Q250 827 252.5 831 Q255 835 263 835 L323 835 Q331 835 334.5 828.5 Q338 822 331 814 L274 748 Q266 738 262.5 735 Q259 732 251 732 L212 732 Q207 732 204 738.5 Q201 745 207 755 L242 813 Z M133 813 Q141 825 144.5 830 Q148 835 156 835 L214 835 Q222 835 225.5 828 Q229 821 223 814 L165 748 Q157 738 153.5 735 Q150 732 142 732 L104 732 Q98 732 94.5 738.5 Q91 745 97 755 L133 813 Z " />
<glyph glyph-name="oslash" unicode="&#xf8;" horiz-adv-x="377" d="M37 99 Q23 148 20.5 213 Q18 278 18 354 Q18 433 20.5 499 Q23 565 39 612.5 Q55 660 89.5 686.5 Q124 713 188 713 Q230 713 258 701.5 Q286 690 306 670 L315 689 Q321 700 325 703 Q329 706 341 706 L362 706 Q373 706 379 702.5 Q385 699 378 685 L340 604 Q354 557 356.5 493.5 Q359 430 359 354 Q359 275 356.5 208.5 Q354 142 338 93.5 Q322 45 287 17.5 Q252 -10 188 -10 Q146 -10 117 2 Q88 14 69 37 L59 16 Q54 6 50 3 Q46 0 38 0 L15 0 Q0 0 -2 5 Q-4 10 2 24 L37 99 Z M232 512 Q227 552 218 566 Q209 580 188 580 Q171 580 161 571 Q151 562 145.5 537 Q140 512 139.5 468 Q139 424 141 354 L142 321 L232 512 Z M235 385 L145 196 Q148 155 158 140 Q168 125 188 125 Q205 125 214.5 134.5 Q224 144 228.5 169.5 Q233 195 234 239.5 Q235 284 235 354 L235 385 Z " />
<glyph glyph-name="oe" unicode="&#x153;" horiz-adv-x="532" d="M285 0 Q270 0 260 5 Q244 -2 225 -6 Q206 -10 183 -10 Q119 -10 84.5 17.5 Q50 45 34 93.5 Q18 142 15.5 208.5 Q13 275 13 354 Q13 433 15.5 499 Q18 565 34 612.5 Q50 660 84.5 686.5 Q119 713 183 713 Q228 713 260 698 Q268 706 285 706 L485 706 Q505 706 511.5 698 Q518 690 518 664 L518 625 Q518 599 511.5 590 Q505 581 485 581 L381 581 Q369 581 365.5 576.5 Q362 572 362 558 L362 459 Q362 444 364.5 440.5 Q367 437 381 437 L434 437 Q451 437 457.5 430 Q464 423 464 401 L464 347 Q464 327 457.5 319.5 Q451 312 434 312 L381 312 Q370 312 366 309 Q362 306 362 296 L362 148 Q362 135 366 130 Q370 125 384 125 L489 125 Q510 125 518.5 115 Q527 105 527 79 L527 45 Q527 21 518.5 10.5 Q510 0 491 0 L285 0 Z M183 125 Q200 125 209.5 134.5 Q219 144 223.5 169.5 Q228 195 229 239.5 Q230 284 230 354 Q230 424 229 468 Q228 512 223.5 537 Q219 562 209.5 571 Q200 580 183 580 Q166 580 156.5 571 Q147 562 142 537 Q137 512 136 468 Q135 424 135 354 Q135 284 136 239.5 Q137 195 142 169.5 Q147 144 156.5 134.5 Q166 125 183 125 Z " />
<glyph glyph-name="racute" unicode="&#x155;" horiz-adv-x="371" d="M28 658 Q28 685 35.5 695.5 Q43 706 63 706 L215 706 Q360 706 360 488 Q360 428 347 391.5 Q334 355 303 329 L364 29 Q365 24 365.5 20.5 Q366 17 366 15 Q366 0 347 0 L264 0 Q250 0 244.5 5.5 Q239 11 236 31 L193 285 Q191 292 188 293 Q185 294 180 294 L165 294 Q160 294 156.5 293 Q153 292 153 284 L153 44 Q153 21 145.5 10.5 Q138 0 118 0 L61 0 Q41 0 34.5 9.5 Q28 19 28 45 L28 658 Z M199 419 Q218 419 227.5 438.5 Q237 458 237 504 Q237 549 227.5 565 Q218 581 201 581 L167 581 Q161 581 157 576.5 Q153 572 153 566 L153 438 Q153 419 164 419 L199 419 Z M162 818 Q170 829 173.5 832 Q177 835 185 835 L278 835 Q293 835 293 821 Q293 812 282 804 L209 742 Q203 736 199.5 734 Q196 732 186 732 L120 732 Q109 732 109 742 Q109 749 114 755 L162 818 Z " />
<glyph glyph-name="rcaron" unicode="&#x159;" horiz-adv-x="371" d="M28 658 Q28 685 35.5 695.5 Q43 706 63 706 L215 706 Q360 706 360 488 Q360 428 347 391.5 Q334 355 303 329 L364 29 Q365 24 365.5 20.5 Q366 17 366 15 Q366 0 347 0 L264 0 Q250 0 244.5 5.5 Q239 11 236 31 L193 285 Q191 292 188 293 Q185 294 180 294 L165 294 Q160 294 156.5 293 Q153 292 153 284 L153 44 Q153 21 145.5 10.5 Q138 0 118 0 L61 0 Q41 0 34.5 9.5 Q28 19 28 45 L28 658 Z M199 419 Q218 419 227.5 438.5 Q237 458 237 504 Q237 549 227.5 565 Q218 581 201 581 L167 581 Q161 581 157 576.5 Q153 572 153 566 L153 438 Q153 419 164 419 L199 419 Z M67 818 Q65 824 65 827 Q65 835 75 835 L132 835 Q139 835 144.5 833.5 Q150 832 156 824 L187 784 L216 824 Q223 832 228 833.5 Q233 835 241 835 L298 835 Q307 835 307 827 Q307 821 305 818 L269 748 Q264 738 259 735 Q254 732 241 732 L132 732 Q119 732 113.5 735 Q108 738 103 748 L67 818 Z " />
<glyph glyph-name="rcommaaccent" unicode="&#x157;" horiz-adv-x="371" d="M28 658 Q28 685 35.5 695.5 Q43 706 63 706 L215 706 Q360 706 360 488 Q360 428 347 391.5 Q334 355 303 329 L364 29 Q365 24 365.5 20.5 Q366 17 366 15 Q366 0 347 0 L264 0 Q250 0 244.5 5.5 Q239 11 236 31 L193 285 Q191 292 188 293 Q185 294 180 294 L165 294 Q160 294 156.5 293 Q153 292 153 284 L153 44 Q153 21 145.5 10.5 Q138 0 118 0 L61 0 Q41 0 34.5 9.5 Q28 19 28 45 L28 658 Z M199 419 Q218 419 227.5 438.5 Q237 458 237 504 Q237 549 227.5 565 Q218 581 201 581 L167 581 Q161 581 157 576.5 Q153 572 153 566 L153 438 Q153 419 164 419 L199 419 Z M166 -148 Q168 -142 168.5 -135.5 Q169 -129 162 -129 L155 -129 Q144 -129 140 -121.5 Q136 -114 136 -90 L136 -72 Q136 -46 143.5 -35.5 Q151 -25 171 -25 L214 -25 Q232 -25 239.5 -35 Q247 -45 247 -69 L247 -91 Q247 -105 246.5 -112.5 Q246 -120 244 -128 L218 -208 Q211 -229 195 -229 L156 -229 Q146 -229 143 -225 Q140 -221 144 -208 L166 -148 Z " />
<glyph glyph-name="sacute" unicode="&#x15b;" horiz-adv-x="322" d="M10 80 Q10 108 17 116.5 Q24 125 44 125 L153 125 Q176 125 180.5 142.5 Q185 160 176 177 L56 402 Q38 435 28.5 461 Q19 487 14 508 Q9 529 8 546 Q7 563 7 578 Q7 650 39.5 678 Q72 706 138 706 L259 706 Q289 706 289 668 L289 621 Q289 598 281 589.5 Q273 581 256 581 L162 581 Q136 581 130.5 561 Q125 541 138 518 L252 310 Q273 271 285.5 243 Q298 215 305 192.5 Q312 170 314 151.5 Q316 133 316 113 Q316 50 285 25 Q254 0 203 0 L45 0 Q25 0 17.5 8.5 Q10 17 10 43 L10 80 Z M143 818 Q151 829 154.5 832 Q158 835 166 835 L259 835 Q274 835 274 821 Q274 812 263 804 L190 742 Q184 736 180.5 734 Q177 732 167 732 L101 732 Q90 732 90 742 Q90 749 95 755 L143 818 Z " />
<glyph glyph-name="scaron" unicode="&#x161;" horiz-adv-x="322" d="M10 80 Q10 108 17 116.5 Q24 125 44 125 L153 125 Q176 125 180.5 142.5 Q185 160 176 177 L56 402 Q38 435 28.5 461 Q19 487 14 508 Q9 529 8 546 Q7 563 7 578 Q7 650 39.5 678 Q72 706 138 706 L259 706 Q289 706 289 668 L289 621 Q289 598 281 589.5 Q273 581 256 581 L162 581 Q136 581 130.5 561 Q125 541 138 518 L252 310 Q273 271 285.5 243 Q298 215 305 192.5 Q312 170 314 151.5 Q316 133 316 113 Q316 50 285 25 Q254 0 203 0 L45 0 Q25 0 17.5 8.5 Q10 17 10 43 L10 80 Z M39 818 Q37 824 37 827 Q37 835 47 835 L104 835 Q111 835 116.5 833.5 Q122 832 128 824 L159 784 L188 824 Q195 832 200 833.5 Q205 835 213 835 L270 835 Q279 835 279 827 Q279 821 277 818 L241 748 Q236 738 231 735 Q226 732 213 732 L104 732 Q91 732 85.5 735 Q80 738 75 748 L39 818 Z " />
<glyph glyph-name="scedilla" unicode="&#x15f;" horiz-adv-x="320" d="M78 -79 Q78 -60 86.5 -53.5 Q95 -47 120 -47 L142 -47 Q156 -47 156 -31 Q156 -26 154 -19 Q152 -12 149 0 L43 0 Q23 0 15.5 8.5 Q8 17 8 43 L8 80 Q8 108 15 116.5 Q22 125 42 125 L151 125 Q166 125 173 133 Q180 141 180 152 Q180 165 174 177 L54 402 Q36 435 26.5 461 Q17 487 12 508 Q7 529 6 546 Q5 563 5 578 Q5 650 37.5 678 Q70 706 136 706 L257 706 Q287 706 287 668 L287 621 Q287 598 279 589.5 Q271 581 254 581 L160 581 Q143 581 135 572.5 Q127 564 127 550 Q127 536 136 518 L250 310 Q271 271 283.5 243 Q296 215 303 192.5 Q310 170 312 151.5 Q314 133 314 113 Q314 50 283 25 Q252 0 201 0 Q206 -20 207 -32.5 Q208 -45 208 -58 Q208 -98 193.5 -121.5 Q179 -145 153 -145 L115 -145 Q92 -145 85 -137.5 Q78 -130 78 -103 L78 -79 Z " />
<glyph glyph-name="scommaaccent" unicode="&#x219;" horiz-adv-x="322" d="M10 80 Q10 108 17 116.5 Q24 125 44 125 L153 125 Q176 125 180.5 142.5 Q185 160 176 177 L56 402 Q38 435 28.5 461 Q19 487 14 508 Q9 529 8 546 Q7 563 7 578 Q7 650 39.5 678 Q72 706 138 706 L259 706 Q289 706 289 668 L289 621 Q289 598 281 589.5 Q273 581 256 581 L162 581 Q136 581 130.5 561 Q125 541 138 518 L252 310 Q273 271 285.5 243 Q298 215 305 192.5 Q312 170 314 151.5 Q316 133 316 113 Q316 50 285 25 Q254 0 203 0 L45 0 Q25 0 17.5 8.5 Q10 17 10 43 L10 80 Z M138 -148 Q140 -142 140.5 -135.5 Q141 -129 134 -129 L127 -129 Q116 -129 112 -121.5 Q108 -114 108 -90 L108 -72 Q108 -46 115.5 -35.5 Q123 -25 143 -25 L186 -25 Q204 -25 211.5 -35 Q219 -45 219 -69 L219 -91 Q219 -105 218.5 -112.5 Q218 -120 216 -128 L190 -208 Q183 -229 167 -229 L128 -229 Q118 -229 115 -225 Q112 -221 116 -208 L138 -148 Z " />
<glyph glyph-name="germandbls" unicode="&#xdf;" horiz-adv-x="404" d="M28 660 Q28 686 35 696 Q42 706 61 706 L281 706 Q315 706 335.5 692 Q356 678 367 654 Q378 630 382 597.5 Q386 565 386 528 Q386 461 372.5 424 Q359 387 329 368 Q361 355 378.5 310 Q396 265 396 190 Q396 149 390.5 114.5 Q385 80 372 54.5 Q359 29 337 14.5 Q315 0 281 0 L199 0 Q188 0 184 4 Q180 8 180 21 L180 98 Q180 111 184 118 Q188 125 199 125 L217 125 Q249 125 259 143 Q269 161 269 213 Q269 241 266 259 Q263 277 256.5 287 Q250 297 240.5 300 Q231 303 218 303 L212 302 Q201 302 197.5 306 Q194 310 194 323 L194 401 Q194 414 197.5 420.5 Q201 427 212 427 L217 427 Q246 427 254 443.5 Q262 460 262 504 Q262 529 259 544 Q256 559 250 567 Q244 575 236 578 Q228 581 218 581 L169 581 Q158 581 154.5 577 Q151 573 151 560 L151 48 Q151 20 144.5 10 Q138 0 118 0 L61 0 Q41 0 34.5 10 Q28 20 28 48 L28 660 Z " />
<glyph glyph-name="tcaron" unicode="&#x165;" horiz-adv-x="333" d="M104 560 Q104 574 100 577.5 Q96 581 90 581 L35 581 Q16 581 9.5 589 Q3 597 3 623 L3 659 Q3 687 10.5 696.5 Q18 706 38 706 L296 706 Q316 706 323 696.5 Q330 687 330 663 L330 624 Q330 598 323.5 589.5 Q317 581 297 581 L242 581 Q234 581 231.5 577 Q229 573 229 560 L229 47 Q229 19 222 9.5 Q215 0 195 0 L140 0 Q118 0 111 9 Q104 18 104 43 L104 560 Z M47 818 Q45 824 45 827 Q45 835 55 835 L112 835 Q119 835 124.5 833.5 Q130 832 136 824 L167 784 L196 824 Q203 832 208 833.5 Q213 835 221 835 L278 835 Q287 835 287 827 Q287 821 285 818 L249 748 Q244 738 239 735 Q234 732 221 732 L112 732 Q99 732 93.5 735 Q88 738 83 748 L47 818 Z " />
<glyph glyph-name="tcommaaccent" unicode="&#x163;" horiz-adv-x="333" d="M104 560 Q104 574 100 577.5 Q96 581 90 581 L35 581 Q16 581 9.5 589 Q3 597 3 623 L3 659 Q3 687 10.5 696.5 Q18 706 38 706 L296 706 Q316 706 323 696.5 Q330 687 330 663 L330 624 Q330 598 323.5 589.5 Q317 581 297 581 L242 581 Q234 581 231.5 577 Q229 573 229 560 L229 47 Q229 19 222 9.5 Q215 0 195 0 L140 0 Q118 0 111 9 Q104 18 104 43 L104 560 Z M73 -79 Q73 -60 81 -53.5 Q89 -47 114 -47 L136 -47 Q150 -47 150 -31 Q150 -24 146.5 -11 Q143 2 135 28 L186 28 Q197 -7 200 -24 Q203 -41 203 -58 Q203 -98 188.5 -121.5 Q174 -145 148 -145 L110 -145 Q86 -145 79.5 -137.5 Q73 -130 73 -103 L73 -79 Z " />
<glyph glyph-name="uni021B" unicode="&#x21b;" horiz-adv-x="333" d="M104 560 Q104 574 100 577.5 Q96 581 90 581 L35 581 Q16 581 9.5 589 Q3 597 3 623 L3 659 Q3 687 10.5 696.5 Q18 706 38 706 L296 706 Q316 706 323 696.5 Q330 687 330 663 L330 624 Q330 598 323.5 589.5 Q317 581 297 581 L242 581 Q234 581 231.5 577 Q229 573 229 560 L229 47 Q229 19 222 9.5 Q215 0 195 0 L140 0 Q118 0 111 9 Q104 18 104 43 L104 560 Z M141 -148 Q143 -142 143.5 -135.5 Q144 -129 137 -129 L130 -129 Q119 -129 115 -121.5 Q111 -114 111 -90 L111 -72 Q111 -46 118.5 -35.5 Q126 -25 146 -25 L189 -25 Q207 -25 214.5 -35 Q222 -45 222 -69 L222 -91 Q222 -105 221.5 -112.5 Q221 -120 219 -128 L193 -208 Q186 -229 170 -229 L131 -229 Q121 -229 118 -225 Q115 -221 119 -208 L141 -148 Z " />
<glyph glyph-name="ugrave" unicode="&#xf9;" horiz-adv-x="383" d="M21 659 Q21 686 29 696 Q37 706 58 706 L114 706 Q134 706 140 697 Q146 688 146 662 L146 180 Q146 151 156.5 138 Q167 125 193 125 Q216 125 226.5 138 Q237 151 237 181 L237 662 Q237 688 243.5 697 Q250 706 271 706 L329 706 Q350 706 356 697 Q362 688 362 662 L362 201 Q362 158 356 119.5 Q350 81 332 52.5 Q314 24 280 7 Q246 -10 189 -10 Q136 -10 103.5 4 Q71 18 52.5 44.5 Q34 71 27.5 109 Q21 147 21 196 L21 659 Z M75 804 Q64 813 64 821 Q64 835 79 835 L172 835 Q180 835 184 832 Q188 829 196 818 L243 755 Q248 749 248 742 Q248 732 237 732 L171 732 Q162 732 158 734 Q154 736 148 742 L75 804 Z " />
<glyph glyph-name="uacute" unicode="&#xfa;" horiz-adv-x="383" d="M21 659 Q21 686 29 696 Q37 706 58 706 L114 706 Q134 706 140 697 Q146 688 146 662 L146 180 Q146 151 156.5 138 Q167 125 193 125 Q216 125 226.5 138 Q237 151 237 181 L237 662 Q237 688 243.5 697 Q250 706 271 706 L329 706 Q350 706 356 697 Q362 688 362 662 L362 201 Q362 158 356 119.5 Q350 81 332 52.5 Q314 24 280 7 Q246 -10 189 -10 Q136 -10 103.5 4 Q71 18 52.5 44.5 Q34 71 27.5 109 Q21 147 21 196 L21 659 Z M189 818 Q197 829 200.5 832 Q204 835 212 835 L305 835 Q320 835 320 821 Q320 812 309 804 L236 742 Q230 736 226.5 734 Q223 732 213 732 L147 732 Q136 732 136 742 Q136 749 141 755 L189 818 Z " />
<glyph glyph-name="ucircumflex" unicode="&#xfb;" horiz-adv-x="383" d="M21 659 Q21 686 29 696 Q37 706 58 706 L114 706 Q134 706 140 697 Q146 688 146 662 L146 180 Q146 151 156.5 138 Q167 125 193 125 Q216 125 226.5 138 Q237 151 237 181 L237 662 Q237 688 243.5 697 Q250 706 271 706 L329 706 Q350 706 356 697 Q362 688 362 662 L362 201 Q362 158 356 119.5 Q350 81 332 52.5 Q314 24 280 7 Q246 -10 189 -10 Q136 -10 103.5 4 Q71 18 52.5 44.5 Q34 71 27.5 109 Q21 147 21 196 L21 659 Z M109 818 Q114 828 119.5 831.5 Q125 835 138 835 L247 835 Q260 835 265 831.5 Q270 828 275 818 L311 749 Q312 747 313 744.5 Q314 742 314 740 Q314 732 304 732 L247 732 Q239 732 234 733.5 Q229 735 223 743 L192 783 L162 743 Q156 735 150.5 733.5 Q145 732 138 732 L81 732 Q71 732 71 740 Q71 743 73 749 L109 818 Z " />
<glyph glyph-name="udieresis" unicode="&#xfc;" horiz-adv-x="383" d="M21 659 Q21 686 29 696 Q37 706 58 706 L114 706 Q134 706 140 697 Q146 688 146 662 L146 180 Q146 151 156.5 138 Q167 125 193 125 Q216 125 226.5 138 Q237 151 237 181 L237 662 Q237 688 243.5 697 Q250 706 271 706 L329 706 Q350 706 356 697 Q362 688 362 662 L362 201 Q362 158 356 119.5 Q350 81 332 52.5 Q314 24 280 7 Q246 -10 189 -10 Q136 -10 103.5 4 Q71 18 52.5 44.5 Q34 71 27.5 109 Q21 147 21 196 L21 659 Z M208 805 Q208 823 214 830.5 Q220 838 240 838 L271 838 Q291 838 297.5 830.5 Q304 823 304 805 L304 765 Q304 747 297.5 739.5 Q291 732 271 732 L240 732 Q220 732 214 739.5 Q208 747 208 765 L208 805 Z M80 805 Q80 823 86 830.5 Q92 838 112 838 L143 838 Q163 838 169.5 830.5 Q176 823 176 805 L176 765 Q176 747 169.5 739.5 Q163 732 143 732 L112 732 Q92 732 86 739.5 Q80 747 80 765 L80 805 Z " />
<glyph glyph-name="umacron" unicode="&#x16b;" horiz-adv-x="383" d="M21 659 Q21 686 29 696 Q37 706 58 706 L114 706 Q134 706 140 697 Q146 688 146 662 L146 180 Q146 151 156.5 138 Q167 125 193 125 Q216 125 226.5 138 Q237 151 237 181 L237 662 Q237 688 243.5 697 Q250 706 271 706 L329 706 Q350 706 356 697 Q362 688 362 662 L362 201 Q362 158 356 119.5 Q350 81 332 52.5 Q314 24 280 7 Q246 -10 189 -10 Q136 -10 103.5 4 Q71 18 52.5 44.5 Q34 71 27.5 109 Q21 147 21 196 L21 659 Z M73 791 Q73 814 84 819 Q95 824 121 824 L264 824 Q290 824 300.5 819 Q311 814 311 791 L311 765 Q311 742 300.5 737 Q290 732 264 732 L121 732 Q95 732 84 737 Q73 742 73 765 L73 791 Z " />
<glyph glyph-name="uring" unicode="&#x16f;" horiz-adv-x="383" d="M21 659 Q21 686 29 696 Q37 706 58 706 L114 706 Q134 706 140 697 Q146 688 146 662 L146 180 Q146 151 156.5 138 Q167 125 193 125 Q216 125 226.5 138 Q237 151 237 181 L237 662 Q237 688 243.5 697 Q250 706 271 706 L329 706 Q350 706 356 697 Q362 688 362 662 L362 201 Q362 158 356 119.5 Q350 81 332 52.5 Q314 24 280 7 Q246 -10 189 -10 Q136 -10 103.5 4 Q71 18 52.5 44.5 Q34 71 27.5 109 Q21 147 21 196 L21 659 Z M193 715 Q157 715 132.5 740.5 Q108 766 108 803 Q108 843 132 868.5 Q156 894 193 894 Q229 894 252.5 868.5 Q276 843 276 802 Q276 764 252 739.5 Q228 715 193 715 Z M193 764 Q207 764 216.5 774.5 Q226 785 226 801 Q226 818 216.5 829 Q207 840 193 840 Q178 840 168.5 829.5 Q159 819 159 802 Q159 785 168.5 774.5 Q178 764 193 764 Z " />
<glyph glyph-name="uhungarumlaut" unicode="&#x171;" horiz-adv-x="383" d="M21 659 Q21 686 29 696 Q37 706 58 706 L114 706 Q134 706 140 697 Q146 688 146 662 L146 180 Q146 151 156.5 138 Q167 125 193 125 Q216 125 226.5 138 Q237 151 237 181 L237 662 Q237 688 243.5 697 Q250 706 271 706 L329 706 Q350 706 356 697 Q362 688 362 662 L362 201 Q362 158 356 119.5 Q350 81 332 52.5 Q314 24 280 7 Q246 -10 189 -10 Q136 -10 103.5 4 Q71 18 52.5 44.5 Q34 71 27.5 109 Q21 147 21 196 L21 659 Z M237 813 Q245 827 247.5 831 Q250 835 258 835 L318 835 Q326 835 329.5 828.5 Q333 822 326 814 L269 748 Q261 738 257.5 735 Q254 732 246 732 L207 732 Q202 732 199 738.5 Q196 745 202 755 L237 813 Z M128 813 Q136 825 139.5 830 Q143 835 151 835 L209 835 Q217 835 220.5 828 Q224 821 218 814 L160 748 Q152 738 148.5 735 Q145 732 137 732 L99 732 Q93 732 89.5 738.5 Q86 745 92 755 L128 813 Z " />
<glyph glyph-name="uogonek" unicode="&#x173;" horiz-adv-x="383" d="M320 -111 Q320 -138 313.5 -146.5 Q307 -155 283 -155 L231 -155 Q202 -155 182.5 -138 Q163 -121 163 -95 Q163 -68 175 -48.5 Q187 -29 213 -9 Q207 -10 201 -10 Q195 -10 189 -10 Q136 -10 103.5 4 Q71 18 52.5 44.5 Q34 71 27.5 109 Q21 147 21 196 L21 659 Q21 686 29 696 Q37 706 58 706 L114 706 Q134 706 140 697 Q146 688 146 662 L146 180 Q146 151 156.5 138 Q167 125 193 125 Q216 125 226.5 138 Q237 151 237 181 L237 662 Q237 688 243.5 697 Q250 706 271 706 L329 706 Q350 706 356 697 Q362 688 362 662 L362 201 Q362 142 350.5 95.5 Q339 49 301 18 Q272 -5 262 -20.5 Q252 -36 252 -47 Q252 -63 274 -63 L279 -63 Q304 -63 312 -70 Q320 -77 320 -96 L320 -111 Z " />
<glyph glyph-name="yacute" unicode="&#xfd;" horiz-adv-x="364" d="M120 270 L3 669 Q-1 682 2 694 Q5 706 22 706 L93 706 Q104 706 110 701.5 Q116 697 121 680 L175 451 Q177 443 178 441 Q179 439 182 439 Q185 439 186 441 Q187 443 189 451 L243 680 Q248 697 254 701.5 Q260 706 271 706 L342 706 Q359 706 362 694 Q365 682 361 669 L244 270 L244 45 Q244 17 237.5 8.5 Q231 0 209 0 L154 0 Q133 0 126.5 8.5 Q120 17 120 45 L120 270 Z M159 818 Q167 829 170.5 832 Q174 835 182 835 L275 835 Q290 835 290 821 Q290 812 279 804 L206 742 Q200 736 196.5 734 Q193 732 183 732 L117 732 Q106 732 106 742 Q106 749 111 755 L159 818 Z " />
<glyph glyph-name="ydieresis" unicode="&#xff;" horiz-adv-x="364" d="M120 270 L3 669 Q-1 682 2 694 Q5 706 22 706 L93 706 Q104 706 110 701.5 Q116 697 121 680 L175 451 Q177 443 178 441 Q179 439 182 439 Q185 439 186 441 Q187 443 189 451 L243 680 Q248 697 254 701.5 Q260 706 271 706 L342 706 Q359 706 362 694 Q365 682 361 669 L244 270 L244 45 Q244 17 237.5 8.5 Q231 0 209 0 L154 0 Q133 0 126.5 8.5 Q120 17 120 45 L120 270 Z M201 805 Q201 823 207 830.5 Q213 838 233 838 L264 838 Q284 838 290.5 830.5 Q297 823 297 805 L297 765 Q297 747 290.5 739.5 Q284 732 264 732 L233 732 Q213 732 207 739.5 Q201 747 201 765 L201 805 Z M73 805 Q73 823 79 830.5 Q85 838 105 838 L136 838 Q156 838 162.5 830.5 Q169 823 169 805 L169 765 Q169 747 162.5 739.5 Q156 732 136 732 L105 732 Q85 732 79 739.5 Q73 747 73 765 L73 805 Z " />
<glyph glyph-name="zacute" unicode="&#x17a;" horiz-adv-x="329" d="M8 122 Q8 128 8 134 Q8 140 9 148 Q10 156 13.5 167 Q17 178 25 195 L194 562 Q198 570 196 575.5 Q194 581 185 581 L53 581 Q41 581 34.5 582.5 Q28 584 24 588.5 Q20 593 19 601.5 Q18 610 18 624 L18 661 Q18 688 24 697 Q30 706 52 706 L288 706 Q320 706 320 664 L320 576 Q320 566 316.5 553.5 Q313 541 305 522 L136 150 Q131 141 133 133 Q135 125 146 125 L287 125 Q307 125 314 116 Q321 107 321 79 L321 43 Q321 18 313 9 Q305 0 282 0 L42 0 Q22 0 15 8 Q8 16 8 42 L8 122 Z M145 818 Q153 829 156.5 832 Q160 835 168 835 L261 835 Q276 835 276 821 Q276 812 265 804 L192 742 Q186 736 182.5 734 Q179 732 169 732 L103 732 Q92 732 92 742 Q92 749 97 755 L145 818 Z " />
<glyph glyph-name="zcaron" unicode="&#x17e;" horiz-adv-x="329" d="M8 122 Q8 128 8 134 Q8 140 9 148 Q10 156 13.5 167 Q17 178 25 195 L194 562 Q198 570 196 575.5 Q194 581 185 581 L53 581 Q41 581 34.5 582.5 Q28 584 24 588.5 Q20 593 19 601.5 Q18 610 18 624 L18 661 Q18 688 24 697 Q30 706 52 706 L288 706 Q320 706 320 664 L320 576 Q320 566 316.5 553.5 Q313 541 305 522 L136 150 Q131 141 133 133 Q135 125 146 125 L287 125 Q307 125 314 116 Q321 107 321 79 L321 43 Q321 18 313 9 Q305 0 282 0 L42 0 Q22 0 15 8 Q8 16 8 42 L8 122 Z M49 818 Q47 824 47 827 Q47 835 57 835 L114 835 Q121 835 126.5 833.5 Q132 832 138 824 L169 784 L198 824 Q205 832 210 833.5 Q215 835 223 835 L280 835 Q289 835 289 827 Q289 821 287 818 L251 748 Q246 738 241 735 Q236 732 223 732 L114 732 Q101 732 95.5 735 Q90 738 85 748 L49 818 Z " />
<glyph glyph-name="zdotaccent" unicode="&#x17c;" horiz-adv-x="329" d="M8 122 Q8 128 8 134 Q8 140 9 148 Q10 156 13.5 167 Q17 178 25 195 L194 562 Q198 570 196 575.5 Q194 581 185 581 L53 581 Q41 581 34.5 582.5 Q28 584 24 588.5 Q20 593 19 601.5 Q18 610 18 624 L18 661 Q18 688 24 697 Q30 706 52 706 L288 706 Q320 706 320 664 L320 576 Q320 566 316.5 553.5 Q313 541 305 522 L136 150 Q131 141 133 133 Q135 125 146 125 L287 125 Q307 125 314 116 Q321 107 321 79 L321 43 Q321 18 313 9 Q305 0 282 0 L42 0 Q22 0 15 8 Q8 16 8 42 L8 122 Z M117 805 Q117 823 123 830.5 Q129 838 149 838 L180 838 Q200 838 206.5 830.5 Q213 823 213 805 L213 765 Q213 747 206.5 739.5 Q200 732 180 732 L149 732 Q129 732 123 739.5 Q117 747 117 765 L117 805 Z " />
<glyph glyph-name="eth" unicode="&#xf0;" horiz-adv-x="409" d="M50 329 L48 329 Q22 329 11 334 Q0 339 0 362 L0 388 Q0 411 11 416 Q22 421 48 421 L50 421 L50 658 Q50 684 57 695 Q64 706 83 706 L264 706 Q308 706 333.5 687.5 Q359 669 371.5 627 Q384 585 387.5 517.5 Q391 450 391 353 Q391 238 386 168.5 Q381 99 366.5 61.5 Q352 24 326 12 Q300 0 258 0 L87 0 Q64 0 57 8 Q50 16 50 45 L50 329 Z M170 153 Q170 143 171 137.5 Q172 132 176 129 Q180 126 187.5 125.5 Q195 125 209 125 Q228 125 239.5 129 Q251 133 256.5 154 Q262 175 263.5 219 Q265 263 265 343 Q265 431 264 479.5 Q263 528 257.5 550.5 Q252 573 240 577 Q228 581 206 581 Q183 581 176.5 576 Q170 571 170 549 L170 421 L182 421 Q208 421 218.5 416 Q229 411 229 388 L229 362 Q229 339 218.5 334 Q208 329 182 329 L170 329 L170 153 Z " />
<glyph glyph-name="thorn" unicode="&#xfe;" horiz-adv-x="363" d="M29 660 Q29 688 35.5 697 Q42 706 62 706 L120 706 Q141 706 147 697.5 Q153 689 153 660 L153 594 L224 594 Q291 594 325.5 537 Q360 480 360 368 Q360 261 329.5 205.5 Q299 150 241 150 L152 150 L152 45 Q152 17 145.5 8.5 Q139 0 118 0 L61 0 Q40 0 34 8 Q28 16 28 45 L29 660 Z M203 275 Q211 275 217 278 Q223 281 227 291 Q231 301 233 319.5 Q235 338 235 369 Q235 401 233 421 Q231 441 226.5 451.5 Q222 462 215.5 465.5 Q209 469 200 469 L169 469 Q161 469 156.5 466 Q152 463 152 450 L152 293 Q152 282 156 278.5 Q160 275 168 275 L203 275 Z " />
<glyph glyph-name="ampersand" unicode="&#x26;" horiz-adv-x="417" d="M234 431 L234 451 Q234 465 241 474.5 Q248 484 266 484 L326 484 Q359 484 359 452 L359 430 L379 430 Q399 430 405.5 422.5 Q412 415 412 398 L412 338 Q412 318 404.5 311 Q397 304 381 304 L359 304 L359 197 Q359 138 354 99 Q349 60 331 36.5 Q313 13 278.5 3.5 Q244 -6 185 -6 Q130 -6 97 7 Q64 20 46.5 47.5 Q29 75 23.5 117.5 Q18 160 18 218 Q18 261 21.5 289 Q25 317 33 335 Q41 353 53.5 362 Q66 371 83 376 Q69 381 58 390 Q47 399 39.5 418 Q32 437 27.5 468 Q23 499 23 549 Q23 606 34 637.5 Q45 669 63.5 684 Q82 699 105 702.5 Q128 706 152 706 L309 706 Q346 706 346 671 L346 615 Q346 597 337 589 Q328 581 305 581 L185 581 Q144 581 144 545 L144 472 Q144 451 154 441 Q164 431 187 431 L234 431 Z M234 306 L175 306 Q161 306 152.5 296.5 Q144 287 144 270 L144 165 Q144 145 153 132.5 Q162 120 188 120 Q216 120 225 131.5 Q234 143 234 167 L234 306 Z " />
<glyph glyph-name="grave" unicode="&#x60;" horiz-adv-x="166" d="M-1 804 Q-12 813 -12 821 Q-12 835 3 835 L96 835 Q104 835 108 832 Q112 829 120 818 L167 755 Q172 749 172 742 Q172 732 161 732 L95 732 Q86 732 82 734 Q78 736 72 742 L-1 804 Z " />
<glyph glyph-name="acute" unicode="&#xb4;" horiz-adv-x="197" d="M50 818 Q58 829 61.5 832 Q65 835 73 835 L166 835 Q181 835 181 821 Q181 812 170 804 L97 742 Q91 736 87.5 734 Q84 732 74 732 L8 732 Q-3 732 -3 742 Q-3 749 2 755 L50 818 Z " />
<glyph glyph-name="circumflex" unicode="&#x2c6;" horiz-adv-x="251" d="M42 818 Q47 828 52.5 831.5 Q58 835 71 835 L180 835 Q193 835 198 831.5 Q203 828 208 818 L244 749 Q245 747 246 744.5 Q247 742 247 740 Q247 732 237 732 L180 732 Q172 732 167 733.5 Q162 735 156 743 L125 783 L95 743 Q89 735 83.5 733.5 Q78 732 71 732 L14 732 Q4 732 4 740 Q4 743 6 749 L42 818 Z " />
<glyph glyph-name="caron" unicode="&#x2c7;" horiz-adv-x="241" d="M2 818 Q0 824 0 827 Q0 835 10 835 L67 835 Q74 835 79.5 833.5 Q85 832 91 824 L122 784 L151 824 Q158 832 163 833.5 Q168 835 176 835 L233 835 Q242 835 242 827 Q242 821 240 818 L204 748 Q199 738 194 735 Q189 732 176 732 L67 732 Q54 732 48.5 735 Q43 738 38 748 L2 818 Z " />
<glyph glyph-name="commaaccent" unicode="&#xf6c3;" horiz-adv-x="200" d="M78 -148 Q80 -142 80.5 -135.5 Q81 -129 74 -129 L67 -129 Q56 -129 52 -121.5 Q48 -114 48 -90 L48 -72 Q48 -46 55.5 -35.5 Q63 -25 83 -25 L126 -25 Q144 -25 151.5 -35 Q159 -45 159 -69 L159 -91 Q159 -105 158.5 -112.5 Q158 -120 156 -128 L130 -208 Q123 -229 107 -229 L68 -229 Q58 -229 55 -225 Q52 -221 56 -208 L78 -148 Z " />
<glyph glyph-name="tilde" unicode="&#x2dc;" horiz-adv-x="259" d="M5 805 Q5 818 10.5 826.5 Q16 835 32 835 L74 835 Q79 835 83.5 834 Q88 833 92 832 L167 809 Q174 806 180 806 Q184 806 184 813 L184 818 Q184 826 189.5 830.5 Q195 835 201 835 L227 835 Q244 835 249 828.5 Q254 822 254 807 L254 762 Q254 749 249 740.5 Q244 732 227 732 L185 732 Q180 732 175.5 733 Q171 734 167 735 L92 758 Q84 761 79 761 Q75 761 75 754 L75 749 Q75 741 70 736.5 Q65 732 58 732 L32 732 Q16 732 10.5 738.5 Q5 745 5 760 L5 805 Z " />
<glyph glyph-name="dieresis" unicode="&#xa8;" horiz-adv-x="245" d="M139 805 Q139 823 145 830.5 Q151 838 171 838 L202 838 Q222 838 228.5 830.5 Q235 823 235 805 L235 765 Q235 747 228.5 739.5 Q222 732 202 732 L171 732 Q151 732 145 739.5 Q139 747 139 765 L139 805 Z M11 805 Q11 823 17 830.5 Q23 838 43 838 L74 838 Q94 838 100.5 830.5 Q107 823 107 805 L107 765 Q107 747 100.5 739.5 Q94 732 74 732 L43 732 Q23 732 17 739.5 Q11 747 11 765 L11 805 Z " />
<glyph glyph-name="macron" unicode="&#xaf;" horiz-adv-x="249" d="M5 791 Q5 814 16 819 Q27 824 53 824 L196 824 Q222 824 232.5 819 Q243 814 243 791 L243 765 Q243 742 232.5 737 Q222 732 196 732 L53 732 Q27 732 16 737 Q5 742 5 765 L5 791 Z " />
<glyph glyph-name="breve" unicode="&#x2d8;" horiz-adv-x="388" d="M61 850 Q68 850 70.5 846 Q73 842 75 836 Q77 829 81 824 Q85 819 94 815.5 Q103 812 118 810.5 Q133 809 156 809 Q201 809 217 815.5 Q233 822 235 836 Q240 850 248 850 L277 850 Q283 850 286 845.5 Q289 841 289 836 Q289 819 282.5 800.5 Q276 782 261 767 Q246 752 220.5 742.5 Q195 733 156 733 Q117 733 91 742.5 Q65 752 49.5 767 Q34 782 27.5 800.5 Q21 819 21 836 Q21 841 24 845.5 Q27 850 33 850 L61 850 Z " />
<glyph glyph-name="ring" unicode="&#x2da;" horiz-adv-x="168" d="M85 715 Q49 715 24.5 740.5 Q0 766 0 803 Q0 843 24 868.5 Q48 894 85 894 Q121 894 144.5 868.5 Q168 843 168 802 Q168 764 144 739.5 Q120 715 85 715 Z M85 764 Q99 764 108.5 774.5 Q118 785 118 801 Q118 818 108.5 829 Q99 840 85 840 Q70 840 60.5 829.5 Q51 819 51 802 Q51 785 60.5 774.5 Q70 764 85 764 Z " />
<glyph glyph-name="hungarumlaut" unicode="&#x2dd;" horiz-adv-x="223" d="M145 813 Q153 827 155.5 831 Q158 835 166 835 L226 835 Q234 835 237.5 828.5 Q241 822 234 814 L177 748 Q169 738 165.5 735 Q162 732 154 732 L115 732 Q110 732 107 738.5 Q104 745 110 755 L145 813 Z M36 813 Q44 825 47.5 830 Q51 835 59 835 L117 835 Q125 835 128.5 828 Q132 821 126 814 L68 748 Q60 738 56.5 735 Q53 732 45 732 L7 732 Q1 732 -2.5 738.5 Q-6 745 0 755 L36 813 Z " />
<glyph glyph-name="dotaccent" unicode="&#x2d9;" horiz-adv-x="117" d="M11 805 Q11 823 17 830.5 Q23 838 43 838 L74 838 Q94 838 100.5 830.5 Q107 823 107 805 L107 765 Q107 747 100.5 739.5 Q94 732 74 732 L43 732 Q23 732 17 739.5 Q11 747 11 765 L11 805 Z " />
<glyph glyph-name="cedilla" unicode="&#xb8;" horiz-adv-x="130" d="M0 -79 Q0 -60 8 -53.5 Q16 -47 41 -47 L63 -47 Q77 -47 77 -31 Q77 -24 73.5 -11 Q70 2 62 28 L113 28 Q124 -7 127 -24 Q130 -41 130 -58 Q130 -98 115.5 -121.5 Q101 -145 75 -145 L37 -145 Q13 -145 6.5 -137.5 Q0 -130 0 -103 L0 -79 Z " />
<glyph glyph-name="ogonek" unicode="&#x2db;" horiz-adv-x="153" d="M130 -111 Q130 -138 123.5 -146.5 Q117 -155 93 -155 L41 -155 Q12 -155 -7.5 -138 Q-27 -121 -27 -95 Q-27 -34 39 0 L102 0 Q79 -15 70.5 -26.5 Q62 -38 62 -47 Q62 -63 84 -63 L89 -63 Q114 -63 122 -70 Q130 -77 130 -96 L130 -111 Z " />
<glyph glyph-name="comma" unicode="&#x2c;" horiz-adv-x="148" d="M40 -18 Q46 -5 42.5 -2.5 Q39 0 35 0 L29 0 Q12 0 12 26 L12 77 Q12 103 17 114 Q22 125 44 125 L104 125 Q126 125 131 114 Q136 103 136 77 L136 44 Q136 36 134.5 25 Q133 14 125 -6 L105 -60 Q97 -81 83 -81 L32 -81 Q21 -81 19 -77 Q17 -73 21 -63 L40 -18 Z " />
<glyph glyph-name="semicolon" unicode="&#x3b;" horiz-adv-x="148" d="M12 355 Q12 381 17 392 Q22 403 44 403 L104 403 Q126 403 131 392 Q136 381 136 355 L136 326 Q136 300 131 289 Q126 278 104 278 L44 278 Q22 278 17 289 Q12 300 12 326 L12 355 Z M40 -18 Q46 -5 42.5 -2.5 Q39 0 35 0 L29 0 Q12 0 12 26 L12 77 Q12 103 17 114 Q22 125 44 125 L104 125 Q126 125 131 114 Q136 103 136 77 L136 44 Q136 36 134.5 25 Q133 14 125 -6 L105 -60 Q97 -81 83 -81 L32 -81 Q21 -81 19 -77 Q17 -73 21 -63 L40 -18 Z " />
<glyph glyph-name="colon" unicode="&#x3a;" horiz-adv-x="148" d="M12 355 Q12 381 17 392 Q22 403 44 403 L104 403 Q126 403 131 392 Q136 381 136 355 L136 326 Q136 300 131 289 Q126 278 104 278 L44 278 Q22 278 17 289 Q12 300 12 326 L12 355 Z M12 77 Q12 103 17 114 Q22 125 44 125 L104 125 Q126 125 131 114 Q136 103 136 77 L136 48 Q136 22 131 11 Q126 0 104 0 L44 0 Q22 0 17 11 Q12 22 12 48 L12 77 Z " />
<glyph glyph-name="period" unicode="&#x2e;" horiz-adv-x="148" d="M12 77 Q12 103 17 114 Q22 125 44 125 L104 125 Q126 125 131 114 Q136 103 136 77 L136 48 Q136 22 131 11 Q126 0 104 0 L44 0 Q22 0 17 11 Q12 22 12 48 L12 77 Z " />
<glyph glyph-name="ellipsis" unicode="&#x2026;" horiz-adv-x="464" d="M321 77 Q321 103 326 114 Q331 125 353 125 L413 125 Q435 125 440 114 Q445 103 445 77 L445 48 Q445 22 440 11 Q435 0 413 0 L353 0 Q331 0 326 11 Q321 22 321 48 L321 77 Z M169 77 Q169 103 174 114 Q179 125 202 125 L261 125 Q284 125 289 114 Q294 103 294 77 L294 48 Q294 22 289 11 Q284 0 261 0 L202 0 Q179 0 174 11 Q169 22 169 48 L169 77 Z M18 77 Q18 103 23 114 Q28 125 51 125 L110 125 Q133 125 138 114 Q143 103 143 77 L143 48 Q143 22 138 11 Q133 0 110 0 L51 0 Q28 0 23 11 Q18 22 18 48 L18 77 Z " />
<glyph glyph-name="hyphen" unicode="&#x2d;" horiz-adv-x="223" d="M11 400 Q11 426 17.5 434.5 Q24 443 44 443 L179 443 Q199 443 206 434.5 Q213 426 213 400 L213 347 Q213 321 206 312.5 Q199 304 179 304 L44 304 Q24 304 17.5 312.5 Q11 321 11 347 L11 400 Z " />
<glyph glyph-name="exclam" unicode="&#x21;" horiz-adv-x="182" d="M30 661 Q29 685 37 695.5 Q45 706 62 706 L118 706 Q138 706 145 696 Q152 686 152 660 L148 226 Q148 201 141 192 Q134 183 116 183 L72 183 Q53 183 45.5 191.5 Q38 200 37 226 L30 661 Z M32 77 Q32 103 37 114 Q42 125 65 125 L120 125 Q142 125 147 114 Q152 103 152 77 L152 48 Q152 22 147 11 Q142 0 120 0 L65 0 Q42 0 37 11 Q32 22 32 48 L32 77 Z " />
<glyph glyph-name="exclamdown" unicode="&#xa1;" horiz-adv-x="182" d="M30 658 Q30 684 35 695 Q40 706 62 706 L117 706 Q140 706 145 695 Q150 684 150 658 L150 628 Q150 603 145 592 Q140 581 117 581 L62 581 Q40 581 35 592 Q30 603 30 628 L30 658 Z M34 479 Q34 505 41 514 Q48 523 66 523 L110 523 Q129 523 136.5 514 Q144 505 145 479 L152 44 Q153 0 120 0 L63 0 Q43 0 36.5 9.5 Q30 19 30 45 L34 479 Z " />
<glyph glyph-name="question" unicode="&#x3f;" horiz-adv-x="284" d="M72 317 Q72 339 73.5 348 Q75 357 83 372 L124 459 Q133 477 137.5 488 Q142 499 144 507.5 Q146 516 146.5 523 Q147 530 147 541 Q147 562 140 571.5 Q133 581 112 581 L42 581 Q7 581 7 625 L7 661 Q7 706 42 706 L169 706 Q196 706 215 701 Q234 696 247 680.5 Q260 665 266 636 Q272 607 272 560 Q272 538 271 521 Q270 504 267 488.5 Q264 473 258.5 457.5 Q253 442 244 423 L203 336 Q196 321 194.5 312 Q193 303 193 281 L193 213 Q193 194 185.5 188 Q178 182 160 182 L107 182 Q86 182 79 190 Q72 198 72 221 L72 317 Z M72 77 Q72 103 77 114 Q82 125 105 125 L160 125 Q182 125 187.5 114 Q193 103 193 77 L193 48 Q193 22 187.5 11 Q182 0 160 0 L105 0 Q82 0 77 11 Q72 22 72 48 L72 77 Z " />
<glyph glyph-name="questiondown" unicode="&#xbf;" horiz-adv-x="284" d="M91 658 Q91 684 96 695 Q101 706 124 706 L179 706 Q201 706 206.5 695 Q212 684 212 658 L212 628 Q212 603 206.5 592 Q201 581 179 581 L124 581 Q101 581 96 592 Q91 603 91 628 L91 658 Z M114 0 Q87 0 68 5 Q49 10 36.5 25.5 Q24 41 18 70 Q12 99 12 146 Q12 168 13 185 Q14 202 17 217.5 Q20 233 25 248.5 Q30 264 39 282 L80 369 Q88 384 89.5 393.5 Q91 403 91 424 L91 493 Q91 511 98 517.5 Q105 524 124 524 L177 524 Q197 524 204.5 516 Q212 508 212 485 L212 388 Q212 367 210.5 357.5 Q209 348 201 333 L160 247 Q151 229 146 218 Q141 207 139 198.5 Q137 190 136.5 182.5 Q136 175 136 165 Q136 143 143.5 134 Q151 125 171 125 L241 125 Q276 125 276 80 L276 44 Q276 0 241 0 L114 0 Z " />
<glyph glyph-name="quoteleft" unicode="&#x2018;" horiz-adv-x="120" d="M4 568 Q4 582 5 589.5 Q6 597 8 605 L35 686 Q41 706 58 706 L96 706 Q106 706 109 703 Q112 700 107 686 L86 625 Q82 617 83.5 611.5 Q85 606 91 606 L98 606 Q109 606 112 598.5 Q115 591 115 567 L115 528 Q115 502 107.5 491.5 Q100 481 80 481 L37 481 Q19 481 11.5 491 Q4 501 4 525 L4 568 Z " />
<glyph glyph-name="quoteright" unicode="&#x2019;" horiz-adv-x="120" d="M34 562 Q37 570 36 575.5 Q35 581 29 581 L21 581 Q10 581 7 588.5 Q4 596 4 620 L4 659 Q4 685 11.5 695.5 Q19 706 39 706 L83 706 Q101 706 108 696 Q115 686 115 662 L115 619 Q115 605 114 597.5 Q113 590 111 582 L85 501 Q77 481 61 481 L23 481 Q14 481 11 484.5 Q8 488 13 501 L34 562 Z " />
<glyph glyph-name="quotedblleft" unicode="&#x201c;" horiz-adv-x="267" d="M149 568 Q149 582 150 589.5 Q151 597 153 605 L179 686 Q185 706 202 706 L241 706 Q251 706 254 702.5 Q257 699 252 686 L230 625 Q227 619 227.5 612.5 Q228 606 235 606 L242 606 Q253 606 256.5 598.5 Q260 591 260 567 L260 528 Q260 502 252.5 491.5 Q245 481 225 481 L182 481 Q164 481 156.5 491 Q149 501 149 525 L149 568 Z M6 568 Q6 582 7 589.5 Q8 597 11 605 L37 686 Q43 706 60 706 L98 706 Q108 706 111 703 Q114 700 109 686 L88 625 Q81 606 93 606 L101 606 Q111 606 114 598.5 Q117 591 117 567 L117 528 Q117 502 110 491.5 Q103 481 83 481 L39 481 Q21 481 13.5 491 Q6 501 6 525 L6 568 Z " />
<glyph glyph-name="quotedblright" unicode="&#x201d;" horiz-adv-x="267" d="M179 562 Q182 570 181 575.5 Q180 581 174 581 L166 581 Q155 581 152 588.5 Q149 596 149 620 L149 659 Q149 685 156.5 695.5 Q164 706 184 706 L227 706 Q246 706 253 696 Q260 686 260 662 L260 619 Q260 605 259 597.5 Q258 590 256 582 L230 501 Q222 481 206 481 L168 481 Q159 481 156 484.5 Q153 488 158 501 L179 562 Z M37 562 Q39 568 38.5 574.5 Q38 581 32 581 L24 581 Q14 581 10 588.5 Q6 596 6 620 L6 659 Q6 685 14 695.5 Q22 706 41 706 L85 706 Q103 706 110 696 Q117 686 117 662 L117 619 Q117 605 116 597.5 Q115 590 113 582 L88 501 Q82 481 65 481 L25 481 Q16 481 13 485 Q10 489 15 501 L37 562 Z " />
<glyph glyph-name="quotesinglbase" unicode="&#x201a;" horiz-adv-x="124" d="M37 -19 Q39 -13 38.5 -6.5 Q38 0 32 0 L24 0 Q14 0 10 7.5 Q6 15 6 39 L6 78 Q6 104 14 114.5 Q22 125 41 125 L85 125 Q103 125 110 115 Q117 105 117 81 L117 38 Q117 24 116 16.5 Q115 9 113 1 L88 -79 Q83 -99 65 -99 L25 -99 Q16 -99 13 -95.5 Q10 -92 15 -79 L37 -19 Z " />
<glyph glyph-name="quotedblbase" unicode="&#x201e;" horiz-adv-x="267" d="M179 -19 Q186 0 174 0 L166 0 Q155 0 152 7.5 Q149 15 149 39 L149 78 Q149 104 156.5 114.5 Q164 125 184 125 L227 125 Q246 125 253 115 Q260 105 260 81 L260 38 Q260 24 259 16.5 Q258 9 256 1 L230 -79 Q223 -99 206 -99 L168 -99 Q159 -99 156 -96 Q153 -93 158 -79 L179 -19 Z M37 -19 Q39 -13 38.5 -6.5 Q38 0 32 0 L24 0 Q14 0 10 7.5 Q6 15 6 39 L6 78 Q6 104 14 114.5 Q22 125 41 125 L85 125 Q103 125 110 115 Q117 105 117 81 L117 38 Q117 24 116 16.5 Q115 9 113 1 L88 -79 Q83 -99 65 -99 L25 -99 Q16 -99 13 -95.5 Q10 -92 15 -79 L37 -19 Z " />
<glyph glyph-name="guilsinglleft" unicode="&#x2039;" horiz-adv-x="106" d="M22 226 Q5 240 5 271 L5 407 Q5 427 7.5 434 Q10 441 19 448 L84 495 Q93 503 97 499 Q101 495 101 486 L101 415 Q101 403 99 397 Q97 391 93 385 L59 336 L90 293 Q96 283 98.5 279 Q101 275 101 266 L101 190 Q101 179 96.5 178.5 Q92 178 87 180 L22 226 Z " />
<glyph glyph-name="guilsinglright" unicode="&#x203a;" horiz-adv-x="106" d="M5 266 Q5 275 7 279 Q9 283 16 293 L47 336 L13 385 Q8 391 6.5 397 Q5 403 5 415 L5 486 Q5 495 9 499 Q13 503 22 495 L87 448 Q95 441 98 434 Q101 427 101 407 L101 271 Q101 240 84 226 L19 180 Q14 178 9.5 178.5 Q5 179 5 190 L5 266 Z " />
<glyph glyph-name="guillemotleft" unicode="&#xab;" horiz-adv-x="223" d="M140 226 Q123 239 123 271 L123 407 Q123 427 125.5 434 Q128 441 136 448 L201 495 Q211 503 214.5 499 Q218 495 218 486 L218 415 Q218 403 216 397 Q214 391 211 385 L177 336 L207 293 Q214 283 216 279 Q218 275 218 266 L218 190 Q218 179 213.5 178.5 Q209 178 204 180 L140 226 Z M22 226 Q5 240 5 271 L5 407 Q5 427 7.5 434 Q10 441 19 448 L84 495 Q93 503 97 499 Q101 495 101 486 L101 415 Q101 403 99 397 Q97 391 93 385 L59 336 L90 293 Q96 283 98.5 279 Q101 275 101 266 L101 190 Q101 179 96.5 178.5 Q92 178 87 180 L22 226 Z " />
<glyph glyph-name="guillemotright" unicode="&#xbb;" horiz-adv-x="223" d="M123 266 Q123 275 124.5 279 Q126 283 133 293 L164 336 L130 385 Q126 391 124.5 397 Q123 403 123 415 L123 486 Q123 495 126 499 Q129 503 139 495 L204 448 Q212 441 215 434 Q218 427 218 407 L218 271 Q218 239 201 226 L135 180 Q130 178 126.5 178.5 Q123 179 123 190 L123 266 Z M5 266 Q5 275 7 279 Q9 283 16 293 L47 336 L13 385 Q8 391 6.5 397 Q5 403 5 415 L5 486 Q5 495 9 499 Q13 503 22 495 L87 448 Q95 441 98 434 Q101 427 101 407 L101 271 Q101 240 84 226 L19 180 Q14 178 9.5 178.5 Q5 179 5 190 L5 266 Z " />
<glyph glyph-name="slash" unicode="&#x2f;" horiz-adv-x="203" d="M117 703 Q122 725 138 725 L185 725 Q194 725 196 718.5 Q198 712 196 698 L86 1 Q83 -21 66 -21 L18 -21 Q9 -21 7 -15 Q5 -9 7 5 L117 703 Z " />
<glyph glyph-name="bar" unicode="&#x7c;" horiz-adv-x="180" d="M53 724 Q53 750 60.5 756.5 Q68 763 88 763 L121 763 Q139 763 146 755 Q153 747 153 724 L153 -139 Q153 -162 145.5 -168.5 Q138 -175 118 -175 L90 -175 Q67 -175 60 -167 Q53 -159 53 -136 L53 724 Z " />
<glyph glyph-name="endash" unicode="&#x2013;" horiz-adv-x="348" d="M11 396 Q11 422 16 432.5 Q21 443 43 443 L305 443 Q327 443 332.5 432.5 Q338 422 338 396 L338 333 Q338 307 332.5 296.5 Q327 286 305 286 L43 286 Q21 286 16 296.5 Q11 307 11 333 L11 396 Z " />
<glyph glyph-name="emdash" unicode="&#x2014;" horiz-adv-x="470" d="M12 396 Q12 422 17 432.5 Q22 443 44 443 L425 443 Q448 443 453 432.5 Q458 422 458 396 L458 333 Q458 307 453 296.5 Q448 286 425 286 L44 286 Q22 286 17 296.5 Q12 307 12 333 L12 396 Z " />
<glyph glyph-name="bullet" unicode="&#x2022;" horiz-adv-x="200" d="M11 428 Q11 465 20 477 Q29 489 60 489 L140 489 Q171 489 180 477 Q189 465 189 428 L189 328 Q189 309 187 297.5 Q185 286 180 279.5 Q175 273 165 270.5 Q155 268 140 268 L60 268 Q45 268 35 270.5 Q25 273 20 279.5 Q15 286 13 297.5 Q11 309 11 328 L11 428 Z " />
<glyph glyph-name="periodcentered" unicode="&#xb7;" horiz-adv-x="148" d="M11 396 Q11 422 16 432.5 Q21 443 43 443 L105 443 Q127 443 132.5 432.5 Q138 422 138 396 L138 333 Q138 307 132.5 296.5 Q127 286 105 286 L43 286 Q21 286 16 296.5 Q11 307 11 333 L11 396 Z " />
<glyph glyph-name="parenleft" unicode="&#x28;" horiz-adv-x="171" d="M102 -77 Q84 -77 78 -71 Q72 -65 67 -43 Q57 4 48.5 49 Q40 94 33.5 140.5 Q27 187 23.5 236.5 Q20 286 20 343 Q20 400 23.5 449.5 Q27 499 33.5 545.5 Q40 592 48.5 637 Q57 682 67 729 Q72 751 78 757 Q84 763 102 763 L132 763 Q149 763 153.5 758 Q158 753 154 730 Q148 683 143.5 638 Q139 593 136 546.5 Q133 500 131.5 450 Q130 400 130 343 Q130 286 131.5 235.5 Q133 185 136 138.5 Q139 92 143.5 47 Q148 2 154 -44 Q158 -67 153.5 -72 Q149 -77 132 -77 L102 -77 Z " />
<glyph glyph-name="parenright" unicode="&#x29;" horiz-adv-x="171" d="M39 -77 Q22 -77 18 -72 Q14 -67 17 -44 Q23 2 27.5 47 Q32 92 35 138.5 Q38 185 39.5 235.5 Q41 286 41 343 Q41 400 39.5 450 Q38 500 35 546.5 Q32 593 27.5 638 Q23 683 17 730 Q14 753 18 758 Q22 763 39 763 L70 763 Q87 763 93.5 757 Q100 751 105 729 Q115 682 123.5 637 Q132 592 138 545.5 Q144 499 147.5 449.5 Q151 400 151 343 Q151 286 147.5 236.5 Q144 187 138 140.5 Q132 94 123.5 49 Q115 4 105 -43 Q100 -65 93.5 -71 Q87 -77 70 -77 L39 -77 Z " />
<glyph glyph-name="bracketleft" unicode="&#x5b;" horiz-adv-x="238" d="M28 714 Q28 741 35 752 Q42 763 61 763 L188 763 Q211 763 216 754.5 Q221 746 221 726 L221 700 Q221 682 216 672.5 Q211 663 188 663 L127 663 L127 21 L188 21 Q211 21 216 11.5 Q221 2 221 -15 L221 -40 Q221 -60 216 -68.5 Q211 -77 188 -77 L61 -77 Q40 -77 34 -69 Q28 -61 28 -32 L28 714 Z " />
<glyph glyph-name="bracketright" unicode="&#x5d;" horiz-adv-x="238" d="M17 -15 Q17 2 22 11.5 Q27 21 50 21 L111 21 L111 663 L50 663 Q27 663 22 672.5 Q17 682 17 700 L17 726 Q17 746 22 754.5 Q27 763 50 763 L177 763 Q196 763 203.5 752 Q211 741 211 714 L211 -32 Q211 -61 204.5 -69 Q198 -77 177 -77 L50 -77 Q27 -77 22 -68.5 Q17 -60 17 -40 L17 -15 Z " />
<glyph glyph-name="braceleft" unicode="&#x7b;" horiz-adv-x="251" d="M74 203 Q74 212 73.5 223 Q73 234 70.5 245 Q68 256 63.5 265.5 Q59 275 51 280 Q45 284 39 285.5 Q33 287 28 289.5 Q23 292 20 296 Q17 300 17 309 L17 372 Q17 388 29 392 Q41 396 52 404 Q68 418 71 438.5 Q74 459 74 478 L74 634 Q74 660 77.5 683 Q81 706 91 724 Q101 742 119.5 752.5 Q138 763 168 763 L205 763 Q226 763 230 753 Q234 743 234 726 L234 700 Q234 680 229.5 673 Q225 666 218.5 664.5 Q212 663 204 663.5 Q196 664 189.5 658.5 Q183 653 178.5 639 Q174 625 174 594 L174 468 Q174 448 173 428.5 Q172 409 167 392 Q162 375 149.5 362 Q137 349 115 343 L115 341 Q137 336 149.5 321 Q162 306 167 286 Q172 266 173 244 Q174 222 174 204 L174 91 Q174 60 178.5 45.5 Q183 31 189.5 25.5 Q196 20 204 20.5 Q212 21 218.5 19.5 Q225 18 229.5 11 Q234 4 234 -16 Q234 -26 234.5 -37 Q235 -48 233 -57 Q231 -66 225 -72 Q219 -78 205 -78 Q197 -78 190 -77.5 Q183 -77 175 -77 Q145 -77 125 -66.5 Q105 -56 94 -38.5 Q83 -21 78.5 2 Q74 25 74 52 L74 203 Z " />
<glyph glyph-name="braceright" unicode="&#x7d;" horiz-adv-x="251" d="M77 204 Q77 222 78 244 Q79 266 84 286 Q89 306 101 321 Q113 336 135 341 L135 343 Q113 349 101 362 Q89 375 84 392 Q79 409 78 428.5 Q77 448 77 468 L77 594 Q77 625 72.5 639 Q68 653 61.5 658.5 Q55 664 47 663.5 Q39 663 32.5 664.5 Q26 666 21.5 673 Q17 680 17 700 L17 726 Q17 743 21 753 Q25 763 45 763 L83 763 Q113 763 131.5 752.5 Q150 742 160 724 Q170 706 173.5 683 Q177 660 177 634 L177 478 Q177 459 180 438.5 Q183 418 199 404 Q204 400 210 397.5 Q216 395 221.5 392 Q227 389 230.5 384.5 Q234 380 234 372 L234 309 Q234 300 231 296 Q228 292 223 289.5 Q218 287 212 285.5 Q206 284 200 280 Q192 275 187 265.5 Q182 256 180 245 Q178 234 177.5 223 Q177 212 177 203 L177 52 Q177 25 172.5 2 Q168 -21 157 -38.5 Q146 -56 126 -66.5 Q106 -77 76 -77 Q68 -77 60.5 -77.5 Q53 -78 45 -78 Q31 -78 25 -72 Q19 -66 17 -57 Q15 -48 16 -37 Q17 -26 17 -16 Q17 4 21.5 11 Q26 18 32.5 19.5 Q39 21 47 20.5 Q55 20 61.5 25.5 Q68 31 72.5 45.5 Q77 60 77 91 L77 204 Z " />
<glyph glyph-name="asterisk" unicode="&#x2a;" horiz-adv-x="222" d="M4 533 Q0 541 0.5 545.5 Q1 550 12 555 L77 587 L12 620 Q2 625 1 630.5 Q0 636 3 641 L11 654 Q15 660 19.5 661.5 Q24 663 34 657 L94 616 L89 688 Q88 708 104 708 L117 708 Q126 708 129.5 704 Q133 700 132 687 L128 616 L187 656 Q196 662 201.5 661 Q207 660 212 653 L219 641 Q224 634 221.5 628.5 Q219 623 207 618 L145 587 L208 557 Q228 547 219 533 L212 522 Q207 514 202 513 Q197 512 186 519 L128 558 L132 486 Q133 475 129 471.5 Q125 468 118 468 L104 468 Q96 468 92 471.5 Q88 475 89 486 L94 558 L34 517 Q24 511 19.5 513 Q15 515 12 521 L4 533 Z " />
<glyph glyph-name="section" unicode="&#xa7;" horiz-adv-x="398" d="M20 62 Q20 84 27 89.5 Q34 95 57 95 L166 95 Q189 95 196.5 106 Q204 117 204 159 Q204 175 189.5 189 Q175 203 152.5 217 Q130 231 104.5 246 Q79 261 56.5 280.5 Q34 300 19.5 324 Q5 348 5 380 Q5 451 23.5 488.5 Q42 526 80 539 L80 540 Q80 631 110.5 668.5 Q141 706 206 706 L341 706 Q364 706 371 699.5 Q378 693 378 671 L378 642 Q378 621 371 615 Q364 609 341 609 L229 609 Q218 609 210.5 607 Q203 605 198.5 598 Q194 591 192 578 Q190 565 190 543 Q190 529 205 516 Q220 503 242.5 489.5 Q265 476 291.5 460.5 Q318 445 340.5 425 Q363 405 378 380 Q393 355 393 323 Q393 251 374.5 214.5 Q356 178 317 166 L317 162 Q317 71 287 35 Q257 -1 191 -1 L57 -1 Q33 -1 26.5 5 Q20 11 20 34 L20 62 Z M130 443 Q121 438 117.5 425 Q114 412 114 383 Q114 368 129.5 355 Q145 342 168.5 327.5 Q192 313 219 297 Q246 281 269 260 Q277 265 280.5 278 Q284 291 284 320 Q284 336 268.5 350 Q253 364 229.5 378.5 Q206 393 179 408 Q152 423 130 443 Z " />
<glyph glyph-name="paragraph" unicode="&#xb6;" horiz-adv-x="457" d="M141 358 Q111 358 87.5 372.5 Q64 387 48.5 411 Q33 435 25 466 Q17 497 17 529 Q17 562 26.5 594 Q36 626 55.5 651 Q75 676 104.5 691 Q134 706 174 706 L382 706 Q401 706 408 699.5 Q415 693 415 672 L415 615 Q415 592 407 586.5 Q399 581 383 581 L383 -78 Q383 -93 376.5 -99 Q370 -105 352 -105 L318 -105 Q299 -105 294 -97.5 Q289 -90 289 -78 L289 581 L234 581 L234 -78 Q234 -93 227.5 -99 Q221 -105 204 -105 L169 -105 Q150 -105 145.5 -97.5 Q141 -90 141 -78 L141 358 Z " />
<glyph glyph-name="asciicircum" unicode="&#x5e;" horiz-adv-x="427" d="M146 676 Q150 684 152.5 689.5 Q155 695 159 699 Q163 703 169 704.5 Q175 706 186 706 L241 706 Q252 706 258.5 704.5 Q265 703 269 699 Q273 695 275.5 689.5 Q278 684 281 676 L411 394 Q421 371 419.5 362 Q418 353 398 352 L354 351 Q344 351 336 351 Q328 351 321.5 353.5 Q315 356 309.5 362 Q304 368 299 379 L214 586 L128 379 Q120 359 106 354.5 Q92 350 72 351 L30 352 Q9 353 7.5 362 Q6 371 17 394 L146 676 Z " />
<glyph glyph-name="asciitilde" unicode="&#x7e;" horiz-adv-x="690" d="M0 382 Q0 393 1 400 Q2 407 5 412 Q8 417 14 421 Q20 425 30 430 Q65 450 108 461 Q151 472 189 472 Q236 472 268.5 462 Q301 452 331.5 440.5 Q362 429 396.5 419 Q431 409 482 409 Q535 409 576.5 419.5 Q618 430 660 448 Q671 453 680.5 450 Q690 447 690 430 L690 383 Q690 372 689 364.5 Q688 357 685 351.5 Q682 346 676 342 Q670 338 660 334 Q621 318 573 309 Q525 300 476 300 Q426 300 391.5 310 Q357 320 326.5 332 Q296 344 263 354 Q230 364 183 364 Q141 364 104.5 351 Q68 338 30 320 Q19 315 9.5 318 Q0 321 0 339 L0 382 Z " />
<glyph glyph-name="backslash" unicode="&#x5c;" horiz-adv-x="199" d="M5 698 Q3 712 5 718.5 Q7 725 16 725 L63 725 Q79 725 84 703 L194 5 Q196 -9 194 -15 Q192 -21 183 -21 L135 -21 Q118 -21 115 1 L5 698 Z " />
<glyph glyph-name="underscore" unicode="&#x5f;" horiz-adv-x="381" d="M0 -70 L381 -70 L381 -133 L0 -133 L0 -70 Z " />
<glyph glyph-name="quotesingle" unicode="&#x27;" horiz-adv-x="123" d="M7 676 Q5 690 11 698 Q17 706 28 706 L94 706 Q105 706 111 697 Q117 688 115 676 L94 534 Q92 519 87.5 515.5 Q83 512 71 512 L50 512 Q39 512 34 515.5 Q29 519 26 534 L7 676 Z " />
<glyph glyph-name="quotedbl" unicode="&#x22;" horiz-adv-x="264" d="M148 676 Q146 688 152 697 Q158 706 170 706 L237 706 Q248 706 253.5 698 Q259 690 257 676 L237 534 Q235 519 229.5 515.5 Q224 512 214 512 L193 512 Q182 512 176.5 515.5 Q171 519 169 534 L148 676 Z M7 676 Q5 690 11 698 Q17 706 28 706 L94 706 Q106 706 112 697 Q118 688 116 676 L95 534 Q93 519 88 515.5 Q83 512 72 512 L51 512 Q40 512 35 515.5 Q30 519 28 534 L7 676 Z " />
<glyph glyph-name="at" unicode="&#x40;" horiz-adv-x="512" d="M442 51 Q445 42 445 39 Q445 32 438 27 Q431 22 400 14 Q371 6 334.5 1 Q298 -4 256 -4 Q143 -4 80 73.5 Q17 151 17 318 Q17 401 33.5 469.5 Q50 538 83 586.5 Q116 635 165.5 662 Q215 689 280 689 Q335 689 375.5 668 Q416 647 443 609.5 Q470 572 483.5 520.5 Q497 469 497 407 Q497 350 484.5 302.5 Q472 255 451 220.5 Q430 186 401.5 167 Q373 148 340 148 Q320 148 307.5 160.5 Q295 173 290 188 Q278 171 261 160 Q244 149 223 149 Q203 149 187 160.5 Q171 172 159.5 191.5 Q148 211 141.5 237 Q135 263 135 292 Q135 335 143.5 375.5 Q152 416 168.5 447 Q185 478 208 497 Q231 516 261 516 Q276 516 287 507.5 Q298 499 305 487 Q308 494 313.5 500 Q319 506 327 506 L358 506 Q372 506 375 497 Q378 488 378 477 Q378 471 377 462.5 Q376 454 375 446 L350 266 Q349 261 349 255.5 Q349 250 349 245 Q349 240 351.5 233 Q354 226 362 226 Q370 226 379.5 237 Q389 248 397 271 Q405 294 410 328 Q415 362 415 409 Q415 499 380.5 552.5 Q346 606 278 606 Q233 606 200 583.5 Q167 561 145.5 522 Q124 483 113 430.5 Q102 378 102 318 Q102 247 114 201 Q126 155 147.5 127.5 Q169 100 198 89 Q227 78 261 78 Q296 78 334.5 85 Q373 92 406 104 Q410 106 416 106 Q425 106 431 91 L442 51 Z M242 226 Q262 226 278 263.5 Q294 301 294 380 Q294 413 287.5 427 Q281 441 267 441 Q250 441 233.5 403.5 Q217 366 217 292 Q217 251 223 238.5 Q229 226 242 226 Z " />
<glyph glyph-name="copyright" unicode="&#xa9;" horiz-adv-x="379" d="M11 595 Q11 632 25 664.5 Q39 697 63 721 Q87 745 119.5 759 Q152 773 189 773 Q226 773 258.5 759 Q291 745 315.5 721 Q340 697 354 664.5 Q368 632 368 595 Q368 558 354 525.5 Q340 493 315.5 468.5 Q291 444 258.5 430 Q226 416 189 416 Q152 416 119.5 430 Q87 444 63 468.5 Q39 493 25 525.5 Q11 558 11 595 Z M189 449 Q219 449 246 460.5 Q273 472 292.5 491.5 Q312 511 323.5 538 Q335 565 335 595 Q335 625 323.5 651.5 Q312 678 292.5 698 Q273 718 246 729.5 Q219 741 189 741 Q159 741 132.5 729.5 Q106 718 86 698 Q66 678 54.5 651.5 Q43 625 43 595 Q43 565 54.5 538 Q66 511 86 491.5 Q106 472 132.5 460.5 Q159 449 189 449 Z M259 570 Q259 517 238.5 496.5 Q218 476 190 476 Q155 476 135.5 507.5 Q116 539 116 592 Q116 649 134 680 Q152 711 191 711 Q212 711 225 702 Q238 693 245 680 Q252 667 254 654 Q256 641 256 632 L221 632 Q220 647 214 662 Q208 677 191 677 Q171 677 162 654.5 Q153 632 153 594 Q153 556 161.5 533.5 Q170 511 191 511 Q201 511 207.5 516.5 Q214 522 217.5 531 Q221 540 222.5 550.5 Q224 561 224 570 L259 570 Z " />
<glyph glyph-name="registered" unicode="&#xae;" horiz-adv-x="379" d="M11 595 Q11 632 25 664.5 Q39 697 63 721 Q87 745 119.5 759 Q152 773 189 773 Q226 773 258.5 759 Q291 745 315.5 721 Q340 697 354 664.5 Q368 632 368 595 Q368 558 354 525.5 Q340 493 315.5 468.5 Q291 444 258.5 430 Q226 416 189 416 Q152 416 119.5 430 Q87 444 63 468.5 Q39 493 25 525.5 Q11 558 11 595 Z M189 449 Q219 449 246 460.5 Q273 472 292.5 491.5 Q312 511 323.5 538 Q335 565 335 595 Q335 625 323.5 651.5 Q312 678 292.5 698 Q273 718 246 729.5 Q219 741 189 741 Q159 741 132.5 729.5 Q106 718 86 698 Q66 678 54.5 651.5 Q43 625 43 595 Q43 565 54.5 538 Q66 511 86 491.5 Q106 472 132.5 460.5 Q159 449 189 449 Z M139 706 L184 706 Q219 706 232 690.5 Q245 675 245 642 Q245 621 238.5 605 Q232 589 220 582 L250 482 L215 482 L188 572 L171 572 L171 482 L139 482 L139 706 Z M180 609 Q198 609 204.5 616.5 Q211 624 211 641 Q211 655 205 661.5 Q199 668 183 668 L171 668 L171 609 L180 609 Z " />
<glyph glyph-name="trademark" unicode="&#x2122;" horiz-adv-x="320" d="M157 706 L199 706 L229 550 Q229 557 233 575 Q236 591 241.5 621.5 Q247 652 258 706 L300 706 L314 482 L282 482 L274 641 L242 482 L211 482 Q200 536 194 567 Q188 598 185 614 Q181 632 181 639 L172 482 L140 482 L157 706 Z M41 665 L5 665 L5 706 L113 706 L113 665 L76 665 L76 484 L41 484 L41 665 Z " />
<glyph glyph-name="Euro" unicode="&#x20ac;" horiz-adv-x="441" d="M23 293 Q25 301 27 304.5 Q29 308 40 308 L62 308 Q61 315 61 324 Q61 333 61 344 Q61 356 61 367 Q61 378 62 389 L30 389 Q19 389 13 392.5 Q7 396 10 404 L22 453 Q24 461 27.5 464.5 Q31 468 39 468 L69 468 Q80 539 104 586 Q128 633 160 661 Q192 689 229 700.5 Q266 712 302 712 Q332 712 362.5 705 Q393 698 407 694 Q428 688 428 677 Q428 672 426 662.5 Q424 653 421 644 L406 599 Q403 588 400 582 Q397 576 388 576 Q375 576 357 583.5 Q339 591 309 591 Q288 591 269.5 585.5 Q251 580 236.5 566 Q222 552 212 528.5 Q202 505 196 468 L338 468 Q364 468 360 454 L347 403 Q345 395 342.5 392 Q340 389 327 389 L191 389 Q190 381 190 371.5 Q190 362 190 351 Q190 340 190 329.5 Q190 319 191 308 L296 308 Q323 308 318 294 L306 243 Q304 235 301.5 232.5 Q299 230 286 230 L199 230 Q204 161 227 135 Q250 109 288 109 Q309 109 324.5 111 Q340 113 351.5 116 Q363 119 372 121 Q381 123 390 123 Q412 123 412 96 L412 50 Q412 36 410 24 Q408 12 396 7 Q379 0 347.5 -5 Q316 -10 278 -10 Q246 -10 212.5 -0.5 Q179 9 150 35.5 Q121 62 99 108.5 Q77 155 69 230 L31 230 Q20 230 14 233 Q8 236 11 244 L23 293 Z " />
<glyph glyph-name="dollar" unicode="&#x24;" horiz-adv-x="312" d="M14 102 Q14 127 20 134.5 Q26 142 44 142 L145 142 Q167 142 170 158 Q173 174 165 189 L56 397 Q40 427 31 451 Q22 475 17.5 494.5 Q13 514 12 529.5 Q11 545 11 559 Q11 620 36 646.5 Q61 673 113 676 L113 729 Q113 749 128 749 L177 749 Q185 749 188 746 Q191 743 191 732 L191 676 L242 676 Q257 676 263.5 668.5 Q270 661 270 641 L270 599 Q270 578 263 570 Q256 562 239 562 L153 562 Q129 562 124 544 Q119 526 131 505 L236 312 Q255 276 267 250.5 Q279 225 285 204.5 Q291 184 293 166.5 Q295 149 295 131 Q295 73 267 50.5 Q239 28 191 28 L191 -29 Q191 -43 188.5 -47 Q186 -51 178 -51 L127 -51 Q118 -51 115.5 -47.5 Q113 -44 113 -31 L113 28 L45 28 Q26 28 20 35.5 Q14 43 14 68 L14 102 Z " />
<glyph glyph-name="cent" unicode="&#xa2;" horiz-adv-x="208" d="M75 289 Q58 292 47 302.5 Q36 313 29.5 335 Q23 357 20 392 Q17 427 17 480 Q17 534 19 572 Q21 610 27 634 Q33 658 44.5 670.5 Q56 683 74 686 L74 724 Q74 734 76.5 736 Q79 738 87 738 L123 738 Q131 738 133.5 736 Q136 734 136 723 L136 688 L172 688 Q191 688 191 667 L191 614 Q191 600 187 595.5 Q183 591 171 591 L134 591 Q125 591 120 588.5 Q115 586 112.5 575.5 Q110 565 109.5 544.5 Q109 524 109 487 Q109 450 110 429.5 Q111 409 113 399 Q115 389 119.5 386.5 Q124 384 132 384 L171 384 Q182 384 186 379.5 Q190 375 190 364 L190 309 Q190 297 186.5 292.5 Q183 288 172 288 L140 288 L140 256 Q140 244 136 240 Q132 236 124 236 L92 236 Q82 236 78.5 239 Q75 242 75 253 L75 289 Z " />
<glyph glyph-name="sterling" unicode="&#xa3;" horiz-adv-x="375" d="M324 125 Q343 125 350.5 114.5 Q358 104 358 78 L358 44 Q358 19 350.5 9.5 Q343 0 323 0 L98 0 Q80 0 68.5 6.5 Q57 13 51 23 Q45 33 43 46 Q41 59 41 73 Q41 82 41.5 93.5 Q42 105 43 115 Q44 126 45 139 Q46 151 50 174 Q53 194 57.5 227 Q62 260 70 312 Q73 331 63 331 L28 331 Q17 331 12.5 339 Q8 347 8 370 L8 418 Q8 438 13.5 446.5 Q19 455 32 455 L73 455 Q78 455 79.5 457.5 Q81 460 83 467 L98 588 Q106 649 129 677.5 Q152 706 191 706 L313 706 Q332 706 339 696.5 Q346 687 346 663 L346 623 Q346 599 340 590 Q334 581 320 581 L240 581 Q229 581 224.5 574.5 Q220 568 218 552 L206 474 Q205 466 205.5 460.5 Q206 455 215 455 L306 455 Q329 455 329 417 L329 372 Q329 349 322.5 340 Q316 331 298 331 L205 331 Q197 331 194.5 327 Q192 323 190 307 L171 144 Q169 133 172 129 Q175 125 186 125 L324 125 Z " />
<glyph glyph-name="florin" unicode="&#x192;" horiz-adv-x="308" d="M63 313 Q65 325 63.5 329 Q62 333 57 333 L28 333 Q17 333 13.5 340.5 Q10 348 10 370 L10 425 Q10 452 28 452 L66 452 Q76 452 78 464 L94 595 Q101 648 125 677 Q149 706 189 706 L243 706 Q274 706 283 695.5 Q292 685 292 662 L292 625 Q292 581 266 581 L240 581 Q224 581 221 575.5 Q218 570 214 546 L201 476 Q199 462 201.5 459 Q204 456 211 456 L237 456 Q256 456 262 448.5 Q268 441 268 416 L268 373 Q268 349 261.5 340.5 Q255 332 236 332 L201 332 Q193 332 190.5 328.5 Q188 325 186 314 L151 39 Q148 13 142 6.5 Q136 0 123 0 L58 0 Q40 0 33.5 7.5 Q27 15 32 50 L63 313 Z " />
<glyph glyph-name="yen" unicode="&#xa5;" horiz-adv-x="488" d="M177 226 L33 226 Q18 226 14.5 234 Q11 242 11 259 L11 279 Q11 297 14.5 304 Q18 311 33 311 L164 311 L143 387 L33 387 Q18 387 14.5 394.5 Q11 402 11 419 L11 439 Q11 456 14.5 464 Q18 472 33 472 L117 472 L60 669 Q56 682 59 694 Q62 706 79 706 L150 706 Q161 706 167 701.5 Q173 697 178 680 L232 451 Q234 443 235 441 Q236 439 239 439 Q242 439 243 441 Q244 443 247 451 L300 680 Q305 697 311 701.5 Q317 706 328 706 L399 706 Q416 706 419 694 Q422 682 418 669 L360 472 L449 472 Q464 472 467.5 464 Q471 456 471 439 L471 419 Q471 402 467.5 394.5 Q464 387 449 387 L335 387 L313 311 L449 311 Q464 311 467.5 304 Q471 297 471 279 L471 259 Q471 242 467.5 234 Q464 226 449 226 L302 226 L302 45 Q302 17 295 8.5 Q288 0 267 0 L212 0 Q190 0 183.5 8.5 Q177 17 177 45 L177 226 Z " />
<glyph glyph-name="numbersign" unicode="&#x23;" horiz-adv-x="675" d="M139 208 L19 208 Q-9 208 0 236 L10 267 Q15 281 19.5 287 Q24 293 38 293 L165 293 L203 414 L83 414 Q55 414 63 440 L73 471 Q78 485 83 491.5 Q88 498 102 498 L231 498 L292 690 Q296 703 303.5 706 Q311 709 326 709 L358 709 Q388 709 380 681 L322 498 L445 498 L507 690 Q511 703 518.5 706 Q526 709 541 709 L573 709 Q603 709 595 681 L536 498 L656 498 Q682 498 675 472 L665 440 Q661 426 656 420 Q651 414 637 414 L510 414 L471 293 L592 293 Q620 293 612 267 L602 236 Q597 222 592 215 Q587 208 573 208 L444 208 L384 19 Q380 6 372 3 Q364 0 349 0 L317 0 Q287 0 295 26 L353 208 L230 208 L169 19 Q165 6 157 3 Q149 0 134 0 L103 0 Q72 0 80 26 L139 208 Z M380 293 L419 414 L294 414 L256 293 L380 293 Z " />
<glyph glyph-name="zero" unicode="0" horiz-adv-x="368" d="M184 -10 Q130 -10 97 5 Q64 20 46.5 60 Q29 100 23.5 170.5 Q18 241 18 352 Q18 463 23.5 533.5 Q29 604 46.5 644 Q64 684 97 698.5 Q130 713 184 713 Q238 713 271 698.5 Q304 684 321.5 644 Q339 604 344.5 533.5 Q350 463 350 352 Q350 241 344.5 170.5 Q339 100 321.5 60 Q304 20 271 5 Q238 -10 184 -10 Z M184 125 Q198 125 206.5 130.5 Q215 136 219.5 158.5 Q224 181 225 226.5 Q226 272 226 352 Q226 433 225 478.5 Q224 524 219.5 547 Q215 570 206.5 575.5 Q198 581 184 581 Q170 581 161.5 575.5 Q153 570 148.5 547 Q144 524 143 478.5 Q142 433 142 352 Q142 272 143 226.5 Q144 181 148.5 158.5 Q153 136 161.5 130.5 Q170 125 184 125 Z " />
<glyph glyph-name="one" unicode="1" horiz-adv-x="213" d="M55 559 Q55 573 52.5 577 Q50 581 42 581 L35 581 Q20 581 16 588.5 Q12 596 12 622 L12 658 Q12 689 19.5 697.5 Q27 706 55 706 L145 706 Q167 706 173.5 697 Q180 688 180 659 L180 45 Q180 17 173.5 8.5 Q167 0 143 0 L90 0 Q68 0 61.5 8.5 Q55 17 55 45 L55 559 Z " />
<glyph glyph-name="two" unicode="2" horiz-adv-x="303" d="M4 108 Q4 132 9 159 Q14 186 23 204 L132 420 Q143 442 151.5 463.5 Q160 485 160 521 Q160 555 149.5 568 Q139 581 120 581 L59 581 Q46 581 38 582.5 Q30 584 26 588.5 Q22 593 20.5 601.5 Q19 610 19 624 L19 662 Q19 688 26 697 Q33 706 55 706 L180 706 Q242 706 264 662 Q275 639 280 603.5 Q285 568 285 521 Q285 484 277.5 453.5 Q270 423 252 386 L132 146 Q121 125 140 125 L261 125 Q280 125 287.5 117 Q295 109 295 85 L295 43 Q295 18 287.5 9 Q280 0 257 0 L39 0 Q18 0 11 9.5 Q4 19 4 45 L4 108 Z " />
<glyph glyph-name="three" unicode="3" horiz-adv-x="298" d="M3 79 Q3 106 10.5 115.5 Q18 125 38 125 L122 125 Q134 125 141.5 127.5 Q149 130 153.5 139 Q158 148 160 164.5 Q162 181 162 208 Q162 248 154.5 267.5 Q147 287 128 287 L71 287 Q51 287 45 295 Q39 303 39 331 L39 372 Q39 403 58 418 Q76 432 90 442.5 Q104 453 114 461 Q125 470 134 476 Q149 487 155.5 502.5 Q162 518 162 533 Q162 553 153 567 Q144 581 128 581 L42 581 Q21 581 14 588.5 Q7 596 7 621 L7 659 Q7 687 14 696.5 Q21 706 42 706 L165 706 Q194 706 216 698.5 Q238 691 252.5 671.5 Q267 652 274.5 618.5 Q282 585 282 532 Q282 476 266 439.5 Q250 403 220 389 Q239 373 246 365.5 Q253 358 261 347 Q268 336 273 324 Q278 312 281.5 295.5 Q285 279 286.5 257 Q288 235 288 203 Q288 147 281 108.5 Q274 70 258.5 46 Q243 22 217.5 11 Q192 0 156 0 L38 0 Q17 0 10 7.5 Q3 15 3 43 L3 79 Z " />
<glyph glyph-name="four" unicode="4" horiz-adv-x="373" d="M6 286 Q6 306 23 353 Q40 400 72 484 Q101 562 124.5 614 Q148 666 160 687 Q167 700 177.5 703 Q188 706 202 706 L285 706 Q320 706 320 660 L320 325 Q320 319 320.5 311.5 Q321 304 334 304 L347 304 Q360 304 364.5 296 Q369 288 369 266 L369 214 Q369 180 349 180 L334 180 Q325 180 321.5 175 Q318 170 318 154 L318 42 Q318 16 311 8 Q304 0 284 0 L227 0 Q207 0 200.5 8 Q194 16 194 42 L194 157 Q194 171 190.5 175.5 Q187 180 170 180 L40 180 Q22 180 14 189 Q6 198 6 221 L6 286 Z M179 304 Q187 304 190.5 309.5 Q194 315 194 330 L194 475 Q194 488 187 488 Q182 488 180 480 L132 329 Q128 318 128.5 311 Q129 304 139 304 L179 304 Z " />
<glyph glyph-name="five" unicode="5" horiz-adv-x="300" d="M7 81 Q7 109 14 117 Q21 125 43 125 L126 125 Q146 125 155.5 147.5 Q165 170 165 221 Q165 274 156 296 Q147 318 126 318 L54 318 Q31 318 24 325 Q17 332 17 350 L17 657 Q17 685 24.5 695.5 Q32 706 52 706 L250 706 Q270 706 277.5 696 Q285 686 285 660 L285 624 Q285 599 277.5 590 Q270 581 252 581 L158 581 Q148 581 145 577 Q142 573 142 559 L142 462 Q142 443 156 443 L177 443 Q203 443 224.5 433 Q246 423 258 406 Q268 392 275 376.5 Q282 361 286 339 Q290 317 292 288 Q294 259 294 218 Q294 101 265 50.5 Q236 0 172 0 L43 0 Q20 0 13.5 8 Q7 16 7 45 L7 81 Z " />
<glyph glyph-name="six" unicode="6" horiz-adv-x="347" d="M153 689 Q158 696 162 701 Q166 706 178 706 L284 706 Q302 706 302 691 Q302 684 294 671 L172 469 Q182 473 195.5 475 Q209 477 221 477 Q250 477 271 469.5 Q292 462 307 443 Q315 433 320.5 417.5 Q326 402 329.5 379 Q333 356 334.5 324 Q336 292 336 248 Q336 186 331 133 Q326 80 312 50 Q298 20 267.5 7.5 Q237 -5 180 -5 Q144 -5 120 -2.5 Q96 0 80.5 6.5 Q65 13 54.5 23 Q44 33 35 48 Q27 60 22.5 82 Q18 104 15.5 132 Q13 160 12 193 Q11 226 11 260 Q11 314 13 355.5 Q15 397 22.5 433 Q30 469 43.5 502 Q57 535 81 573 L153 689 Z M211 307 Q211 333 203.5 340 Q196 347 172 347 Q152 347 144 339 Q136 331 136 303 L136 174 Q136 144 144.5 134.5 Q153 125 176 125 Q196 125 203.5 134.5 Q211 144 211 172 L211 307 Z " />
<glyph glyph-name="seven" unicode="7" horiz-adv-x="305" d="M170 534 Q173 545 175 554.5 Q177 564 177 569 Q177 577 173.5 579 Q170 581 163 581 L43 581 Q19 581 12 588.5 Q5 596 5 625 L5 662 Q5 689 12 697.5 Q19 706 41 706 L266 706 Q285 706 292 696 Q299 686 299 661 L299 580 Q299 564 296.5 548 Q294 532 292 522 L172 33 Q168 16 162 8 Q156 0 139 0 L68 0 Q55 0 48.5 5.5 Q42 11 42 25 Q42 37 47 51 L170 534 Z " />
<glyph glyph-name="eight" unicode="8" horiz-adv-x="359" d="M75 388 Q46 398 33 432.5 Q20 467 20 536 Q20 582 25.5 615 Q31 648 48 669 Q65 690 96 700 Q127 710 179 710 Q230 710 261.5 700 Q293 690 310.5 669 Q328 648 333.5 615 Q339 582 339 536 Q339 467 326 432.5 Q313 398 284 388 Q318 373 332 334.5 Q346 296 346 217 Q346 159 340.5 117 Q335 75 317.5 48 Q300 21 267 8 Q234 -5 179 -5 Q124 -5 91.5 8 Q59 21 41.5 48 Q24 75 18.5 117 Q13 159 13 217 Q13 296 27 334.5 Q41 373 75 388 Z M139 485 Q139 460 146.5 451 Q154 442 178 442 Q200 442 208 451.5 Q216 461 216 485 L216 537 Q216 562 208 571.5 Q200 581 178 581 Q155 581 147 571.5 Q139 562 139 539 L139 485 Z M216 267 Q216 291 208.5 299 Q201 307 177 307 Q154 307 147 298 Q140 289 140 266 L140 154 Q140 140 148 132.5 Q156 125 179 125 Q199 125 207.5 132 Q216 139 216 156 L216 267 Z " />
<glyph glyph-name="nine" unicode="9" horiz-adv-x="347" d="M177 238 Q166 232 155 229.5 Q144 227 126 227 Q103 227 80 234 Q57 241 40 261 Q31 271 25.5 286.5 Q20 302 17 325.5 Q14 349 12.5 381 Q11 413 11 457 Q11 519 16 572 Q21 625 35 655 Q49 685 79.5 697.5 Q110 710 167 710 Q201 710 224.5 707 Q248 704 264 697.5 Q280 691 291 681 Q302 671 312 657 Q328 634 332 581.5 Q336 529 336 454 Q336 407 334 366 Q332 325 326 288 Q320 251 308 217 Q296 183 276 150 L195 17 Q190 9 186 4.5 Q182 0 170 0 L65 0 Q55 0 51.5 4.5 Q48 9 48 15 Q48 20 49 23.5 Q50 27 54 35 L177 238 Z M211 531 Q211 560 202 570 Q193 580 170 580 Q150 580 142.5 570 Q135 560 135 532 L135 398 Q135 372 142.5 365 Q150 358 174 358 Q194 358 202.5 366 Q211 374 211 402 L211 531 Z " />
<glyph glyph-name="uni00A0" unicode="&#xa0;" horiz-adv-x="200" d="" />
<glyph glyph-name="fraction" unicode="&#x2044;" horiz-adv-x="108" d="M104 683 Q110 706 124 706 L171 706 Q189 706 182 679 L4 22 Q-2 0 -16 0 L-63 0 Q-81 0 -74 26 L104 683 Z " />
<glyph glyph-name="percent" unicode="&#x25;" horiz-adv-x="587" d="M132 327 Q96 327 72 337.5 Q48 348 33.5 372 Q19 396 12.5 434 Q6 472 6 527 Q6 576 10.5 611.5 Q15 647 28.5 670 Q42 693 67 704 Q92 715 132 715 Q172 715 197 704 Q222 693 235.5 670 Q249 647 253.5 611.5 Q258 576 258 527 Q258 472 252 434 Q246 396 231.5 372 Q217 348 192.5 337.5 Q168 327 132 327 Z M361 690 Q365 701 368.5 704 Q372 707 384 707 L416 707 Q427 707 433.5 703.5 Q440 700 435 686 L222 14 Q219 4 215.5 1 Q212 -2 204 -2 L169 -2 Q154 -2 150.5 3 Q147 8 152 22 L361 690 Z M455 -9 Q419 -9 395 1.5 Q371 12 356 36 Q341 60 335 98 Q329 136 329 191 Q329 240 333.5 275.5 Q338 311 351.5 334 Q365 357 390 368.5 Q415 380 455 380 Q495 380 520 368.5 Q545 357 558.5 334 Q572 311 576.5 275.5 Q581 240 581 191 Q581 136 574.5 98 Q568 60 553.5 36 Q539 12 515 1.5 Q491 -9 455 -9 Z M133 407 Q144 407 150 410 Q156 413 159 425 Q162 437 162.5 460 Q163 483 163 522 Q163 558 162.5 580 Q162 602 159 613.5 Q156 625 150 629 Q144 633 133 633 Q122 633 116 629 Q110 625 107 613.5 Q104 602 103 580 Q102 558 102 522 Q102 483 103 460 Q104 437 107 425 Q110 413 116 410 Q122 407 133 407 Z M456 72 Q467 72 473 75 Q479 78 482 89.5 Q485 101 485.5 124 Q486 147 486 186 Q486 222 485.5 244 Q485 266 482 277.5 Q479 289 473 293 Q467 297 456 297 Q445 297 438.5 293 Q432 289 429 277.5 Q426 266 425 244 Q424 222 424 186 Q424 147 425 124 Q426 101 429 89.5 Q432 78 438.5 75 Q445 72 456 72 Z " />
<glyph glyph-name="perthousand" unicode="&#x2030;" horiz-adv-x="873" d="M741 -9 Q705 -9 680.5 1.5 Q656 12 641.5 36 Q627 60 621 98 Q615 136 615 191 Q615 240 619.5 275.5 Q624 311 637.5 334 Q651 357 676 368.5 Q701 380 741 380 Q781 380 805.5 368.5 Q830 357 843.5 334 Q857 311 862 275.5 Q867 240 867 191 Q867 136 860.5 98 Q854 60 839.5 36 Q825 12 801 1.5 Q777 -9 741 -9 Z M132 327 Q96 327 72 337.5 Q48 348 33.5 372 Q19 396 12.5 434 Q6 472 6 527 Q6 576 10.5 611.5 Q15 647 28.5 670 Q42 693 67 704 Q92 715 132 715 Q172 715 197 704 Q222 693 235.5 670 Q249 647 253.5 611.5 Q258 576 258 527 Q258 472 252 434 Q246 396 231.5 372 Q217 348 192.5 337.5 Q168 327 132 327 Z M361 690 Q365 701 368.5 704 Q372 707 384 707 L416 707 Q427 707 433.5 703.5 Q440 700 435 686 L222 14 Q219 4 215.5 1 Q212 -2 204 -2 L169 -2 Q154 -2 150.5 3 Q147 8 152 22 L361 690 Z M455 -9 Q419 -9 395 1.5 Q371 12 356 36 Q341 60 335 98 Q329 136 329 191 Q329 240 333.5 275.5 Q338 311 351.5 334 Q365 357 390 368.5 Q415 380 455 380 Q495 380 520 368.5 Q545 357 558.5 334 Q572 311 576.5 275.5 Q581 240 581 191 Q581 136 574.5 98 Q568 60 553.5 36 Q539 12 515 1.5 Q491 -9 455 -9 Z M742 72 Q752 72 758 75 Q764 78 767 89.5 Q770 101 770.5 124 Q771 147 771 186 Q771 222 770.5 244 Q770 266 767.5 277.5 Q765 289 759 293 Q753 297 742 297 Q731 297 724.5 293 Q718 289 715 277.5 Q712 266 711 244 Q710 222 710 186 Q710 147 711 124 Q712 101 715 89.5 Q718 78 724.5 75 Q731 72 742 72 Z M133 407 Q144 407 150 410 Q156 413 159 425 Q162 437 162.5 460 Q163 483 163 522 Q163 558 162.5 580 Q162 602 159 613.5 Q156 625 150 629 Q144 633 133 633 Q122 633 116 629 Q110 625 107 613.5 Q104 602 103 580 Q102 558 102 522 Q102 483 103 460 Q104 437 107 425 Q110 413 116 410 Q122 407 133 407 Z M456 72 Q467 72 473 75 Q479 78 482 89.5 Q485 101 485.5 124 Q486 147 486 186 Q486 222 485.5 244 Q485 266 482 277.5 Q479 289 473 293 Q467 297 456 297 Q445 297 438.5 293 Q432 289 429 277.5 Q426 266 425 244 Q424 222 424 186 Q424 147 425 124 Q426 101 429 89.5 Q432 78 438.5 75 Q445 72 456 72 Z " />
<glyph glyph-name="plus" unicode="&#x2b;" horiz-adv-x="455" d="M159 297 L41 297 Q25 297 16 304.5 Q7 312 7 338 L7 391 Q7 416 14 425 Q21 434 40 434 L159 434 L159 549 Q159 565 166 574 Q173 583 199 583 L253 583 Q278 583 286.5 576.5 Q295 570 295 550 L295 434 L415 434 Q434 434 441 425 Q448 416 448 391 L448 338 Q448 312 439 304.5 Q430 297 414 297 L295 297 L295 176 Q295 156 286.5 149.5 Q278 143 253 143 L199 143 Q173 143 166 152 Q159 161 159 177 L159 297 Z " />
<glyph glyph-name="minus" unicode="&#x2212;" horiz-adv-x="455" d="M7 391 Q7 416 14 425 Q21 434 40 434 L415 434 Q434 434 441 425 Q448 416 448 391 L448 338 Q448 312 439 304.5 Q430 297 414 297 L41 297 Q25 297 16 304.5 Q7 312 7 338 L7 391 Z " />
<glyph glyph-name="plusminus" unicode="&#xb1;" horiz-adv-x="455" d="M7 391 Q7 416 14 425 Q21 434 40 434 L159 434 L159 549 Q159 565 166 574 Q173 583 199 583 L253 583 Q278 583 286.5 576.5 Q295 570 295 550 L295 434 L415 434 Q434 434 441 425 Q448 416 448 391 L448 342 Q448 316 439 309 Q430 302 414 302 L295 302 L295 190 Q295 171 286.5 164.5 Q278 158 253 158 L199 158 Q173 158 166 166.5 Q159 175 159 191 L159 302 L41 302 Q25 302 16 309 Q7 316 7 342 L7 391 Z M7 88 Q7 113 14 121.5 Q21 130 40 130 L415 130 Q434 130 441 121.5 Q448 113 448 88 L448 40 Q448 14 439 7 Q430 0 414 0 L41 0 Q25 0 16 7 Q7 14 7 40 L7 88 Z " />
<glyph glyph-name="multiply" unicode="&#xd7;" horiz-adv-x="455" d="M37 213 Q18 231 18 243 Q18 253 31 266 L130 365 L32 464 Q26 470 22.5 475 Q19 480 19 487 Q19 500 37 517 L75 555 Q94 574 106 574 Q116 574 128 562 L227 462 L327 562 Q339 574 349 574 Q361 574 380 555 L418 517 Q436 500 436 487 Q436 480 432.5 475 Q429 470 423 464 L324 365 L424 266 Q437 253 437 243 Q437 231 418 213 L380 175 Q362 157 349 157 Q339 157 327 169 L227 269 L128 169 Q116 157 106 157 Q93 157 75 175 L37 213 Z " />
<glyph glyph-name="divide" unicode="&#xf7;" horiz-adv-x="455" d="M7 391 Q7 416 14 425 Q21 434 40 434 L415 434 Q434 434 441 425 Q448 416 448 391 L448 338 Q448 312 439 304.5 Q430 297 414 297 L41 297 Q25 297 16 304.5 Q7 312 7 338 L7 391 Z M159 218 Q159 246 164.5 258 Q170 270 194 270 L258 270 Q282 270 287.5 258 Q293 246 293 218 L293 186 Q293 158 287.5 146 Q282 134 258 134 L194 134 Q170 134 164.5 146 Q159 158 159 186 L159 218 Z M159 545 Q159 573 164.5 584.5 Q170 596 194 596 L258 596 Q282 596 287.5 584.5 Q293 573 293 545 L293 513 Q293 485 287.5 473 Q282 461 258 461 L194 461 Q170 461 164.5 473 Q159 485 159 513 L159 545 Z " />
<glyph glyph-name="equal" unicode="&#x3d;" horiz-adv-x="398" d="M11 352 Q11 378 16 389 Q21 400 43 400 L354 400 Q377 400 382 389 Q387 378 387 352 L387 323 Q387 297 382 286 Q377 275 354 275 L43 275 Q21 275 16 286 Q11 297 11 323 L11 352 Z M11 163 Q11 189 16 200 Q21 211 43 211 L354 211 Q377 211 382 200 Q387 189 387 163 L387 133 Q387 107 382 96.5 Q377 86 354 86 L43 86 Q21 86 16 96.5 Q11 107 11 133 L11 163 Z " />
<glyph glyph-name="approxequal" unicode="&#x2248;" horiz-adv-x="690" d="M0 454 Q0 476 5 485 Q10 494 30 503 Q68 519 116 527.5 Q164 536 214 536 Q263 536 297.5 526 Q332 516 362.5 504.5 Q393 493 426.5 483 Q460 473 507 473 Q549 473 585.5 485.5 Q622 498 660 516 Q671 521 680.5 518 Q690 515 690 497 L690 481 Q690 470 689 463.5 Q688 457 685 452 Q682 447 676 443 Q670 439 660 434 Q624 414 581.5 402.5 Q539 391 500 391 Q453 391 421 401 Q389 411 358 422.5 Q327 434 292 444 Q257 454 206 454 Q155 454 113 444 Q71 434 30 416 Q19 411 9.5 414 Q0 417 0 434 L0 454 Z M0 289 Q0 300 1 307 Q2 314 5 319 Q8 324 14 328.5 Q20 333 30 338 Q66 357 108.5 368.5 Q151 380 189 380 Q236 380 268.5 370 Q301 360 332 348 Q363 336 398 326 Q433 316 484 316 Q535 316 577 326.5 Q619 337 660 355 Q671 360 680.5 357.5 Q690 355 690 338 L690 317 Q690 295 685 286 Q680 277 660 269 Q622 253 574 244 Q526 235 476 235 Q426 235 392 245 Q358 255 327 266.5 Q296 278 263 288 Q230 298 183 298 Q141 298 104.5 285 Q68 272 30 254 Q19 249 9.5 252.5 Q0 256 0 273 L0 289 Z " />
<glyph glyph-name="less" unicode="&#x3c;" horiz-adv-x="363" d="M11 268 Q11 279 12.5 284.5 Q14 290 18 294 Q22 298 27 300.5 Q32 303 40 308 L310 479 Q332 493 341 490 Q350 487 351 467 L352 423 Q353 403 349 392 Q345 381 325 368 L122 240 L325 112 Q343 100 348 88.5 Q353 77 352 56 L351 14 Q350 -7 341 -10 Q332 -13 310 1 L40 172 Q32 177 27 179.5 Q22 182 18 186 Q14 190 12.5 196 Q11 202 11 213 L11 268 Z " />
<glyph glyph-name="greater" unicode="&#x3e;" horiz-adv-x="363" d="M11 56 Q10 77 15 88.5 Q20 100 38 112 L241 240 L38 368 Q18 381 14 392 Q10 403 11 423 L12 467 Q13 487 22 490 Q31 493 53 479 L323 308 Q330 303 335.5 300.5 Q341 298 345 294 Q349 290 350.5 284.5 Q352 279 352 268 L352 213 Q352 202 350.5 196 Q349 190 345 186 Q341 182 335.5 179.5 Q330 177 323 172 L53 1 Q31 -13 22 -10 Q13 -7 12 14 L11 56 Z " />
<glyph glyph-name="Delta" unicode="&#x2206;" horiz-adv-x="391" d="M89 665 Q92 688 101.5 697 Q111 706 133 706 L256 706 Q275 706 284.5 696.5 Q294 687 297 664 L387 37 Q389 21 381.5 10.5 Q374 0 360 0 L34 0 Q20 0 11.5 10 Q3 20 5 36 L89 665 Z M222 125 Q230 125 234 132.5 Q238 140 237 145 L202 548 Q201 564 194 564 Q185 564 184 547 L151 143 Q151 138 154.5 131.5 Q158 125 166 125 L222 125 Z " />
<glyph glyph-name="Omega" unicode="&#x2126;" horiz-adv-x="376" d="M18 80 Q18 106 25.5 115.5 Q33 125 54 125 L68 125 Q78 125 76 131 Q74 137 66 147 Q49 166 39.5 191 Q30 216 25.5 250.5 Q21 285 19.5 330.5 Q18 376 18 437 Q18 499 23.5 550 Q29 601 47 637 Q65 673 98 693 Q131 713 187 713 Q242 713 276 693 Q310 673 328 637 Q346 601 352 550 Q358 499 358 437 Q358 376 356.5 330.5 Q355 285 350 250.5 Q345 216 335.5 191 Q326 166 310 147 Q301 137 299 131 Q297 125 308 125 L321 125 Q341 125 349 115.5 Q357 106 357 80 L357 45 Q357 21 347.5 10.5 Q338 0 317 0 L242 0 Q222 0 214 10 Q206 20 206 44 L206 214 Q206 219 209.5 224.5 Q213 230 215 233 Q224 244 229 296.5 Q234 349 234 437 Q234 480 232 508 Q230 536 225 552 Q220 568 211 574 Q202 580 188 580 Q174 580 165 574 Q156 568 151 552 Q146 536 144 508 Q142 480 142 437 Q142 351 146.5 298 Q151 245 161 234 Q163 232 166 226.5 Q169 221 169 214 L169 43 Q169 19 162 9.5 Q155 0 134 0 L57 0 Q37 0 27.5 10.5 Q18 21 18 45 L18 80 Z " />
<glyph glyph-name="mu" unicode="&#xb5;" horiz-adv-x="493" d="M28 662 Q28 688 34.5 697 Q41 706 61 706 L120 706 Q145 706 153 701 Q161 696 167 673 L238 419 Q241 409 247 409 Q252 409 255 419 L326 673 Q332 696 340 701 Q348 706 373 706 L432 706 Q452 706 459 697 Q466 688 466 662 L466 45 Q466 16 459.5 8 Q453 0 431 0 L375 0 Q354 0 347.5 9.5 Q341 19 341 44 L341 331 Q341 339 341 348 Q341 357 336 357 Q333 357 331 349 Q329 341 327 333 L285 124 Q280 104 272 98 Q264 92 247 92 Q230 92 221.5 98 Q213 104 208 124 L166 333 Q164 341 162 349 Q160 357 157 357 Q152 357 152 348 Q152 339 152 331 L152 44 Q152 19 145.5 9.5 Q139 0 118 0 L62 0 Q40 0 34 8 Q28 16 28 45 L28 662 Z " />
<glyph glyph-name="pi" unicode="&#x3c0;" horiz-adv-x="400" d="M28 660 Q28 686 35.5 696 Q43 706 62 706 L338 706 Q357 706 364.5 696 Q372 686 372 660 L372 47 Q372 20 365 10 Q358 0 338 0 L281 0 Q261 0 255 11 Q249 22 249 45 L249 560 Q249 573 245.5 577.5 Q242 582 232 582 L168 582 Q157 582 154 576 Q151 570 151 558 L151 45 Q151 22 145 11 Q139 0 118 0 L62 0 Q42 0 35 10 Q28 20 28 47 L28 660 Z " />
<glyph glyph-name="degree" unicode="&#xb0;" horiz-adv-x="399" d="M71 635 Q71 664 82 689.5 Q93 715 112 734.5 Q131 754 157 765 Q183 776 212 776 Q241 776 266.5 765 Q292 754 311 734.5 Q330 715 341 689.5 Q352 664 352 635 Q352 606 341 580.5 Q330 555 311 535.5 Q292 516 266.5 505 Q241 494 212 494 Q183 494 157.5 505 Q132 516 113 535.5 Q94 555 82.5 580.5 Q71 606 71 635 Z M145 635 Q146 607 165 587.5 Q184 568 213 568 Q240 568 259 587.5 Q278 607 278 635 Q278 663 259 682 Q240 701 212 701 Q184 701 164.5 682 Q145 663 145 635 Z " />
<glyph glyph-name="uni0410" unicode="&#x410;" horiz-adv-x="393" d="M89 665 Q92 688 101.5 697 Q111 706 133 706 L256 706 Q275 706 284.5 696.5 Q294 687 297 664 L389 16 Q392 0 373 0 L273 0 Q265 0 261 4 Q257 8 255 19 L235 168 Q233 179 229.5 182 Q226 185 217 185 L172 185 Q164 185 160 182 Q156 179 154 168 L138 17 Q136 6 132.5 3 Q129 0 118 0 L21 0 Q2 0 3 16 L89 665 Z M207 310 Q223 310 222 322 L202 565 Q201 581 194 581 Q186 581 185 564 L167 322 Q167 310 181 310 L207 310 Z " />
<glyph glyph-name="uni0411" unicode="&#x411;" horiz-adv-x="375" d="M200 125 Q209 125 215.5 128.5 Q222 132 226.5 142.5 Q231 153 233 172.5 Q235 192 235 224 Q235 255 233 274 Q231 293 227 302.5 Q223 312 217 315 Q211 318 203 318 L168 318 Q160 318 156 314.5 Q152 311 152 300 L152 144 Q152 131 156.5 128 Q161 125 169 125 L200 125 Z M28 657 Q28 686 35 696 Q42 706 62 706 L290 706 Q310 706 318.5 696 Q327 686 327 660 L327 623 Q327 599 319.5 590 Q312 581 294 581 L171 581 Q158 581 155 576 Q152 571 152 552 L152 443 L241 443 Q299 443 329.5 387.5 Q360 332 360 225 Q360 113 325.5 56.5 Q291 0 224 0 L61 0 Q42 0 35 11 Q28 22 28 49 L28 657 Z " />
<glyph glyph-name="uni0412" unicode="&#x412;" horiz-adv-x="382" d="M28 660 Q28 686 35 696 Q42 706 61 706 L253 706 Q287 706 307.5 692 Q328 678 339 654 Q350 630 354 597.5 Q358 565 358 528 Q358 461 344.5 424 Q331 387 300 368 Q333 355 350 310 Q367 265 367 190 Q367 149 362 114.5 Q357 80 344 54.5 Q331 29 309 14.5 Q287 0 253 0 L61 0 Q41 0 34.5 9.5 Q28 19 28 47 L28 660 Z M189 427 Q218 427 226 443.5 Q234 460 234 504 Q234 529 231 544 Q228 559 222 567 Q216 575 207.5 578 Q199 581 189 581 L169 581 Q158 581 154.5 577 Q151 573 151 560 L151 449 Q151 437 154.5 432 Q158 427 169 427 L189 427 Z M189 125 Q205 125 215 129 Q225 133 231 143 Q237 153 239 170 Q241 187 241 213 Q241 241 238 259 Q235 277 228.5 286.5 Q222 296 212 299.5 Q202 303 189 303 L169 303 Q158 303 154.5 298.5 Q151 294 151 281 L151 146 Q151 135 154.5 130 Q158 125 169 125 L189 125 Z " />
<glyph glyph-name="uni0413" unicode="&#x413;" horiz-adv-x="304" d="M28 657 Q28 686 35 696 Q42 706 62 706 L263 706 Q284 706 292 696 Q300 686 300 660 L300 623 Q300 599 293 590 Q286 581 268 581 L170 581 Q157 581 154 576 Q151 571 151 552 L151 44 Q151 19 144.5 9.5 Q138 0 121 0 L61 0 Q41 0 34.5 9 Q28 18 28 44 L28 657 Z " />
<glyph glyph-name="uni0414" unicode="&#x414;" horiz-adv-x="480" d="M3 88 Q3 114 12 119.5 Q21 125 35 125 L42 125 Q50 125 63.5 165.5 Q77 206 88 281 Q96 337 103 413.5 Q110 490 115 599 L118 674 Q119 697 130 701.5 Q141 706 156 706 L378 706 Q405 706 410 694.5 Q415 683 415 669 L415 140 Q415 130 416.5 127.5 Q418 125 427 125 L440 125 Q467 125 472 113.5 Q477 102 477 88 L477 -99 Q477 -126 465.5 -131 Q454 -136 440 -136 L395 -136 Q368 -136 363 -124.5 Q358 -113 358 -99 L358 -16 Q358 0 341 0 L142 0 Q128 0 125.5 -6 Q123 -12 123 -20 L123 -99 Q123 -126 111.5 -131 Q100 -136 86 -136 L40 -136 Q13 -136 8 -124.5 Q3 -113 3 -99 L3 88 Z M276 125 Q282 125 286.5 127 Q291 129 291 140 L291 567 Q291 570 289 575 Q287 580 278 580 L245 580 Q241 580 236.5 577.5 Q232 575 231 562 L227 502 Q225 478 224 450 Q223 422 221 392.5 Q219 363 217 334 Q215 305 212 279 Q206 233 200 195 Q194 157 190 143 Q188 137 190 132 Q192 125 205 125 L276 125 Z " />
<glyph glyph-name="uni0415" unicode="&#x415;" horiz-adv-x="318" d="M28 659 Q28 685 35.5 695.5 Q43 706 63 706 L273 706 Q293 706 300 698 Q307 690 307 664 L307 625 Q307 599 300 590 Q293 581 273 581 L169 581 Q157 581 153.5 576.5 Q150 572 150 558 L150 459 Q150 444 152.5 440.5 Q155 437 169 437 L222 437 Q239 437 246 430 Q253 423 253 401 L253 347 Q253 327 246 319.5 Q239 312 222 312 L169 312 Q158 312 154 309 Q150 306 150 296 L150 148 Q150 135 154 130 Q158 125 172 125 L277 125 Q299 125 307 115 Q315 105 315 79 L315 45 Q315 21 307 10.5 Q299 0 279 0 L63 0 Q42 0 35 9.5 Q28 19 28 47 L28 659 Z " />
</font>
</svg>
